%TF.GenerationSoftware,KiCad,Pcbnew,6.0.2+dfsg-1*%
%TF.CreationDate,2022-10-09T18:24:26+02:00*%
%TF.ProjectId,can_middle,63616e5f-6d69-4646-946c-652e6b696361,rev?*%
%TF.SameCoordinates,Original*%
%TF.FileFunction,Legend,Top*%
%TF.FilePolarity,Positive*%
%FSLAX46Y46*%
G04 Gerber Fmt 4.6, Leading zero omitted, Abs format (unit mm)*
G04 Created by KiCad (PCBNEW 6.0.2+dfsg-1) date 2022-10-09 18:24:26*
%MOMM*%
%LPD*%
G01*
G04 APERTURE LIST*
%ADD10C,0.300000*%
%ADD11C,0.150000*%
%ADD12C,0.120000*%
%ADD13C,0.203200*%
%ADD14C,1.000000*%
%ADD15C,0.800000*%
G04 APERTURE END LIST*
D10*
X184277142Y-86880000D02*
X184134285Y-86808571D01*
X183920000Y-86808571D01*
X183705714Y-86880000D01*
X183562857Y-87022857D01*
X183491428Y-87165714D01*
X183420000Y-87451428D01*
X183420000Y-87665714D01*
X183491428Y-87951428D01*
X183562857Y-88094285D01*
X183705714Y-88237142D01*
X183920000Y-88308571D01*
X184062857Y-88308571D01*
X184277142Y-88237142D01*
X184348571Y-88165714D01*
X184348571Y-87665714D01*
X184062857Y-87665714D01*
X184991428Y-88308571D02*
X184991428Y-86808571D01*
X185848571Y-88308571D01*
X185848571Y-86808571D01*
X186562857Y-88308571D02*
X186562857Y-86808571D01*
X186920000Y-86808571D01*
X187134285Y-86880000D01*
X187277142Y-87022857D01*
X187348571Y-87165714D01*
X187420000Y-87451428D01*
X187420000Y-87665714D01*
X187348571Y-87951428D01*
X187277142Y-88094285D01*
X187134285Y-88237142D01*
X186920000Y-88308571D01*
X186562857Y-88308571D01*
X182777142Y-77577142D02*
X183920000Y-77577142D01*
X183348571Y-78148571D02*
X183348571Y-77005714D01*
X185420000Y-78148571D02*
X184562857Y-78148571D01*
X184991428Y-78148571D02*
X184991428Y-76648571D01*
X184848571Y-76862857D01*
X184705714Y-77005714D01*
X184562857Y-77077142D01*
X185991428Y-76791428D02*
X186062857Y-76720000D01*
X186205714Y-76648571D01*
X186562857Y-76648571D01*
X186705714Y-76720000D01*
X186777142Y-76791428D01*
X186848571Y-76934285D01*
X186848571Y-77077142D01*
X186777142Y-77291428D01*
X185920000Y-78148571D01*
X186848571Y-78148571D01*
X187277142Y-76648571D02*
X187777142Y-78148571D01*
X188277142Y-76648571D01*
D11*
%TO.C,J2*%
X154611666Y-96982380D02*
X154611666Y-97696666D01*
X154564047Y-97839523D01*
X154468809Y-97934761D01*
X154325952Y-97982380D01*
X154230714Y-97982380D01*
X155040238Y-97077619D02*
X155087857Y-97030000D01*
X155183095Y-96982380D01*
X155421190Y-96982380D01*
X155516428Y-97030000D01*
X155564047Y-97077619D01*
X155611666Y-97172857D01*
X155611666Y-97268095D01*
X155564047Y-97410952D01*
X154992619Y-97982380D01*
X155611666Y-97982380D01*
X150373571Y-62827142D02*
X150325952Y-62874761D01*
X150183095Y-62922380D01*
X150087857Y-62922380D01*
X149945000Y-62874761D01*
X149849761Y-62779523D01*
X149802142Y-62684285D01*
X149754523Y-62493809D01*
X149754523Y-62350952D01*
X149802142Y-62160476D01*
X149849761Y-62065238D01*
X149945000Y-61970000D01*
X150087857Y-61922380D01*
X150183095Y-61922380D01*
X150325952Y-61970000D01*
X150373571Y-62017619D01*
X150945000Y-62922380D02*
X150849761Y-62874761D01*
X150802142Y-62827142D01*
X150754523Y-62731904D01*
X150754523Y-62446190D01*
X150802142Y-62350952D01*
X150849761Y-62303333D01*
X150945000Y-62255714D01*
X151087857Y-62255714D01*
X151183095Y-62303333D01*
X151230714Y-62350952D01*
X151278333Y-62446190D01*
X151278333Y-62731904D01*
X151230714Y-62827142D01*
X151183095Y-62874761D01*
X151087857Y-62922380D01*
X150945000Y-62922380D01*
X151706904Y-62255714D02*
X151706904Y-62922380D01*
X151706904Y-62350952D02*
X151754523Y-62303333D01*
X151849761Y-62255714D01*
X151992619Y-62255714D01*
X152087857Y-62303333D01*
X152135476Y-62398571D01*
X152135476Y-62922380D01*
X152611666Y-62255714D02*
X152611666Y-62922380D01*
X152611666Y-62350952D02*
X152659285Y-62303333D01*
X152754523Y-62255714D01*
X152897380Y-62255714D01*
X152992619Y-62303333D01*
X153040238Y-62398571D01*
X153040238Y-62922380D01*
X153278333Y-63017619D02*
X154040238Y-63017619D01*
X154849761Y-62827142D02*
X154802142Y-62874761D01*
X154659285Y-62922380D01*
X154564047Y-62922380D01*
X154421190Y-62874761D01*
X154325952Y-62779523D01*
X154278333Y-62684285D01*
X154230714Y-62493809D01*
X154230714Y-62350952D01*
X154278333Y-62160476D01*
X154325952Y-62065238D01*
X154421190Y-61970000D01*
X154564047Y-61922380D01*
X154659285Y-61922380D01*
X154802142Y-61970000D01*
X154849761Y-62017619D01*
X155230714Y-62636666D02*
X155706904Y-62636666D01*
X155135476Y-62922380D02*
X155468809Y-61922380D01*
X155802142Y-62922380D01*
X156135476Y-62922380D02*
X156135476Y-61922380D01*
X156706904Y-62922380D01*
X156706904Y-61922380D01*
X156945000Y-63017619D02*
X157706904Y-63017619D01*
X157802142Y-61922380D02*
X158373571Y-61922380D01*
X158087857Y-62922380D02*
X158087857Y-61922380D01*
X158659285Y-62636666D02*
X159135476Y-62636666D01*
X158564047Y-62922380D02*
X158897380Y-61922380D01*
X159230714Y-62922380D01*
X159564047Y-62922380D02*
X159564047Y-61922380D01*
X159945000Y-61922380D01*
X160040238Y-61970000D01*
X160087857Y-62017619D01*
X160135476Y-62112857D01*
X160135476Y-62255714D01*
X160087857Y-62350952D01*
X160040238Y-62398571D01*
X159945000Y-62446190D01*
X159564047Y-62446190D01*
X162842619Y-84357619D02*
X162509285Y-83357619D01*
X162175952Y-84357619D01*
X161842619Y-83357619D02*
X161842619Y-84024285D01*
X161842619Y-84357619D02*
X161890238Y-84310000D01*
X161842619Y-84262380D01*
X161795000Y-84310000D01*
X161842619Y-84357619D01*
X161842619Y-84262380D01*
X161461666Y-84357619D02*
X161223571Y-83357619D01*
X161033095Y-84071904D01*
X160842619Y-83357619D01*
X160604523Y-84357619D01*
X160271190Y-83405238D02*
X160175952Y-83357619D01*
X159985476Y-83357619D01*
X159890238Y-83405238D01*
X159842619Y-83500476D01*
X159842619Y-83548095D01*
X159890238Y-83643333D01*
X159985476Y-83690952D01*
X160128333Y-83690952D01*
X160223571Y-83738571D01*
X160271190Y-83833809D01*
X160271190Y-83881428D01*
X160223571Y-83976666D01*
X160128333Y-84024285D01*
X159985476Y-84024285D01*
X159890238Y-83976666D01*
X162509285Y-71657619D02*
X162318809Y-71657619D01*
X162223571Y-71610000D01*
X162128333Y-71514761D01*
X162080714Y-71324285D01*
X162080714Y-70990952D01*
X162128333Y-70800476D01*
X162223571Y-70705238D01*
X162318809Y-70657619D01*
X162509285Y-70657619D01*
X162604523Y-70705238D01*
X162699761Y-70800476D01*
X162747380Y-70990952D01*
X162747380Y-71324285D01*
X162699761Y-71514761D01*
X162604523Y-71610000D01*
X162509285Y-71657619D01*
X161652142Y-70657619D02*
X161652142Y-71324285D01*
X161652142Y-71133809D02*
X161604523Y-71229047D01*
X161556904Y-71276666D01*
X161461666Y-71324285D01*
X161366428Y-71324285D01*
X160699761Y-71181428D02*
X160556904Y-71133809D01*
X160509285Y-71086190D01*
X160461666Y-70990952D01*
X160461666Y-70848095D01*
X160509285Y-70752857D01*
X160556904Y-70705238D01*
X160652142Y-70657619D01*
X161033095Y-70657619D01*
X161033095Y-71657619D01*
X160699761Y-71657619D01*
X160604523Y-71610000D01*
X160556904Y-71562380D01*
X160509285Y-71467142D01*
X160509285Y-71371904D01*
X160556904Y-71276666D01*
X160604523Y-71229047D01*
X160699761Y-71181428D01*
X161033095Y-71181428D01*
X160033095Y-70657619D02*
X160033095Y-71324285D01*
X160033095Y-71133809D02*
X159985476Y-71229047D01*
X159937857Y-71276666D01*
X159842619Y-71324285D01*
X159747380Y-71324285D01*
X149809285Y-71657619D02*
X149618809Y-71657619D01*
X149523571Y-71610000D01*
X149428333Y-71514761D01*
X149380714Y-71324285D01*
X149380714Y-70990952D01*
X149428333Y-70800476D01*
X149523571Y-70705238D01*
X149618809Y-70657619D01*
X149809285Y-70657619D01*
X149904523Y-70705238D01*
X149999761Y-70800476D01*
X150047380Y-70990952D01*
X150047380Y-71324285D01*
X149999761Y-71514761D01*
X149904523Y-71610000D01*
X149809285Y-71657619D01*
X148952142Y-70657619D02*
X148952142Y-71324285D01*
X148952142Y-71133809D02*
X148904523Y-71229047D01*
X148856904Y-71276666D01*
X148761666Y-71324285D01*
X148666428Y-71324285D01*
X147999761Y-71181428D02*
X147856904Y-71133809D01*
X147809285Y-71086190D01*
X147761666Y-70990952D01*
X147761666Y-70848095D01*
X147809285Y-70752857D01*
X147856904Y-70705238D01*
X147952142Y-70657619D01*
X148333095Y-70657619D01*
X148333095Y-71657619D01*
X147999761Y-71657619D01*
X147904523Y-71610000D01*
X147856904Y-71562380D01*
X147809285Y-71467142D01*
X147809285Y-71371904D01*
X147856904Y-71276666D01*
X147904523Y-71229047D01*
X147999761Y-71181428D01*
X148333095Y-71181428D01*
X147333095Y-70657619D02*
X147333095Y-71324285D01*
X147333095Y-71133809D02*
X147285476Y-71229047D01*
X147237857Y-71276666D01*
X147142619Y-71324285D01*
X147047380Y-71324285D01*
X161485476Y-69070000D02*
X161580714Y-69117619D01*
X161723571Y-69117619D01*
X161866428Y-69070000D01*
X161961666Y-68974761D01*
X162009285Y-68879523D01*
X162056904Y-68689047D01*
X162056904Y-68546190D01*
X162009285Y-68355714D01*
X161961666Y-68260476D01*
X161866428Y-68165238D01*
X161723571Y-68117619D01*
X161628333Y-68117619D01*
X161485476Y-68165238D01*
X161437857Y-68212857D01*
X161437857Y-68546190D01*
X161628333Y-68546190D01*
X161009285Y-68784285D02*
X161009285Y-68117619D01*
X161009285Y-68689047D02*
X160961666Y-68736666D01*
X160866428Y-68784285D01*
X160723571Y-68784285D01*
X160628333Y-68736666D01*
X160580714Y-68641428D01*
X160580714Y-68117619D01*
X150095000Y-84357619D02*
X149761666Y-83357619D01*
X149428333Y-84357619D01*
X149095000Y-83357619D02*
X149095000Y-84024285D01*
X149095000Y-84357619D02*
X149142619Y-84310000D01*
X149095000Y-84262380D01*
X149047380Y-84310000D01*
X149095000Y-84357619D01*
X149095000Y-84262380D01*
X148095000Y-84310000D02*
X148190238Y-84357619D01*
X148333095Y-84357619D01*
X148475952Y-84310000D01*
X148571190Y-84214761D01*
X148618809Y-84119523D01*
X148666428Y-83929047D01*
X148666428Y-83786190D01*
X148618809Y-83595714D01*
X148571190Y-83500476D01*
X148475952Y-83405238D01*
X148333095Y-83357619D01*
X148237857Y-83357619D01*
X148095000Y-83405238D01*
X148047380Y-83452857D01*
X148047380Y-83786190D01*
X148237857Y-83786190D01*
X147237857Y-83405238D02*
X147333095Y-83357619D01*
X147523571Y-83357619D01*
X147618809Y-83405238D01*
X147666428Y-83500476D01*
X147666428Y-83881428D01*
X147618809Y-83976666D01*
X147523571Y-84024285D01*
X147333095Y-84024285D01*
X147237857Y-83976666D01*
X147190238Y-83881428D01*
X147190238Y-83786190D01*
X147666428Y-83690952D01*
X149761666Y-69117619D02*
X149571190Y-69117619D01*
X149475952Y-69070000D01*
X149380714Y-68974761D01*
X149333095Y-68784285D01*
X149333095Y-68450952D01*
X149380714Y-68260476D01*
X149475952Y-68165238D01*
X149571190Y-68117619D01*
X149761666Y-68117619D01*
X149856904Y-68165238D01*
X149952142Y-68260476D01*
X149999761Y-68450952D01*
X149999761Y-68784285D01*
X149952142Y-68974761D01*
X149856904Y-69070000D01*
X149761666Y-69117619D01*
X148904523Y-68117619D02*
X148904523Y-68784285D01*
X148904523Y-68593809D02*
X148856904Y-68689047D01*
X148809285Y-68736666D01*
X148714047Y-68784285D01*
X148618809Y-68784285D01*
X147952142Y-68641428D02*
X147809285Y-68593809D01*
X147761666Y-68546190D01*
X147714047Y-68450952D01*
X147714047Y-68308095D01*
X147761666Y-68212857D01*
X147809285Y-68165238D01*
X147904523Y-68117619D01*
X148285476Y-68117619D01*
X148285476Y-69117619D01*
X147952142Y-69117619D01*
X147856904Y-69070000D01*
X147809285Y-69022380D01*
X147761666Y-68927142D01*
X147761666Y-68831904D01*
X147809285Y-68736666D01*
X147856904Y-68689047D01*
X147952142Y-68641428D01*
X148285476Y-68641428D01*
X147142619Y-68117619D02*
X147237857Y-68165238D01*
X147285476Y-68260476D01*
X147285476Y-69117619D01*
X162104523Y-73245238D02*
X161961666Y-73197619D01*
X161723571Y-73197619D01*
X161628333Y-73245238D01*
X161580714Y-73292857D01*
X161533095Y-73388095D01*
X161533095Y-73483333D01*
X161580714Y-73578571D01*
X161628333Y-73626190D01*
X161723571Y-73673809D01*
X161914047Y-73721428D01*
X162009285Y-73769047D01*
X162056904Y-73816666D01*
X162104523Y-73911904D01*
X162104523Y-74007142D01*
X162056904Y-74102380D01*
X162009285Y-74150000D01*
X161914047Y-74197619D01*
X161675952Y-74197619D01*
X161533095Y-74150000D01*
X161199761Y-73864285D02*
X161009285Y-73197619D01*
X160818809Y-73673809D01*
X160628333Y-73197619D01*
X160437857Y-73864285D01*
X162509285Y-76737619D02*
X162318809Y-76737619D01*
X162223571Y-76690000D01*
X162128333Y-76594761D01*
X162080714Y-76404285D01*
X162080714Y-76070952D01*
X162128333Y-75880476D01*
X162223571Y-75785238D01*
X162318809Y-75737619D01*
X162509285Y-75737619D01*
X162604523Y-75785238D01*
X162699761Y-75880476D01*
X162747380Y-76070952D01*
X162747380Y-76404285D01*
X162699761Y-76594761D01*
X162604523Y-76690000D01*
X162509285Y-76737619D01*
X161652142Y-75737619D02*
X161652142Y-76404285D01*
X161652142Y-76213809D02*
X161604523Y-76309047D01*
X161556904Y-76356666D01*
X161461666Y-76404285D01*
X161366428Y-76404285D01*
X160699761Y-76261428D02*
X160556904Y-76213809D01*
X160509285Y-76166190D01*
X160461666Y-76070952D01*
X160461666Y-75928095D01*
X160509285Y-75832857D01*
X160556904Y-75785238D01*
X160652142Y-75737619D01*
X161033095Y-75737619D01*
X161033095Y-76737619D01*
X160699761Y-76737619D01*
X160604523Y-76690000D01*
X160556904Y-76642380D01*
X160509285Y-76547142D01*
X160509285Y-76451904D01*
X160556904Y-76356666D01*
X160604523Y-76309047D01*
X160699761Y-76261428D01*
X161033095Y-76261428D01*
X160033095Y-75737619D02*
X160033095Y-76404285D01*
X160033095Y-76213809D02*
X159985476Y-76309047D01*
X159937857Y-76356666D01*
X159842619Y-76404285D01*
X159747380Y-76404285D01*
%TO.C,J4*%
X187672380Y-82863333D02*
X188386666Y-82863333D01*
X188529523Y-82910952D01*
X188624761Y-83006190D01*
X188672380Y-83149047D01*
X188672380Y-83244285D01*
X188005714Y-81958571D02*
X188672380Y-81958571D01*
X187624761Y-82196666D02*
X188339047Y-82434761D01*
X188339047Y-81815714D01*
%TO.C,U1*%
X178308095Y-103592380D02*
X178308095Y-104401904D01*
X178355714Y-104497142D01*
X178403333Y-104544761D01*
X178498571Y-104592380D01*
X178689047Y-104592380D01*
X178784285Y-104544761D01*
X178831904Y-104497142D01*
X178879523Y-104401904D01*
X178879523Y-103592380D01*
X179879523Y-104592380D02*
X179308095Y-104592380D01*
X179593809Y-104592380D02*
X179593809Y-103592380D01*
X179498571Y-103735238D01*
X179403333Y-103830476D01*
X179308095Y-103878095D01*
X177340476Y-100687142D02*
X177292857Y-100734761D01*
X177150000Y-100782380D01*
X177054761Y-100782380D01*
X176911904Y-100734761D01*
X176816666Y-100639523D01*
X176769047Y-100544285D01*
X176721428Y-100353809D01*
X176721428Y-100210952D01*
X176769047Y-100020476D01*
X176816666Y-99925238D01*
X176911904Y-99830000D01*
X177054761Y-99782380D01*
X177150000Y-99782380D01*
X177292857Y-99830000D01*
X177340476Y-99877619D01*
X177721428Y-100496666D02*
X178197619Y-100496666D01*
X177626190Y-100782380D02*
X177959523Y-99782380D01*
X178292857Y-100782380D01*
X178626190Y-100782380D02*
X178626190Y-99782380D01*
X179197619Y-100782380D01*
X179197619Y-99782380D01*
X179435714Y-100877619D02*
X180197619Y-100877619D01*
X180292857Y-99782380D02*
X180864285Y-99782380D01*
X180578571Y-100782380D02*
X180578571Y-99782380D01*
X181197619Y-100782380D02*
X181197619Y-100115714D01*
X181197619Y-100306190D02*
X181245238Y-100210952D01*
X181292857Y-100163333D01*
X181388095Y-100115714D01*
X181483333Y-100115714D01*
X182245238Y-100782380D02*
X182245238Y-100258571D01*
X182197619Y-100163333D01*
X182102380Y-100115714D01*
X181911904Y-100115714D01*
X181816666Y-100163333D01*
X182245238Y-100734761D02*
X182150000Y-100782380D01*
X181911904Y-100782380D01*
X181816666Y-100734761D01*
X181769047Y-100639523D01*
X181769047Y-100544285D01*
X181816666Y-100449047D01*
X181911904Y-100401428D01*
X182150000Y-100401428D01*
X182245238Y-100353809D01*
X182721428Y-100115714D02*
X182721428Y-100782380D01*
X182721428Y-100210952D02*
X182769047Y-100163333D01*
X182864285Y-100115714D01*
X183007142Y-100115714D01*
X183102380Y-100163333D01*
X183150000Y-100258571D01*
X183150000Y-100782380D01*
X183578571Y-100734761D02*
X183673809Y-100782380D01*
X183864285Y-100782380D01*
X183959523Y-100734761D01*
X184007142Y-100639523D01*
X184007142Y-100591904D01*
X183959523Y-100496666D01*
X183864285Y-100449047D01*
X183721428Y-100449047D01*
X183626190Y-100401428D01*
X183578571Y-100306190D01*
X183578571Y-100258571D01*
X183626190Y-100163333D01*
X183721428Y-100115714D01*
X183864285Y-100115714D01*
X183959523Y-100163333D01*
X184864285Y-100734761D02*
X184769047Y-100782380D01*
X184578571Y-100782380D01*
X184483333Y-100734761D01*
X184435714Y-100687142D01*
X184388095Y-100591904D01*
X184388095Y-100306190D01*
X184435714Y-100210952D01*
X184483333Y-100163333D01*
X184578571Y-100115714D01*
X184769047Y-100115714D01*
X184864285Y-100163333D01*
X185673809Y-100734761D02*
X185578571Y-100782380D01*
X185388095Y-100782380D01*
X185292857Y-100734761D01*
X185245238Y-100639523D01*
X185245238Y-100258571D01*
X185292857Y-100163333D01*
X185388095Y-100115714D01*
X185578571Y-100115714D01*
X185673809Y-100163333D01*
X185721428Y-100258571D01*
X185721428Y-100353809D01*
X185245238Y-100449047D01*
X186150000Y-100782380D02*
X186150000Y-100115714D01*
X186150000Y-99782380D02*
X186102380Y-99830000D01*
X186150000Y-99877619D01*
X186197619Y-99830000D01*
X186150000Y-99782380D01*
X186150000Y-99877619D01*
X186530952Y-100115714D02*
X186769047Y-100782380D01*
X187007142Y-100115714D01*
X187769047Y-100734761D02*
X187673809Y-100782380D01*
X187483333Y-100782380D01*
X187388095Y-100734761D01*
X187340476Y-100639523D01*
X187340476Y-100258571D01*
X187388095Y-100163333D01*
X187483333Y-100115714D01*
X187673809Y-100115714D01*
X187769047Y-100163333D01*
X187816666Y-100258571D01*
X187816666Y-100353809D01*
X187340476Y-100449047D01*
X188245238Y-100782380D02*
X188245238Y-100115714D01*
X188245238Y-100306190D02*
X188292857Y-100210952D01*
X188340476Y-100163333D01*
X188435714Y-100115714D01*
X188530952Y-100115714D01*
X189483333Y-100115714D02*
X189864285Y-100115714D01*
X189626190Y-99782380D02*
X189626190Y-100639523D01*
X189673809Y-100734761D01*
X189769047Y-100782380D01*
X189864285Y-100782380D01*
X190626190Y-100782380D02*
X190626190Y-100258571D01*
X190578571Y-100163333D01*
X190483333Y-100115714D01*
X190292857Y-100115714D01*
X190197619Y-100163333D01*
X190626190Y-100734761D02*
X190530952Y-100782380D01*
X190292857Y-100782380D01*
X190197619Y-100734761D01*
X190150000Y-100639523D01*
X190150000Y-100544285D01*
X190197619Y-100449047D01*
X190292857Y-100401428D01*
X190530952Y-100401428D01*
X190626190Y-100353809D01*
X191102380Y-100115714D02*
X191102380Y-101115714D01*
X191102380Y-100163333D02*
X191197619Y-100115714D01*
X191388095Y-100115714D01*
X191483333Y-100163333D01*
X191530952Y-100210952D01*
X191578571Y-100306190D01*
X191578571Y-100591904D01*
X191530952Y-100687142D01*
X191483333Y-100734761D01*
X191388095Y-100782380D01*
X191197619Y-100782380D01*
X191102380Y-100734761D01*
X173823333Y-105862380D02*
X173490000Y-105386190D01*
X173251904Y-105862380D02*
X173251904Y-104862380D01*
X173632857Y-104862380D01*
X173728095Y-104910000D01*
X173775714Y-104957619D01*
X173823333Y-105052857D01*
X173823333Y-105195714D01*
X173775714Y-105290952D01*
X173728095Y-105338571D01*
X173632857Y-105386190D01*
X173251904Y-105386190D01*
X174156666Y-104862380D02*
X174823333Y-105862380D01*
X174823333Y-104862380D02*
X174156666Y-105862380D01*
X182983333Y-103227142D02*
X182935714Y-103274761D01*
X182792857Y-103322380D01*
X182697619Y-103322380D01*
X182554761Y-103274761D01*
X182459523Y-103179523D01*
X182411904Y-103084285D01*
X182364285Y-102893809D01*
X182364285Y-102750952D01*
X182411904Y-102560476D01*
X182459523Y-102465238D01*
X182554761Y-102370000D01*
X182697619Y-102322380D01*
X182792857Y-102322380D01*
X182935714Y-102370000D01*
X182983333Y-102417619D01*
X183364285Y-103036666D02*
X183840476Y-103036666D01*
X183269047Y-103322380D02*
X183602380Y-102322380D01*
X183935714Y-103322380D01*
X184269047Y-103322380D02*
X184269047Y-102322380D01*
X184840476Y-103322380D01*
X184840476Y-102322380D01*
X185316666Y-103322380D02*
X185316666Y-102322380D01*
X185316666Y-102798571D02*
X185888095Y-102798571D01*
X185888095Y-103322380D02*
X185888095Y-102322380D01*
X183102380Y-105767142D02*
X183054761Y-105814761D01*
X182911904Y-105862380D01*
X182816666Y-105862380D01*
X182673809Y-105814761D01*
X182578571Y-105719523D01*
X182530952Y-105624285D01*
X182483333Y-105433809D01*
X182483333Y-105290952D01*
X182530952Y-105100476D01*
X182578571Y-105005238D01*
X182673809Y-104910000D01*
X182816666Y-104862380D01*
X182911904Y-104862380D01*
X183054761Y-104910000D01*
X183102380Y-104957619D01*
X183483333Y-105576666D02*
X183959523Y-105576666D01*
X183388095Y-105862380D02*
X183721428Y-104862380D01*
X184054761Y-105862380D01*
X184388095Y-105862380D02*
X184388095Y-104862380D01*
X184959523Y-105862380D01*
X184959523Y-104862380D01*
X185911904Y-105862380D02*
X185435714Y-105862380D01*
X185435714Y-104862380D01*
X172513809Y-99782380D02*
X173132857Y-99782380D01*
X172799523Y-100163333D01*
X172942380Y-100163333D01*
X173037619Y-100210952D01*
X173085238Y-100258571D01*
X173132857Y-100353809D01*
X173132857Y-100591904D01*
X173085238Y-100687142D01*
X173037619Y-100734761D01*
X172942380Y-100782380D01*
X172656666Y-100782380D01*
X172561428Y-100734761D01*
X172513809Y-100687142D01*
X173561428Y-100687142D02*
X173609047Y-100734761D01*
X173561428Y-100782380D01*
X173513809Y-100734761D01*
X173561428Y-100687142D01*
X173561428Y-100782380D01*
X173942380Y-99782380D02*
X174561428Y-99782380D01*
X174228095Y-100163333D01*
X174370952Y-100163333D01*
X174466190Y-100210952D01*
X174513809Y-100258571D01*
X174561428Y-100353809D01*
X174561428Y-100591904D01*
X174513809Y-100687142D01*
X174466190Y-100734761D01*
X174370952Y-100782380D01*
X174085238Y-100782380D01*
X173990000Y-100734761D01*
X173942380Y-100687142D01*
X174847142Y-99782380D02*
X175180476Y-100782380D01*
X175513809Y-99782380D01*
X173228095Y-107402380D02*
X173799523Y-107402380D01*
X173513809Y-108402380D02*
X173513809Y-107402380D01*
X174037619Y-107402380D02*
X174704285Y-108402380D01*
X174704285Y-107402380D02*
X174037619Y-108402380D01*
X173228095Y-102370000D02*
X173132857Y-102322380D01*
X172990000Y-102322380D01*
X172847142Y-102370000D01*
X172751904Y-102465238D01*
X172704285Y-102560476D01*
X172656666Y-102750952D01*
X172656666Y-102893809D01*
X172704285Y-103084285D01*
X172751904Y-103179523D01*
X172847142Y-103274761D01*
X172990000Y-103322380D01*
X173085238Y-103322380D01*
X173228095Y-103274761D01*
X173275714Y-103227142D01*
X173275714Y-102893809D01*
X173085238Y-102893809D01*
X173704285Y-103322380D02*
X173704285Y-102322380D01*
X174275714Y-103322380D01*
X174275714Y-102322380D01*
X174751904Y-103322380D02*
X174751904Y-102322380D01*
X174990000Y-102322380D01*
X175132857Y-102370000D01*
X175228095Y-102465238D01*
X175275714Y-102560476D01*
X175323333Y-102750952D01*
X175323333Y-102893809D01*
X175275714Y-103084285D01*
X175228095Y-103179523D01*
X175132857Y-103274761D01*
X174990000Y-103322380D01*
X174751904Y-103322380D01*
%TO.C,J1*%
X193976666Y-93212380D02*
X193976666Y-93926666D01*
X193929047Y-94069523D01*
X193833809Y-94164761D01*
X193690952Y-94212380D01*
X193595714Y-94212380D01*
X194976666Y-94212380D02*
X194405238Y-94212380D01*
X194690952Y-94212380D02*
X194690952Y-93212380D01*
X194595714Y-93355238D01*
X194500476Y-93450476D01*
X194405238Y-93498095D01*
X190286190Y-66597142D02*
X190238571Y-66644761D01*
X190095714Y-66692380D01*
X190000476Y-66692380D01*
X189857619Y-66644761D01*
X189762380Y-66549523D01*
X189714761Y-66454285D01*
X189667142Y-66263809D01*
X189667142Y-66120952D01*
X189714761Y-65930476D01*
X189762380Y-65835238D01*
X189857619Y-65740000D01*
X190000476Y-65692380D01*
X190095714Y-65692380D01*
X190238571Y-65740000D01*
X190286190Y-65787619D01*
X190857619Y-66692380D02*
X190762380Y-66644761D01*
X190714761Y-66597142D01*
X190667142Y-66501904D01*
X190667142Y-66216190D01*
X190714761Y-66120952D01*
X190762380Y-66073333D01*
X190857619Y-66025714D01*
X191000476Y-66025714D01*
X191095714Y-66073333D01*
X191143333Y-66120952D01*
X191190952Y-66216190D01*
X191190952Y-66501904D01*
X191143333Y-66597142D01*
X191095714Y-66644761D01*
X191000476Y-66692380D01*
X190857619Y-66692380D01*
X191619523Y-66025714D02*
X191619523Y-66692380D01*
X191619523Y-66120952D02*
X191667142Y-66073333D01*
X191762380Y-66025714D01*
X191905238Y-66025714D01*
X192000476Y-66073333D01*
X192048095Y-66168571D01*
X192048095Y-66692380D01*
X192524285Y-66025714D02*
X192524285Y-66692380D01*
X192524285Y-66120952D02*
X192571904Y-66073333D01*
X192667142Y-66025714D01*
X192810000Y-66025714D01*
X192905238Y-66073333D01*
X192952857Y-66168571D01*
X192952857Y-66692380D01*
X193190952Y-66787619D02*
X193952857Y-66787619D01*
X194762380Y-66597142D02*
X194714761Y-66644761D01*
X194571904Y-66692380D01*
X194476666Y-66692380D01*
X194333809Y-66644761D01*
X194238571Y-66549523D01*
X194190952Y-66454285D01*
X194143333Y-66263809D01*
X194143333Y-66120952D01*
X194190952Y-65930476D01*
X194238571Y-65835238D01*
X194333809Y-65740000D01*
X194476666Y-65692380D01*
X194571904Y-65692380D01*
X194714761Y-65740000D01*
X194762380Y-65787619D01*
X195143333Y-66406666D02*
X195619523Y-66406666D01*
X195048095Y-66692380D02*
X195381428Y-65692380D01*
X195714761Y-66692380D01*
X196048095Y-66692380D02*
X196048095Y-65692380D01*
X196619523Y-66692380D01*
X196619523Y-65692380D01*
X196857619Y-66787619D02*
X197619523Y-66787619D01*
X197857619Y-66692380D02*
X197857619Y-65692380D01*
X198333809Y-66692380D02*
X198333809Y-65692380D01*
X198905238Y-66692380D01*
X198905238Y-65692380D01*
%TO.C,U5*%
X169418095Y-76160380D02*
X169418095Y-76969904D01*
X169465714Y-77065142D01*
X169513333Y-77112761D01*
X169608571Y-77160380D01*
X169799047Y-77160380D01*
X169894285Y-77112761D01*
X169941904Y-77065142D01*
X169989523Y-76969904D01*
X169989523Y-76160380D01*
X170941904Y-76160380D02*
X170465714Y-76160380D01*
X170418095Y-76636571D01*
X170465714Y-76588952D01*
X170560952Y-76541333D01*
X170799047Y-76541333D01*
X170894285Y-76588952D01*
X170941904Y-76636571D01*
X170989523Y-76731809D01*
X170989523Y-76969904D01*
X170941904Y-77065142D01*
X170894285Y-77112761D01*
X170799047Y-77160380D01*
X170560952Y-77160380D01*
X170465714Y-77112761D01*
X170418095Y-77065142D01*
X168180000Y-84272380D02*
X168180000Y-83272380D01*
X168180000Y-84224761D02*
X168084761Y-84272380D01*
X167894285Y-84272380D01*
X167799047Y-84224761D01*
X167751428Y-84177142D01*
X167703809Y-84081904D01*
X167703809Y-83796190D01*
X167751428Y-83700952D01*
X167799047Y-83653333D01*
X167894285Y-83605714D01*
X168084761Y-83605714D01*
X168180000Y-83653333D01*
X169084761Y-84224761D02*
X168989523Y-84272380D01*
X168799047Y-84272380D01*
X168703809Y-84224761D01*
X168656190Y-84177142D01*
X168608571Y-84081904D01*
X168608571Y-83796190D01*
X168656190Y-83700952D01*
X168703809Y-83653333D01*
X168799047Y-83605714D01*
X168989523Y-83605714D01*
X169084761Y-83653333D01*
X169846666Y-83748571D02*
X169989523Y-83796190D01*
X170037142Y-83843809D01*
X170084761Y-83939047D01*
X170084761Y-84081904D01*
X170037142Y-84177142D01*
X169989523Y-84224761D01*
X169894285Y-84272380D01*
X169513333Y-84272380D01*
X169513333Y-83272380D01*
X169846666Y-83272380D01*
X169941904Y-83320000D01*
X169989523Y-83367619D01*
X170037142Y-83462857D01*
X170037142Y-83558095D01*
X169989523Y-83653333D01*
X169941904Y-83700952D01*
X169846666Y-83748571D01*
X169513333Y-83748571D01*
X170941904Y-83605714D02*
X170941904Y-84272380D01*
X170513333Y-83605714D02*
X170513333Y-84129523D01*
X170560952Y-84224761D01*
X170656190Y-84272380D01*
X170799047Y-84272380D01*
X170894285Y-84224761D01*
X170941904Y-84177142D01*
X171846666Y-84224761D02*
X171751428Y-84272380D01*
X171560952Y-84272380D01*
X171465714Y-84224761D01*
X171418095Y-84177142D01*
X171370476Y-84081904D01*
X171370476Y-83796190D01*
X171418095Y-83700952D01*
X171465714Y-83653333D01*
X171560952Y-83605714D01*
X171751428Y-83605714D01*
X171846666Y-83653333D01*
X172275238Y-84272380D02*
X172275238Y-83272380D01*
X172370476Y-83891428D02*
X172656190Y-84272380D01*
X172656190Y-83605714D02*
X172275238Y-83986666D01*
X174117142Y-90622380D02*
X174117142Y-89622380D01*
X174593333Y-90622380D02*
X174593333Y-89622380D01*
X175164761Y-90622380D01*
X175164761Y-89622380D01*
X175640952Y-90241428D02*
X176402857Y-90241428D01*
X163480952Y-76922380D02*
X163671428Y-76922380D01*
X163766666Y-76970000D01*
X163861904Y-77065238D01*
X163909523Y-77255714D01*
X163909523Y-77589047D01*
X163861904Y-77779523D01*
X163766666Y-77874761D01*
X163671428Y-77922380D01*
X163480952Y-77922380D01*
X163385714Y-77874761D01*
X163290476Y-77779523D01*
X163242857Y-77589047D01*
X163242857Y-77255714D01*
X163290476Y-77065238D01*
X163385714Y-76970000D01*
X163480952Y-76922380D01*
X164338095Y-76922380D02*
X164338095Y-77731904D01*
X164385714Y-77827142D01*
X164433333Y-77874761D01*
X164528571Y-77922380D01*
X164719047Y-77922380D01*
X164814285Y-77874761D01*
X164861904Y-77827142D01*
X164909523Y-77731904D01*
X164909523Y-76922380D01*
X165242857Y-76922380D02*
X165814285Y-76922380D01*
X165528571Y-77922380D02*
X165528571Y-76922380D01*
X166147619Y-77541428D02*
X166909523Y-77541428D01*
X166528571Y-77922380D02*
X166528571Y-77160476D01*
X174117142Y-77922380D02*
X174117142Y-76922380D01*
X174593333Y-77922380D02*
X174593333Y-76922380D01*
X175164761Y-77922380D01*
X175164761Y-76922380D01*
X175640952Y-77541428D02*
X176402857Y-77541428D01*
X176021904Y-77922380D02*
X176021904Y-77160476D01*
X164242952Y-89622380D02*
X164433428Y-89622380D01*
X164528666Y-89670000D01*
X164623904Y-89765238D01*
X164671523Y-89955714D01*
X164671523Y-90289047D01*
X164623904Y-90479523D01*
X164528666Y-90574761D01*
X164433428Y-90622380D01*
X164242952Y-90622380D01*
X164147714Y-90574761D01*
X164052476Y-90479523D01*
X164004857Y-90289047D01*
X164004857Y-89955714D01*
X164052476Y-89765238D01*
X164147714Y-89670000D01*
X164242952Y-89622380D01*
X165100095Y-89622380D02*
X165100095Y-90431904D01*
X165147714Y-90527142D01*
X165195333Y-90574761D01*
X165290571Y-90622380D01*
X165481047Y-90622380D01*
X165576285Y-90574761D01*
X165623904Y-90527142D01*
X165671523Y-90431904D01*
X165671523Y-89622380D01*
X166004857Y-89622380D02*
X166576285Y-89622380D01*
X166290571Y-90622380D02*
X166290571Y-89622380D01*
X166909619Y-90241428D02*
X167671523Y-90241428D01*
%TO.C,U4*%
X149098095Y-137532380D02*
X149098095Y-138341904D01*
X149145714Y-138437142D01*
X149193333Y-138484761D01*
X149288571Y-138532380D01*
X149479047Y-138532380D01*
X149574285Y-138484761D01*
X149621904Y-138437142D01*
X149669523Y-138341904D01*
X149669523Y-137532380D01*
X150574285Y-137865714D02*
X150574285Y-138532380D01*
X150336190Y-137484761D02*
X150098095Y-138199047D01*
X150717142Y-138199047D01*
X145407619Y-136238571D02*
X145740952Y-136238571D01*
X145883809Y-136762380D02*
X145407619Y-136762380D01*
X145407619Y-135762380D01*
X145883809Y-135762380D01*
X146264761Y-136714761D02*
X146407619Y-136762380D01*
X146645714Y-136762380D01*
X146740952Y-136714761D01*
X146788571Y-136667142D01*
X146836190Y-136571904D01*
X146836190Y-136476666D01*
X146788571Y-136381428D01*
X146740952Y-136333809D01*
X146645714Y-136286190D01*
X146455238Y-136238571D01*
X146360000Y-136190952D01*
X146312380Y-136143333D01*
X146264761Y-136048095D01*
X146264761Y-135952857D01*
X146312380Y-135857619D01*
X146360000Y-135810000D01*
X146455238Y-135762380D01*
X146693333Y-135762380D01*
X146836190Y-135810000D01*
X147264761Y-136762380D02*
X147264761Y-135762380D01*
X147645714Y-135762380D01*
X147740952Y-135810000D01*
X147788571Y-135857619D01*
X147836190Y-135952857D01*
X147836190Y-136095714D01*
X147788571Y-136190952D01*
X147740952Y-136238571D01*
X147645714Y-136286190D01*
X147264761Y-136286190D01*
X148169523Y-135762380D02*
X148788571Y-135762380D01*
X148455238Y-136143333D01*
X148598095Y-136143333D01*
X148693333Y-136190952D01*
X148740952Y-136238571D01*
X148788571Y-136333809D01*
X148788571Y-136571904D01*
X148740952Y-136667142D01*
X148693333Y-136714761D01*
X148598095Y-136762380D01*
X148312380Y-136762380D01*
X148217142Y-136714761D01*
X148169523Y-136667142D01*
X149169523Y-135857619D02*
X149217142Y-135810000D01*
X149312380Y-135762380D01*
X149550476Y-135762380D01*
X149645714Y-135810000D01*
X149693333Y-135857619D01*
X149740952Y-135952857D01*
X149740952Y-136048095D01*
X149693333Y-136190952D01*
X149121904Y-136762380D01*
X149740952Y-136762380D01*
X149931428Y-136857619D02*
X150693333Y-136857619D01*
X150883809Y-136714761D02*
X150979047Y-136762380D01*
X151169523Y-136762380D01*
X151264761Y-136714761D01*
X151312380Y-136619523D01*
X151312380Y-136571904D01*
X151264761Y-136476666D01*
X151169523Y-136429047D01*
X151026666Y-136429047D01*
X150931428Y-136381428D01*
X150883809Y-136286190D01*
X150883809Y-136238571D01*
X150931428Y-136143333D01*
X151026666Y-136095714D01*
X151169523Y-136095714D01*
X151264761Y-136143333D01*
X151883809Y-136762380D02*
X151788571Y-136714761D01*
X151740952Y-136619523D01*
X151740952Y-135762380D01*
X152693333Y-136762380D02*
X152693333Y-136238571D01*
X152645714Y-136143333D01*
X152550476Y-136095714D01*
X152360000Y-136095714D01*
X152264761Y-136143333D01*
X152693333Y-136714761D02*
X152598095Y-136762380D01*
X152360000Y-136762380D01*
X152264761Y-136714761D01*
X152217142Y-136619523D01*
X152217142Y-136524285D01*
X152264761Y-136429047D01*
X152360000Y-136381428D01*
X152598095Y-136381428D01*
X152693333Y-136333809D01*
X153074285Y-136095714D02*
X153312380Y-136762380D01*
X153550476Y-136095714D01*
X154312380Y-136714761D02*
X154217142Y-136762380D01*
X154026666Y-136762380D01*
X153931428Y-136714761D01*
X153883809Y-136619523D01*
X153883809Y-136238571D01*
X153931428Y-136143333D01*
X154026666Y-136095714D01*
X154217142Y-136095714D01*
X154312380Y-136143333D01*
X154360000Y-136238571D01*
X154360000Y-136333809D01*
X153883809Y-136429047D01*
X156360952Y-167218571D02*
X156503809Y-167266190D01*
X156551428Y-167313809D01*
X156599047Y-167409047D01*
X156599047Y-167551904D01*
X156551428Y-167647142D01*
X156503809Y-167694761D01*
X156408571Y-167742380D01*
X156027619Y-167742380D01*
X156027619Y-166742380D01*
X156360952Y-166742380D01*
X156456190Y-166790000D01*
X156503809Y-166837619D01*
X156551428Y-166932857D01*
X156551428Y-167028095D01*
X156503809Y-167123333D01*
X156456190Y-167170952D01*
X156360952Y-167218571D01*
X156027619Y-167218571D01*
X157170476Y-167742380D02*
X157075238Y-167694761D01*
X157027619Y-167647142D01*
X156980000Y-167551904D01*
X156980000Y-167266190D01*
X157027619Y-167170952D01*
X157075238Y-167123333D01*
X157170476Y-167075714D01*
X157313333Y-167075714D01*
X157408571Y-167123333D01*
X157456190Y-167170952D01*
X157503809Y-167266190D01*
X157503809Y-167551904D01*
X157456190Y-167647142D01*
X157408571Y-167694761D01*
X157313333Y-167742380D01*
X157170476Y-167742380D01*
X158075238Y-167742380D02*
X157980000Y-167694761D01*
X157932380Y-167647142D01*
X157884761Y-167551904D01*
X157884761Y-167266190D01*
X157932380Y-167170952D01*
X157980000Y-167123333D01*
X158075238Y-167075714D01*
X158218095Y-167075714D01*
X158313333Y-167123333D01*
X158360952Y-167170952D01*
X158408571Y-167266190D01*
X158408571Y-167551904D01*
X158360952Y-167647142D01*
X158313333Y-167694761D01*
X158218095Y-167742380D01*
X158075238Y-167742380D01*
X158694285Y-167075714D02*
X159075238Y-167075714D01*
X158837142Y-166742380D02*
X158837142Y-167599523D01*
X158884761Y-167694761D01*
X158980000Y-167742380D01*
X159075238Y-167742380D01*
X139978095Y-167218571D02*
X140311428Y-167218571D01*
X140454285Y-167742380D02*
X139978095Y-167742380D01*
X139978095Y-166742380D01*
X140454285Y-166742380D01*
X140882857Y-167075714D02*
X140882857Y-167742380D01*
X140882857Y-167170952D02*
X140930476Y-167123333D01*
X141025714Y-167075714D01*
X141168571Y-167075714D01*
X141263809Y-167123333D01*
X141311428Y-167218571D01*
X141311428Y-167742380D01*
X142216190Y-167742380D02*
X142216190Y-167218571D01*
X142168571Y-167123333D01*
X142073333Y-167075714D01*
X141882857Y-167075714D01*
X141787619Y-167123333D01*
X142216190Y-167694761D02*
X142120952Y-167742380D01*
X141882857Y-167742380D01*
X141787619Y-167694761D01*
X141740000Y-167599523D01*
X141740000Y-167504285D01*
X141787619Y-167409047D01*
X141882857Y-167361428D01*
X142120952Y-167361428D01*
X142216190Y-167313809D01*
X142692380Y-167742380D02*
X142692380Y-166742380D01*
X142692380Y-167123333D02*
X142787619Y-167075714D01*
X142978095Y-167075714D01*
X143073333Y-167123333D01*
X143120952Y-167170952D01*
X143168571Y-167266190D01*
X143168571Y-167551904D01*
X143120952Y-167647142D01*
X143073333Y-167694761D01*
X142978095Y-167742380D01*
X142787619Y-167742380D01*
X142692380Y-167694761D01*
X143740000Y-167742380D02*
X143644761Y-167694761D01*
X143597142Y-167599523D01*
X143597142Y-166742380D01*
X144501904Y-167694761D02*
X144406666Y-167742380D01*
X144216190Y-167742380D01*
X144120952Y-167694761D01*
X144073333Y-167599523D01*
X144073333Y-167218571D01*
X144120952Y-167123333D01*
X144216190Y-167075714D01*
X144406666Y-167075714D01*
X144501904Y-167123333D01*
X144549523Y-167218571D01*
X144549523Y-167313809D01*
X144073333Y-167409047D01*
X148598095Y-170552380D02*
X148598095Y-171361904D01*
X148645714Y-171457142D01*
X148693333Y-171504761D01*
X148788571Y-171552380D01*
X148979047Y-171552380D01*
X149074285Y-171504761D01*
X149121904Y-171457142D01*
X149169523Y-171361904D01*
X149169523Y-170552380D01*
X149598095Y-171504761D02*
X149740952Y-171552380D01*
X149979047Y-171552380D01*
X150074285Y-171504761D01*
X150121904Y-171457142D01*
X150169523Y-171361904D01*
X150169523Y-171266666D01*
X150121904Y-171171428D01*
X150074285Y-171123809D01*
X149979047Y-171076190D01*
X149788571Y-171028571D01*
X149693333Y-170980952D01*
X149645714Y-170933333D01*
X149598095Y-170838095D01*
X149598095Y-170742857D01*
X149645714Y-170647619D01*
X149693333Y-170600000D01*
X149788571Y-170552380D01*
X150026666Y-170552380D01*
X150169523Y-170600000D01*
X150931428Y-171028571D02*
X151074285Y-171076190D01*
X151121904Y-171123809D01*
X151169523Y-171219047D01*
X151169523Y-171361904D01*
X151121904Y-171457142D01*
X151074285Y-171504761D01*
X150979047Y-171552380D01*
X150598095Y-171552380D01*
X150598095Y-170552380D01*
X150931428Y-170552380D01*
X151026666Y-170600000D01*
X151074285Y-170647619D01*
X151121904Y-170742857D01*
X151121904Y-170838095D01*
X151074285Y-170933333D01*
X151026666Y-170980952D01*
X150931428Y-171028571D01*
X150598095Y-171028571D01*
%TO.C,U2*%
X144018095Y-103592380D02*
X144018095Y-104401904D01*
X144065714Y-104497142D01*
X144113333Y-104544761D01*
X144208571Y-104592380D01*
X144399047Y-104592380D01*
X144494285Y-104544761D01*
X144541904Y-104497142D01*
X144589523Y-104401904D01*
X144589523Y-103592380D01*
X145018095Y-103687619D02*
X145065714Y-103640000D01*
X145160952Y-103592380D01*
X145399047Y-103592380D01*
X145494285Y-103640000D01*
X145541904Y-103687619D01*
X145589523Y-103782857D01*
X145589523Y-103878095D01*
X145541904Y-104020952D01*
X144970476Y-104592380D01*
X145589523Y-104592380D01*
X144749047Y-100687142D02*
X144701428Y-100734761D01*
X144558571Y-100782380D01*
X144463333Y-100782380D01*
X144320476Y-100734761D01*
X144225238Y-100639523D01*
X144177619Y-100544285D01*
X144130000Y-100353809D01*
X144130000Y-100210952D01*
X144177619Y-100020476D01*
X144225238Y-99925238D01*
X144320476Y-99830000D01*
X144463333Y-99782380D01*
X144558571Y-99782380D01*
X144701428Y-99830000D01*
X144749047Y-99877619D01*
X145130000Y-100496666D02*
X145606190Y-100496666D01*
X145034761Y-100782380D02*
X145368095Y-99782380D01*
X145701428Y-100782380D01*
X146034761Y-100782380D02*
X146034761Y-99782380D01*
X146606190Y-100782380D01*
X146606190Y-99782380D01*
X146844285Y-100877619D02*
X147606190Y-100877619D01*
X147701428Y-99782380D02*
X148272857Y-99782380D01*
X147987142Y-100782380D02*
X147987142Y-99782380D01*
X148606190Y-100782380D02*
X148606190Y-100115714D01*
X148606190Y-100306190D02*
X148653809Y-100210952D01*
X148701428Y-100163333D01*
X148796666Y-100115714D01*
X148891904Y-100115714D01*
X149653809Y-100782380D02*
X149653809Y-100258571D01*
X149606190Y-100163333D01*
X149510952Y-100115714D01*
X149320476Y-100115714D01*
X149225238Y-100163333D01*
X149653809Y-100734761D02*
X149558571Y-100782380D01*
X149320476Y-100782380D01*
X149225238Y-100734761D01*
X149177619Y-100639523D01*
X149177619Y-100544285D01*
X149225238Y-100449047D01*
X149320476Y-100401428D01*
X149558571Y-100401428D01*
X149653809Y-100353809D01*
X150130000Y-100115714D02*
X150130000Y-100782380D01*
X150130000Y-100210952D02*
X150177619Y-100163333D01*
X150272857Y-100115714D01*
X150415714Y-100115714D01*
X150510952Y-100163333D01*
X150558571Y-100258571D01*
X150558571Y-100782380D01*
X150987142Y-100734761D02*
X151082380Y-100782380D01*
X151272857Y-100782380D01*
X151368095Y-100734761D01*
X151415714Y-100639523D01*
X151415714Y-100591904D01*
X151368095Y-100496666D01*
X151272857Y-100449047D01*
X151130000Y-100449047D01*
X151034761Y-100401428D01*
X150987142Y-100306190D01*
X150987142Y-100258571D01*
X151034761Y-100163333D01*
X151130000Y-100115714D01*
X151272857Y-100115714D01*
X151368095Y-100163333D01*
X152272857Y-100734761D02*
X152177619Y-100782380D01*
X151987142Y-100782380D01*
X151891904Y-100734761D01*
X151844285Y-100687142D01*
X151796666Y-100591904D01*
X151796666Y-100306190D01*
X151844285Y-100210952D01*
X151891904Y-100163333D01*
X151987142Y-100115714D01*
X152177619Y-100115714D01*
X152272857Y-100163333D01*
X153082380Y-100734761D02*
X152987142Y-100782380D01*
X152796666Y-100782380D01*
X152701428Y-100734761D01*
X152653809Y-100639523D01*
X152653809Y-100258571D01*
X152701428Y-100163333D01*
X152796666Y-100115714D01*
X152987142Y-100115714D01*
X153082380Y-100163333D01*
X153130000Y-100258571D01*
X153130000Y-100353809D01*
X152653809Y-100449047D01*
X153558571Y-100782380D02*
X153558571Y-100115714D01*
X153558571Y-99782380D02*
X153510952Y-99830000D01*
X153558571Y-99877619D01*
X153606190Y-99830000D01*
X153558571Y-99782380D01*
X153558571Y-99877619D01*
X153939523Y-100115714D02*
X154177619Y-100782380D01*
X154415714Y-100115714D01*
X155177619Y-100734761D02*
X155082380Y-100782380D01*
X154891904Y-100782380D01*
X154796666Y-100734761D01*
X154749047Y-100639523D01*
X154749047Y-100258571D01*
X154796666Y-100163333D01*
X154891904Y-100115714D01*
X155082380Y-100115714D01*
X155177619Y-100163333D01*
X155225238Y-100258571D01*
X155225238Y-100353809D01*
X154749047Y-100449047D01*
X155653809Y-100782380D02*
X155653809Y-100115714D01*
X155653809Y-100306190D02*
X155701428Y-100210952D01*
X155749047Y-100163333D01*
X155844285Y-100115714D01*
X155939523Y-100115714D01*
X157034761Y-100782380D02*
X157034761Y-99782380D01*
X157034761Y-100163333D02*
X157130000Y-100115714D01*
X157320476Y-100115714D01*
X157415714Y-100163333D01*
X157463333Y-100210952D01*
X157510952Y-100306190D01*
X157510952Y-100591904D01*
X157463333Y-100687142D01*
X157415714Y-100734761D01*
X157320476Y-100782380D01*
X157130000Y-100782380D01*
X157034761Y-100734761D01*
X157939523Y-100782380D02*
X157939523Y-100115714D01*
X157939523Y-100306190D02*
X157987142Y-100210952D01*
X158034761Y-100163333D01*
X158130000Y-100115714D01*
X158225238Y-100115714D01*
X140803333Y-105862380D02*
X140470000Y-105386190D01*
X140231904Y-105862380D02*
X140231904Y-104862380D01*
X140612857Y-104862380D01*
X140708095Y-104910000D01*
X140755714Y-104957619D01*
X140803333Y-105052857D01*
X140803333Y-105195714D01*
X140755714Y-105290952D01*
X140708095Y-105338571D01*
X140612857Y-105386190D01*
X140231904Y-105386190D01*
X141136666Y-104862380D02*
X141803333Y-105862380D01*
X141803333Y-104862380D02*
X141136666Y-105862380D01*
X140208095Y-102370000D02*
X140112857Y-102322380D01*
X139970000Y-102322380D01*
X139827142Y-102370000D01*
X139731904Y-102465238D01*
X139684285Y-102560476D01*
X139636666Y-102750952D01*
X139636666Y-102893809D01*
X139684285Y-103084285D01*
X139731904Y-103179523D01*
X139827142Y-103274761D01*
X139970000Y-103322380D01*
X140065238Y-103322380D01*
X140208095Y-103274761D01*
X140255714Y-103227142D01*
X140255714Y-102893809D01*
X140065238Y-102893809D01*
X140684285Y-103322380D02*
X140684285Y-102322380D01*
X141255714Y-103322380D01*
X141255714Y-102322380D01*
X141731904Y-103322380D02*
X141731904Y-102322380D01*
X141970000Y-102322380D01*
X142112857Y-102370000D01*
X142208095Y-102465238D01*
X142255714Y-102560476D01*
X142303333Y-102750952D01*
X142303333Y-102893809D01*
X142255714Y-103084285D01*
X142208095Y-103179523D01*
X142112857Y-103274761D01*
X141970000Y-103322380D01*
X141731904Y-103322380D01*
X140208095Y-107402380D02*
X140779523Y-107402380D01*
X140493809Y-108402380D02*
X140493809Y-107402380D01*
X141017619Y-107402380D02*
X141684285Y-108402380D01*
X141684285Y-107402380D02*
X141017619Y-108402380D01*
X139493809Y-99782380D02*
X140112857Y-99782380D01*
X139779523Y-100163333D01*
X139922380Y-100163333D01*
X140017619Y-100210952D01*
X140065238Y-100258571D01*
X140112857Y-100353809D01*
X140112857Y-100591904D01*
X140065238Y-100687142D01*
X140017619Y-100734761D01*
X139922380Y-100782380D01*
X139636666Y-100782380D01*
X139541428Y-100734761D01*
X139493809Y-100687142D01*
X140541428Y-100687142D02*
X140589047Y-100734761D01*
X140541428Y-100782380D01*
X140493809Y-100734761D01*
X140541428Y-100687142D01*
X140541428Y-100782380D01*
X140922380Y-99782380D02*
X141541428Y-99782380D01*
X141208095Y-100163333D01*
X141350952Y-100163333D01*
X141446190Y-100210952D01*
X141493809Y-100258571D01*
X141541428Y-100353809D01*
X141541428Y-100591904D01*
X141493809Y-100687142D01*
X141446190Y-100734761D01*
X141350952Y-100782380D01*
X141065238Y-100782380D01*
X140970000Y-100734761D01*
X140922380Y-100687142D01*
X141827142Y-99782380D02*
X142160476Y-100782380D01*
X142493809Y-99782380D01*
X149963333Y-103227142D02*
X149915714Y-103274761D01*
X149772857Y-103322380D01*
X149677619Y-103322380D01*
X149534761Y-103274761D01*
X149439523Y-103179523D01*
X149391904Y-103084285D01*
X149344285Y-102893809D01*
X149344285Y-102750952D01*
X149391904Y-102560476D01*
X149439523Y-102465238D01*
X149534761Y-102370000D01*
X149677619Y-102322380D01*
X149772857Y-102322380D01*
X149915714Y-102370000D01*
X149963333Y-102417619D01*
X150344285Y-103036666D02*
X150820476Y-103036666D01*
X150249047Y-103322380D02*
X150582380Y-102322380D01*
X150915714Y-103322380D01*
X151249047Y-103322380D02*
X151249047Y-102322380D01*
X151820476Y-103322380D01*
X151820476Y-102322380D01*
X152296666Y-103322380D02*
X152296666Y-102322380D01*
X152296666Y-102798571D02*
X152868095Y-102798571D01*
X152868095Y-103322380D02*
X152868095Y-102322380D01*
X150082380Y-105767142D02*
X150034761Y-105814761D01*
X149891904Y-105862380D01*
X149796666Y-105862380D01*
X149653809Y-105814761D01*
X149558571Y-105719523D01*
X149510952Y-105624285D01*
X149463333Y-105433809D01*
X149463333Y-105290952D01*
X149510952Y-105100476D01*
X149558571Y-105005238D01*
X149653809Y-104910000D01*
X149796666Y-104862380D01*
X149891904Y-104862380D01*
X150034761Y-104910000D01*
X150082380Y-104957619D01*
X150463333Y-105576666D02*
X150939523Y-105576666D01*
X150368095Y-105862380D02*
X150701428Y-104862380D01*
X151034761Y-105862380D01*
X151368095Y-105862380D02*
X151368095Y-104862380D01*
X151939523Y-105862380D01*
X151939523Y-104862380D01*
X152891904Y-105862380D02*
X152415714Y-105862380D01*
X152415714Y-104862380D01*
%TO.C,U3*%
X182118095Y-137532380D02*
X182118095Y-138341904D01*
X182165714Y-138437142D01*
X182213333Y-138484761D01*
X182308571Y-138532380D01*
X182499047Y-138532380D01*
X182594285Y-138484761D01*
X182641904Y-138437142D01*
X182689523Y-138341904D01*
X182689523Y-137532380D01*
X183070476Y-137532380D02*
X183689523Y-137532380D01*
X183356190Y-137913333D01*
X183499047Y-137913333D01*
X183594285Y-137960952D01*
X183641904Y-138008571D01*
X183689523Y-138103809D01*
X183689523Y-138341904D01*
X183641904Y-138437142D01*
X183594285Y-138484761D01*
X183499047Y-138532380D01*
X183213333Y-138532380D01*
X183118095Y-138484761D01*
X183070476Y-138437142D01*
X177808571Y-136238571D02*
X178141904Y-136238571D01*
X178284761Y-136762380D02*
X177808571Y-136762380D01*
X177808571Y-135762380D01*
X178284761Y-135762380D01*
X178665714Y-136714761D02*
X178808571Y-136762380D01*
X179046666Y-136762380D01*
X179141904Y-136714761D01*
X179189523Y-136667142D01*
X179237142Y-136571904D01*
X179237142Y-136476666D01*
X179189523Y-136381428D01*
X179141904Y-136333809D01*
X179046666Y-136286190D01*
X178856190Y-136238571D01*
X178760952Y-136190952D01*
X178713333Y-136143333D01*
X178665714Y-136048095D01*
X178665714Y-135952857D01*
X178713333Y-135857619D01*
X178760952Y-135810000D01*
X178856190Y-135762380D01*
X179094285Y-135762380D01*
X179237142Y-135810000D01*
X179665714Y-136762380D02*
X179665714Y-135762380D01*
X180046666Y-135762380D01*
X180141904Y-135810000D01*
X180189523Y-135857619D01*
X180237142Y-135952857D01*
X180237142Y-136095714D01*
X180189523Y-136190952D01*
X180141904Y-136238571D01*
X180046666Y-136286190D01*
X179665714Y-136286190D01*
X180570476Y-135762380D02*
X181189523Y-135762380D01*
X180856190Y-136143333D01*
X180999047Y-136143333D01*
X181094285Y-136190952D01*
X181141904Y-136238571D01*
X181189523Y-136333809D01*
X181189523Y-136571904D01*
X181141904Y-136667142D01*
X181094285Y-136714761D01*
X180999047Y-136762380D01*
X180713333Y-136762380D01*
X180618095Y-136714761D01*
X180570476Y-136667142D01*
X181570476Y-135857619D02*
X181618095Y-135810000D01*
X181713333Y-135762380D01*
X181951428Y-135762380D01*
X182046666Y-135810000D01*
X182094285Y-135857619D01*
X182141904Y-135952857D01*
X182141904Y-136048095D01*
X182094285Y-136190952D01*
X181522857Y-136762380D01*
X182141904Y-136762380D01*
X182332380Y-136857619D02*
X183094285Y-136857619D01*
X183332380Y-136762380D02*
X183332380Y-136095714D01*
X183332380Y-136190952D02*
X183380000Y-136143333D01*
X183475238Y-136095714D01*
X183618095Y-136095714D01*
X183713333Y-136143333D01*
X183760952Y-136238571D01*
X183760952Y-136762380D01*
X183760952Y-136238571D02*
X183808571Y-136143333D01*
X183903809Y-136095714D01*
X184046666Y-136095714D01*
X184141904Y-136143333D01*
X184189523Y-136238571D01*
X184189523Y-136762380D01*
X185094285Y-136762380D02*
X185094285Y-136238571D01*
X185046666Y-136143333D01*
X184951428Y-136095714D01*
X184760952Y-136095714D01*
X184665714Y-136143333D01*
X185094285Y-136714761D02*
X184999047Y-136762380D01*
X184760952Y-136762380D01*
X184665714Y-136714761D01*
X184618095Y-136619523D01*
X184618095Y-136524285D01*
X184665714Y-136429047D01*
X184760952Y-136381428D01*
X184999047Y-136381428D01*
X185094285Y-136333809D01*
X185522857Y-136714761D02*
X185618095Y-136762380D01*
X185808571Y-136762380D01*
X185903809Y-136714761D01*
X185951428Y-136619523D01*
X185951428Y-136571904D01*
X185903809Y-136476666D01*
X185808571Y-136429047D01*
X185665714Y-136429047D01*
X185570476Y-136381428D01*
X185522857Y-136286190D01*
X185522857Y-136238571D01*
X185570476Y-136143333D01*
X185665714Y-136095714D01*
X185808571Y-136095714D01*
X185903809Y-136143333D01*
X186237142Y-136095714D02*
X186618095Y-136095714D01*
X186380000Y-135762380D02*
X186380000Y-136619523D01*
X186427619Y-136714761D01*
X186522857Y-136762380D01*
X186618095Y-136762380D01*
X187332380Y-136714761D02*
X187237142Y-136762380D01*
X187046666Y-136762380D01*
X186951428Y-136714761D01*
X186903809Y-136619523D01*
X186903809Y-136238571D01*
X186951428Y-136143333D01*
X187046666Y-136095714D01*
X187237142Y-136095714D01*
X187332380Y-136143333D01*
X187380000Y-136238571D01*
X187380000Y-136333809D01*
X186903809Y-136429047D01*
X187808571Y-136762380D02*
X187808571Y-136095714D01*
X187808571Y-136286190D02*
X187856190Y-136190952D01*
X187903809Y-136143333D01*
X187999047Y-136095714D01*
X188094285Y-136095714D01*
X172998095Y-167218571D02*
X173331428Y-167218571D01*
X173474285Y-167742380D02*
X172998095Y-167742380D01*
X172998095Y-166742380D01*
X173474285Y-166742380D01*
X173902857Y-167075714D02*
X173902857Y-167742380D01*
X173902857Y-167170952D02*
X173950476Y-167123333D01*
X174045714Y-167075714D01*
X174188571Y-167075714D01*
X174283809Y-167123333D01*
X174331428Y-167218571D01*
X174331428Y-167742380D01*
X175236190Y-167742380D02*
X175236190Y-167218571D01*
X175188571Y-167123333D01*
X175093333Y-167075714D01*
X174902857Y-167075714D01*
X174807619Y-167123333D01*
X175236190Y-167694761D02*
X175140952Y-167742380D01*
X174902857Y-167742380D01*
X174807619Y-167694761D01*
X174760000Y-167599523D01*
X174760000Y-167504285D01*
X174807619Y-167409047D01*
X174902857Y-167361428D01*
X175140952Y-167361428D01*
X175236190Y-167313809D01*
X175712380Y-167742380D02*
X175712380Y-166742380D01*
X175712380Y-167123333D02*
X175807619Y-167075714D01*
X175998095Y-167075714D01*
X176093333Y-167123333D01*
X176140952Y-167170952D01*
X176188571Y-167266190D01*
X176188571Y-167551904D01*
X176140952Y-167647142D01*
X176093333Y-167694761D01*
X175998095Y-167742380D01*
X175807619Y-167742380D01*
X175712380Y-167694761D01*
X176760000Y-167742380D02*
X176664761Y-167694761D01*
X176617142Y-167599523D01*
X176617142Y-166742380D01*
X177521904Y-167694761D02*
X177426666Y-167742380D01*
X177236190Y-167742380D01*
X177140952Y-167694761D01*
X177093333Y-167599523D01*
X177093333Y-167218571D01*
X177140952Y-167123333D01*
X177236190Y-167075714D01*
X177426666Y-167075714D01*
X177521904Y-167123333D01*
X177569523Y-167218571D01*
X177569523Y-167313809D01*
X177093333Y-167409047D01*
X181618095Y-170552380D02*
X181618095Y-171361904D01*
X181665714Y-171457142D01*
X181713333Y-171504761D01*
X181808571Y-171552380D01*
X181999047Y-171552380D01*
X182094285Y-171504761D01*
X182141904Y-171457142D01*
X182189523Y-171361904D01*
X182189523Y-170552380D01*
X182618095Y-171504761D02*
X182760952Y-171552380D01*
X182999047Y-171552380D01*
X183094285Y-171504761D01*
X183141904Y-171457142D01*
X183189523Y-171361904D01*
X183189523Y-171266666D01*
X183141904Y-171171428D01*
X183094285Y-171123809D01*
X182999047Y-171076190D01*
X182808571Y-171028571D01*
X182713333Y-170980952D01*
X182665714Y-170933333D01*
X182618095Y-170838095D01*
X182618095Y-170742857D01*
X182665714Y-170647619D01*
X182713333Y-170600000D01*
X182808571Y-170552380D01*
X183046666Y-170552380D01*
X183189523Y-170600000D01*
X183951428Y-171028571D02*
X184094285Y-171076190D01*
X184141904Y-171123809D01*
X184189523Y-171219047D01*
X184189523Y-171361904D01*
X184141904Y-171457142D01*
X184094285Y-171504761D01*
X183999047Y-171552380D01*
X183618095Y-171552380D01*
X183618095Y-170552380D01*
X183951428Y-170552380D01*
X184046666Y-170600000D01*
X184094285Y-170647619D01*
X184141904Y-170742857D01*
X184141904Y-170838095D01*
X184094285Y-170933333D01*
X184046666Y-170980952D01*
X183951428Y-171028571D01*
X183618095Y-171028571D01*
X189380952Y-167218571D02*
X189523809Y-167266190D01*
X189571428Y-167313809D01*
X189619047Y-167409047D01*
X189619047Y-167551904D01*
X189571428Y-167647142D01*
X189523809Y-167694761D01*
X189428571Y-167742380D01*
X189047619Y-167742380D01*
X189047619Y-166742380D01*
X189380952Y-166742380D01*
X189476190Y-166790000D01*
X189523809Y-166837619D01*
X189571428Y-166932857D01*
X189571428Y-167028095D01*
X189523809Y-167123333D01*
X189476190Y-167170952D01*
X189380952Y-167218571D01*
X189047619Y-167218571D01*
X190190476Y-167742380D02*
X190095238Y-167694761D01*
X190047619Y-167647142D01*
X190000000Y-167551904D01*
X190000000Y-167266190D01*
X190047619Y-167170952D01*
X190095238Y-167123333D01*
X190190476Y-167075714D01*
X190333333Y-167075714D01*
X190428571Y-167123333D01*
X190476190Y-167170952D01*
X190523809Y-167266190D01*
X190523809Y-167551904D01*
X190476190Y-167647142D01*
X190428571Y-167694761D01*
X190333333Y-167742380D01*
X190190476Y-167742380D01*
X191095238Y-167742380D02*
X191000000Y-167694761D01*
X190952380Y-167647142D01*
X190904761Y-167551904D01*
X190904761Y-167266190D01*
X190952380Y-167170952D01*
X191000000Y-167123333D01*
X191095238Y-167075714D01*
X191238095Y-167075714D01*
X191333333Y-167123333D01*
X191380952Y-167170952D01*
X191428571Y-167266190D01*
X191428571Y-167551904D01*
X191380952Y-167647142D01*
X191333333Y-167694761D01*
X191238095Y-167742380D01*
X191095238Y-167742380D01*
X191714285Y-167075714D02*
X192095238Y-167075714D01*
X191857142Y-166742380D02*
X191857142Y-167599523D01*
X191904761Y-167694761D01*
X192000000Y-167742380D01*
X192095238Y-167742380D01*
%TO.C,J3*%
X138096666Y-96982380D02*
X138096666Y-97696666D01*
X138049047Y-97839523D01*
X137953809Y-97934761D01*
X137810952Y-97982380D01*
X137715714Y-97982380D01*
X138477619Y-96982380D02*
X139096666Y-96982380D01*
X138763333Y-97363333D01*
X138906190Y-97363333D01*
X139001428Y-97410952D01*
X139049047Y-97458571D01*
X139096666Y-97553809D01*
X139096666Y-97791904D01*
X139049047Y-97887142D01*
X139001428Y-97934761D01*
X138906190Y-97982380D01*
X138620476Y-97982380D01*
X138525238Y-97934761D01*
X138477619Y-97887142D01*
X132477619Y-62827142D02*
X132430000Y-62874761D01*
X132287142Y-62922380D01*
X132191904Y-62922380D01*
X132049047Y-62874761D01*
X131953809Y-62779523D01*
X131906190Y-62684285D01*
X131858571Y-62493809D01*
X131858571Y-62350952D01*
X131906190Y-62160476D01*
X131953809Y-62065238D01*
X132049047Y-61970000D01*
X132191904Y-61922380D01*
X132287142Y-61922380D01*
X132430000Y-61970000D01*
X132477619Y-62017619D01*
X133049047Y-62922380D02*
X132953809Y-62874761D01*
X132906190Y-62827142D01*
X132858571Y-62731904D01*
X132858571Y-62446190D01*
X132906190Y-62350952D01*
X132953809Y-62303333D01*
X133049047Y-62255714D01*
X133191904Y-62255714D01*
X133287142Y-62303333D01*
X133334761Y-62350952D01*
X133382380Y-62446190D01*
X133382380Y-62731904D01*
X133334761Y-62827142D01*
X133287142Y-62874761D01*
X133191904Y-62922380D01*
X133049047Y-62922380D01*
X133810952Y-62255714D02*
X133810952Y-62922380D01*
X133810952Y-62350952D02*
X133858571Y-62303333D01*
X133953809Y-62255714D01*
X134096666Y-62255714D01*
X134191904Y-62303333D01*
X134239523Y-62398571D01*
X134239523Y-62922380D01*
X134715714Y-62255714D02*
X134715714Y-62922380D01*
X134715714Y-62350952D02*
X134763333Y-62303333D01*
X134858571Y-62255714D01*
X135001428Y-62255714D01*
X135096666Y-62303333D01*
X135144285Y-62398571D01*
X135144285Y-62922380D01*
X135382380Y-63017619D02*
X136144285Y-63017619D01*
X136953809Y-62827142D02*
X136906190Y-62874761D01*
X136763333Y-62922380D01*
X136668095Y-62922380D01*
X136525238Y-62874761D01*
X136430000Y-62779523D01*
X136382380Y-62684285D01*
X136334761Y-62493809D01*
X136334761Y-62350952D01*
X136382380Y-62160476D01*
X136430000Y-62065238D01*
X136525238Y-61970000D01*
X136668095Y-61922380D01*
X136763333Y-61922380D01*
X136906190Y-61970000D01*
X136953809Y-62017619D01*
X137334761Y-62636666D02*
X137810952Y-62636666D01*
X137239523Y-62922380D02*
X137572857Y-61922380D01*
X137906190Y-62922380D01*
X138239523Y-62922380D02*
X138239523Y-61922380D01*
X138810952Y-62922380D01*
X138810952Y-61922380D01*
X139049047Y-63017619D02*
X139810952Y-63017619D01*
X140382380Y-62398571D02*
X140525238Y-62446190D01*
X140572857Y-62493809D01*
X140620476Y-62589047D01*
X140620476Y-62731904D01*
X140572857Y-62827142D01*
X140525238Y-62874761D01*
X140430000Y-62922380D01*
X140049047Y-62922380D01*
X140049047Y-61922380D01*
X140382380Y-61922380D01*
X140477619Y-61970000D01*
X140525238Y-62017619D01*
X140572857Y-62112857D01*
X140572857Y-62208095D01*
X140525238Y-62303333D01*
X140477619Y-62350952D01*
X140382380Y-62398571D01*
X140049047Y-62398571D01*
X141620476Y-62922380D02*
X141287142Y-62446190D01*
X141049047Y-62922380D02*
X141049047Y-61922380D01*
X141430000Y-61922380D01*
X141525238Y-61970000D01*
X141572857Y-62017619D01*
X141620476Y-62112857D01*
X141620476Y-62255714D01*
X141572857Y-62350952D01*
X141525238Y-62398571D01*
X141430000Y-62446190D01*
X141049047Y-62446190D01*
X142049047Y-62922380D02*
X142049047Y-61922380D01*
X142525238Y-62922380D02*
X142525238Y-61922380D01*
X142763333Y-61922380D01*
X142906190Y-61970000D01*
X143001428Y-62065238D01*
X143049047Y-62160476D01*
X143096666Y-62350952D01*
X143096666Y-62493809D01*
X143049047Y-62684285D01*
X143001428Y-62779523D01*
X142906190Y-62874761D01*
X142763333Y-62922380D01*
X142525238Y-62922380D01*
X144049047Y-61970000D02*
X143953809Y-61922380D01*
X143810952Y-61922380D01*
X143668095Y-61970000D01*
X143572857Y-62065238D01*
X143525238Y-62160476D01*
X143477619Y-62350952D01*
X143477619Y-62493809D01*
X143525238Y-62684285D01*
X143572857Y-62779523D01*
X143668095Y-62874761D01*
X143810952Y-62922380D01*
X143906190Y-62922380D01*
X144049047Y-62874761D01*
X144096666Y-62827142D01*
X144096666Y-62493809D01*
X143906190Y-62493809D01*
X144525238Y-62398571D02*
X144858571Y-62398571D01*
X145001428Y-62922380D02*
X144525238Y-62922380D01*
X144525238Y-61922380D01*
X145001428Y-61922380D01*
X145994285Y-71657619D02*
X145803809Y-71657619D01*
X145708571Y-71610000D01*
X145613333Y-71514761D01*
X145565714Y-71324285D01*
X145565714Y-70990952D01*
X145613333Y-70800476D01*
X145708571Y-70705238D01*
X145803809Y-70657619D01*
X145994285Y-70657619D01*
X146089523Y-70705238D01*
X146184761Y-70800476D01*
X146232380Y-70990952D01*
X146232380Y-71324285D01*
X146184761Y-71514761D01*
X146089523Y-71610000D01*
X145994285Y-71657619D01*
X145137142Y-70657619D02*
X145137142Y-71324285D01*
X145137142Y-71133809D02*
X145089523Y-71229047D01*
X145041904Y-71276666D01*
X144946666Y-71324285D01*
X144851428Y-71324285D01*
X144184761Y-71181428D02*
X144041904Y-71133809D01*
X143994285Y-71086190D01*
X143946666Y-70990952D01*
X143946666Y-70848095D01*
X143994285Y-70752857D01*
X144041904Y-70705238D01*
X144137142Y-70657619D01*
X144518095Y-70657619D01*
X144518095Y-71657619D01*
X144184761Y-71657619D01*
X144089523Y-71610000D01*
X144041904Y-71562380D01*
X143994285Y-71467142D01*
X143994285Y-71371904D01*
X144041904Y-71276666D01*
X144089523Y-71229047D01*
X144184761Y-71181428D01*
X144518095Y-71181428D01*
X143518095Y-70657619D02*
X143518095Y-71324285D01*
X143518095Y-71133809D02*
X143470476Y-71229047D01*
X143422857Y-71276666D01*
X143327619Y-71324285D01*
X143232380Y-71324285D01*
X145994285Y-76737619D02*
X145803809Y-76737619D01*
X145708571Y-76690000D01*
X145613333Y-76594761D01*
X145565714Y-76404285D01*
X145565714Y-76070952D01*
X145613333Y-75880476D01*
X145708571Y-75785238D01*
X145803809Y-75737619D01*
X145994285Y-75737619D01*
X146089523Y-75785238D01*
X146184761Y-75880476D01*
X146232380Y-76070952D01*
X146232380Y-76404285D01*
X146184761Y-76594761D01*
X146089523Y-76690000D01*
X145994285Y-76737619D01*
X145137142Y-75737619D02*
X145137142Y-76404285D01*
X145137142Y-76213809D02*
X145089523Y-76309047D01*
X145041904Y-76356666D01*
X144946666Y-76404285D01*
X144851428Y-76404285D01*
X144184761Y-76261428D02*
X144041904Y-76213809D01*
X143994285Y-76166190D01*
X143946666Y-76070952D01*
X143946666Y-75928095D01*
X143994285Y-75832857D01*
X144041904Y-75785238D01*
X144137142Y-75737619D01*
X144518095Y-75737619D01*
X144518095Y-76737619D01*
X144184761Y-76737619D01*
X144089523Y-76690000D01*
X144041904Y-76642380D01*
X143994285Y-76547142D01*
X143994285Y-76451904D01*
X144041904Y-76356666D01*
X144089523Y-76309047D01*
X144184761Y-76261428D01*
X144518095Y-76261428D01*
X143518095Y-75737619D02*
X143518095Y-76404285D01*
X143518095Y-76213809D02*
X143470476Y-76309047D01*
X143422857Y-76356666D01*
X143327619Y-76404285D01*
X143232380Y-76404285D01*
X133246666Y-69117619D02*
X133056190Y-69117619D01*
X132960952Y-69070000D01*
X132865714Y-68974761D01*
X132818095Y-68784285D01*
X132818095Y-68450952D01*
X132865714Y-68260476D01*
X132960952Y-68165238D01*
X133056190Y-68117619D01*
X133246666Y-68117619D01*
X133341904Y-68165238D01*
X133437142Y-68260476D01*
X133484761Y-68450952D01*
X133484761Y-68784285D01*
X133437142Y-68974761D01*
X133341904Y-69070000D01*
X133246666Y-69117619D01*
X132389523Y-68117619D02*
X132389523Y-68784285D01*
X132389523Y-68593809D02*
X132341904Y-68689047D01*
X132294285Y-68736666D01*
X132199047Y-68784285D01*
X132103809Y-68784285D01*
X131437142Y-68641428D02*
X131294285Y-68593809D01*
X131246666Y-68546190D01*
X131199047Y-68450952D01*
X131199047Y-68308095D01*
X131246666Y-68212857D01*
X131294285Y-68165238D01*
X131389523Y-68117619D01*
X131770476Y-68117619D01*
X131770476Y-69117619D01*
X131437142Y-69117619D01*
X131341904Y-69070000D01*
X131294285Y-69022380D01*
X131246666Y-68927142D01*
X131246666Y-68831904D01*
X131294285Y-68736666D01*
X131341904Y-68689047D01*
X131437142Y-68641428D01*
X131770476Y-68641428D01*
X130627619Y-68117619D02*
X130722857Y-68165238D01*
X130770476Y-68260476D01*
X130770476Y-69117619D01*
X133294285Y-71657619D02*
X133103809Y-71657619D01*
X133008571Y-71610000D01*
X132913333Y-71514761D01*
X132865714Y-71324285D01*
X132865714Y-70990952D01*
X132913333Y-70800476D01*
X133008571Y-70705238D01*
X133103809Y-70657619D01*
X133294285Y-70657619D01*
X133389523Y-70705238D01*
X133484761Y-70800476D01*
X133532380Y-70990952D01*
X133532380Y-71324285D01*
X133484761Y-71514761D01*
X133389523Y-71610000D01*
X133294285Y-71657619D01*
X132437142Y-70657619D02*
X132437142Y-71324285D01*
X132437142Y-71133809D02*
X132389523Y-71229047D01*
X132341904Y-71276666D01*
X132246666Y-71324285D01*
X132151428Y-71324285D01*
X131484761Y-71181428D02*
X131341904Y-71133809D01*
X131294285Y-71086190D01*
X131246666Y-70990952D01*
X131246666Y-70848095D01*
X131294285Y-70752857D01*
X131341904Y-70705238D01*
X131437142Y-70657619D01*
X131818095Y-70657619D01*
X131818095Y-71657619D01*
X131484761Y-71657619D01*
X131389523Y-71610000D01*
X131341904Y-71562380D01*
X131294285Y-71467142D01*
X131294285Y-71371904D01*
X131341904Y-71276666D01*
X131389523Y-71229047D01*
X131484761Y-71181428D01*
X131818095Y-71181428D01*
X130818095Y-70657619D02*
X130818095Y-71324285D01*
X130818095Y-71133809D02*
X130770476Y-71229047D01*
X130722857Y-71276666D01*
X130627619Y-71324285D01*
X130532380Y-71324285D01*
X146327619Y-84357619D02*
X145994285Y-83357619D01*
X145660952Y-84357619D01*
X145327619Y-83357619D02*
X145327619Y-84024285D01*
X145327619Y-84357619D02*
X145375238Y-84310000D01*
X145327619Y-84262380D01*
X145280000Y-84310000D01*
X145327619Y-84357619D01*
X145327619Y-84262380D01*
X144946666Y-84357619D02*
X144708571Y-83357619D01*
X144518095Y-84071904D01*
X144327619Y-83357619D01*
X144089523Y-84357619D01*
X143756190Y-83405238D02*
X143660952Y-83357619D01*
X143470476Y-83357619D01*
X143375238Y-83405238D01*
X143327619Y-83500476D01*
X143327619Y-83548095D01*
X143375238Y-83643333D01*
X143470476Y-83690952D01*
X143613333Y-83690952D01*
X143708571Y-83738571D01*
X143756190Y-83833809D01*
X143756190Y-83881428D01*
X143708571Y-83976666D01*
X143613333Y-84024285D01*
X143470476Y-84024285D01*
X143375238Y-83976666D01*
X145589523Y-73245238D02*
X145446666Y-73197619D01*
X145208571Y-73197619D01*
X145113333Y-73245238D01*
X145065714Y-73292857D01*
X145018095Y-73388095D01*
X145018095Y-73483333D01*
X145065714Y-73578571D01*
X145113333Y-73626190D01*
X145208571Y-73673809D01*
X145399047Y-73721428D01*
X145494285Y-73769047D01*
X145541904Y-73816666D01*
X145589523Y-73911904D01*
X145589523Y-74007142D01*
X145541904Y-74102380D01*
X145494285Y-74150000D01*
X145399047Y-74197619D01*
X145160952Y-74197619D01*
X145018095Y-74150000D01*
X144684761Y-73864285D02*
X144494285Y-73197619D01*
X144303809Y-73673809D01*
X144113333Y-73197619D01*
X143922857Y-73864285D01*
X133580000Y-84357619D02*
X133246666Y-83357619D01*
X132913333Y-84357619D01*
X132580000Y-83357619D02*
X132580000Y-84024285D01*
X132580000Y-84357619D02*
X132627619Y-84310000D01*
X132580000Y-84262380D01*
X132532380Y-84310000D01*
X132580000Y-84357619D01*
X132580000Y-84262380D01*
X131580000Y-84310000D02*
X131675238Y-84357619D01*
X131818095Y-84357619D01*
X131960952Y-84310000D01*
X132056190Y-84214761D01*
X132103809Y-84119523D01*
X132151428Y-83929047D01*
X132151428Y-83786190D01*
X132103809Y-83595714D01*
X132056190Y-83500476D01*
X131960952Y-83405238D01*
X131818095Y-83357619D01*
X131722857Y-83357619D01*
X131580000Y-83405238D01*
X131532380Y-83452857D01*
X131532380Y-83786190D01*
X131722857Y-83786190D01*
X130722857Y-83405238D02*
X130818095Y-83357619D01*
X131008571Y-83357619D01*
X131103809Y-83405238D01*
X131151428Y-83500476D01*
X131151428Y-83881428D01*
X131103809Y-83976666D01*
X131008571Y-84024285D01*
X130818095Y-84024285D01*
X130722857Y-83976666D01*
X130675238Y-83881428D01*
X130675238Y-83786190D01*
X131151428Y-83690952D01*
X144970476Y-69070000D02*
X145065714Y-69117619D01*
X145208571Y-69117619D01*
X145351428Y-69070000D01*
X145446666Y-68974761D01*
X145494285Y-68879523D01*
X145541904Y-68689047D01*
X145541904Y-68546190D01*
X145494285Y-68355714D01*
X145446666Y-68260476D01*
X145351428Y-68165238D01*
X145208571Y-68117619D01*
X145113333Y-68117619D01*
X144970476Y-68165238D01*
X144922857Y-68212857D01*
X144922857Y-68546190D01*
X145113333Y-68546190D01*
X144494285Y-68784285D02*
X144494285Y-68117619D01*
X144494285Y-68689047D02*
X144446666Y-68736666D01*
X144351428Y-68784285D01*
X144208571Y-68784285D01*
X144113333Y-68736666D01*
X144065714Y-68641428D01*
X144065714Y-68117619D01*
D12*
%TO.C,J2*%
X158195000Y-95340000D02*
X151695000Y-95340000D01*
X159505000Y-63360000D02*
X159505000Y-96640000D01*
X159505000Y-82050000D02*
X158195000Y-82050000D01*
X160895000Y-91930000D02*
X160895000Y-90930000D01*
X159895000Y-91430000D02*
X160895000Y-91930000D01*
X158195000Y-77950000D02*
X158195000Y-77950000D01*
X151695000Y-64660000D02*
X158195000Y-64660000D01*
X150385000Y-96640000D02*
X150385000Y-63360000D01*
X158195000Y-77950000D02*
X159505000Y-77950000D01*
X160895000Y-90930000D02*
X159895000Y-91430000D01*
X159505000Y-96640000D02*
X150385000Y-96640000D01*
X150385000Y-63360000D02*
X159505000Y-63360000D01*
X151695000Y-95340000D02*
X151695000Y-64660000D01*
X158195000Y-82050000D02*
X158195000Y-95340000D01*
X158195000Y-64660000D02*
X158195000Y-77950000D01*
%TO.C,J4*%
X186630000Y-79170000D02*
X186630000Y-85890000D01*
X184610000Y-86390000D02*
X184610000Y-85390000D01*
X185420000Y-85890000D02*
X185420000Y-86390000D01*
X184610000Y-78670000D02*
X184610000Y-79670000D01*
X187130000Y-78670000D02*
X183110000Y-78670000D01*
X186630000Y-85890000D02*
X185420000Y-85890000D01*
X185310000Y-78370000D02*
X182810000Y-78370000D01*
X184610000Y-85390000D02*
X183110000Y-85390000D01*
X183110000Y-78670000D02*
X183110000Y-86390000D01*
X185420000Y-78670000D02*
X185420000Y-79170000D01*
X182810000Y-78370000D02*
X182810000Y-80870000D01*
X183110000Y-86390000D02*
X187130000Y-86390000D01*
X184610000Y-79670000D02*
X183110000Y-79670000D01*
X185420000Y-79170000D02*
X186630000Y-79170000D01*
X187130000Y-86390000D02*
X187130000Y-78670000D01*
%TO.C,U1*%
X196850000Y-109175000D02*
X196850000Y-99105000D01*
X168910000Y-109130000D02*
X168910000Y-99060000D01*
X169000000Y-99060000D02*
X196850000Y-99060000D01*
X169000000Y-109220000D02*
X196850000Y-109220000D01*
%TO.C,J1*%
X191710000Y-92760000D02*
X191710000Y-67240000D01*
X196910000Y-67240000D02*
X191710000Y-67240000D01*
X196910000Y-91430000D02*
X196910000Y-92760000D01*
X196910000Y-92760000D02*
X195580000Y-92760000D01*
X194310000Y-90160000D02*
X194310000Y-92760000D01*
X196910000Y-90160000D02*
X194310000Y-90160000D01*
X196910000Y-90160000D02*
X196910000Y-67240000D01*
X194310000Y-92760000D02*
X191710000Y-92760000D01*
%TO.C,U5*%
X161380000Y-78020000D02*
X178980000Y-78020000D01*
X161380000Y-89620000D02*
X178980000Y-89620000D01*
D13*
X161380000Y-89620000D02*
X161380000Y-78020000D01*
X178980000Y-89620000D02*
X178980000Y-78020000D01*
D12*
%TO.C,U4*%
X145860000Y-167070000D02*
X145860000Y-173070000D01*
X140970000Y-172370000D02*
X140970000Y-168560000D01*
X142240000Y-127158000D02*
X142240000Y-123602000D01*
X158750000Y-127920000D02*
X140970000Y-127920000D01*
X158750000Y-172370000D02*
X156210000Y-172370000D01*
X158750000Y-122840000D02*
X158750000Y-127920000D01*
X154940000Y-123602000D02*
X154940000Y-127158000D01*
X142360000Y-128570000D02*
X157360000Y-128570000D01*
X143510000Y-172370000D02*
X140970000Y-172370000D01*
X140970000Y-168560000D02*
X143510000Y-168560000D01*
X157360000Y-128570000D02*
X157360000Y-146570000D01*
X157360000Y-146570000D02*
X142360000Y-146570000D01*
X147320000Y-123602000D02*
X149860000Y-123602000D01*
X140970000Y-127920000D02*
X140970000Y-122840000D01*
X143510000Y-168560000D02*
X143510000Y-172370000D01*
X144780000Y-125634000D02*
X147320000Y-125634000D01*
X152400000Y-125634000D02*
X152400000Y-123602000D01*
X142240000Y-123602000D02*
X144780000Y-123602000D01*
X152400000Y-123602000D02*
X157480000Y-123602000D01*
X149860000Y-125634000D02*
X152400000Y-125634000D01*
X156210000Y-168560000D02*
X158750000Y-168560000D01*
X158750000Y-168560000D02*
X158750000Y-172370000D01*
X144780000Y-123602000D02*
X144780000Y-125634000D01*
X147320000Y-125634000D02*
X147320000Y-123602000D01*
X157480000Y-123602000D02*
X157480000Y-127158000D01*
X149860000Y-123602000D02*
X149860000Y-125634000D01*
X145860000Y-167070000D02*
X153860000Y-167070000D01*
X140970000Y-122840000D02*
X158750000Y-122840000D01*
X156210000Y-172370000D02*
X156210000Y-168560000D01*
X137860000Y-121570000D02*
X161860000Y-121570000D01*
X153860000Y-167070000D02*
X153860000Y-173070000D01*
X137860000Y-173070000D02*
X161860000Y-173070000D01*
X142360000Y-146570000D02*
X142360000Y-128570000D01*
X163860000Y-171070000D02*
X163860000Y-123570000D01*
X135860000Y-123570000D02*
X135860000Y-171070000D01*
X163860000Y-123570000D02*
G75*
G03*
X161860000Y-121570000I-1999999J1D01*
G01*
X137860000Y-121570000D02*
G75*
G03*
X135860000Y-123570000I-1J-1999999D01*
G01*
X135860000Y-171070000D02*
G75*
G03*
X137860000Y-173070000I1999999J-1D01*
G01*
X161860000Y-173070000D02*
G75*
G03*
X163860000Y-171070000I1J1999999D01*
G01*
X163060000Y-123570000D02*
G75*
G03*
X163060000Y-123570000I-1500000J0D01*
G01*
D14*
X142540000Y-170465000D02*
G75*
G03*
X142540000Y-170465000I-300000J0D01*
G01*
X157780000Y-170465000D02*
G75*
G03*
X157780000Y-170465000I-300000J0D01*
G01*
D12*
X163060000Y-171070000D02*
G75*
G03*
X163060000Y-171070000I-1500000J0D01*
G01*
X139660000Y-171070000D02*
G75*
G03*
X139660000Y-171070000I-1500000J0D01*
G01*
X139660000Y-123570000D02*
G75*
G03*
X139660000Y-123570000I-1500000J0D01*
G01*
D15*
X145180000Y-144430000D02*
G75*
G03*
X145180000Y-144430000I-400000J0D01*
G01*
D12*
%TO.C,U2*%
X135890000Y-109130000D02*
X135890000Y-99060000D01*
X135980000Y-109220000D02*
X163830000Y-109220000D01*
X135980000Y-99060000D02*
X163830000Y-99060000D01*
X163830000Y-109175000D02*
X163830000Y-99105000D01*
%TO.C,U3*%
X175260000Y-127158000D02*
X175260000Y-123602000D01*
X176530000Y-168560000D02*
X176530000Y-172370000D01*
X187960000Y-123602000D02*
X187960000Y-127158000D01*
X191770000Y-122840000D02*
X191770000Y-127920000D01*
X180340000Y-123602000D02*
X182880000Y-123602000D01*
X170880000Y-173070000D02*
X194880000Y-173070000D01*
X191770000Y-168560000D02*
X191770000Y-172370000D01*
X177800000Y-125634000D02*
X180340000Y-125634000D01*
X191770000Y-127920000D02*
X173990000Y-127920000D01*
X173990000Y-122840000D02*
X191770000Y-122840000D01*
X190500000Y-123602000D02*
X190500000Y-127158000D01*
X178880000Y-167070000D02*
X178880000Y-173070000D01*
X190380000Y-128570000D02*
X190380000Y-146570000D01*
X175380000Y-146570000D02*
X175380000Y-128570000D01*
X177800000Y-123602000D02*
X177800000Y-125634000D01*
X170880000Y-121570000D02*
X194880000Y-121570000D01*
X173990000Y-127920000D02*
X173990000Y-122840000D01*
X196880000Y-171070000D02*
X196880000Y-123570000D01*
X191770000Y-172370000D02*
X189230000Y-172370000D01*
X168880000Y-123570000D02*
X168880000Y-171070000D01*
X189230000Y-168560000D02*
X191770000Y-168560000D01*
X185420000Y-123602000D02*
X190500000Y-123602000D01*
X189230000Y-172370000D02*
X189230000Y-168560000D01*
X185420000Y-125634000D02*
X185420000Y-123602000D01*
X186880000Y-167070000D02*
X186880000Y-173070000D01*
X173990000Y-172370000D02*
X173990000Y-168560000D01*
X176530000Y-172370000D02*
X173990000Y-172370000D01*
X175380000Y-128570000D02*
X190380000Y-128570000D01*
X178880000Y-167070000D02*
X186880000Y-167070000D01*
X173990000Y-168560000D02*
X176530000Y-168560000D01*
X190380000Y-146570000D02*
X175380000Y-146570000D01*
X182880000Y-125634000D02*
X185420000Y-125634000D01*
X175260000Y-123602000D02*
X177800000Y-123602000D01*
X182880000Y-123602000D02*
X182880000Y-125634000D01*
X180340000Y-125634000D02*
X180340000Y-123602000D01*
X168880000Y-171070000D02*
G75*
G03*
X170880000Y-173070000I1999999J-1D01*
G01*
X196880000Y-123570000D02*
G75*
G03*
X194880000Y-121570000I-1999999J1D01*
G01*
X194880000Y-173070000D02*
G75*
G03*
X196880000Y-171070000I1J1999999D01*
G01*
X170880000Y-121570000D02*
G75*
G03*
X168880000Y-123570000I-1J-1999999D01*
G01*
X196080000Y-171070000D02*
G75*
G03*
X196080000Y-171070000I-1500000J0D01*
G01*
D15*
X178200000Y-144430000D02*
G75*
G03*
X178200000Y-144430000I-400000J0D01*
G01*
D14*
X190800000Y-170465000D02*
G75*
G03*
X190800000Y-170465000I-300000J0D01*
G01*
D12*
X172680000Y-123570000D02*
G75*
G03*
X172680000Y-123570000I-1500000J0D01*
G01*
X172680000Y-171070000D02*
G75*
G03*
X172680000Y-171070000I-1500000J0D01*
G01*
X196080000Y-123570000D02*
G75*
G03*
X196080000Y-123570000I-1500000J0D01*
G01*
D14*
X175560000Y-170465000D02*
G75*
G03*
X175560000Y-170465000I-300000J0D01*
G01*
D12*
%TO.C,J3*%
X141680000Y-77950000D02*
X141680000Y-77950000D01*
X142990000Y-63360000D02*
X142990000Y-96640000D01*
X144380000Y-90930000D02*
X143380000Y-91430000D01*
X141680000Y-77950000D02*
X142990000Y-77950000D01*
X135180000Y-95340000D02*
X135180000Y-64660000D01*
X141680000Y-95340000D02*
X135180000Y-95340000D01*
X144380000Y-91930000D02*
X144380000Y-90930000D01*
X142990000Y-82050000D02*
X141680000Y-82050000D01*
X142990000Y-96640000D02*
X133870000Y-96640000D01*
X133870000Y-96640000D02*
X133870000Y-63360000D01*
X141680000Y-64660000D02*
X141680000Y-77950000D01*
X143380000Y-91430000D02*
X144380000Y-91930000D01*
X133870000Y-63360000D02*
X142990000Y-63360000D01*
X141680000Y-82050000D02*
X141680000Y-95340000D01*
X135180000Y-64660000D02*
X141680000Y-64660000D01*
%TD*%
M02*
