M48
; DRILL file {KiCad 6.0.2+dfsg-1} date Sun 09 Oct 2022 18:24:29 CEST
; FORMAT={-:-/ absolute / inch / decimal}
; #@! TF.CreationDate,2022-10-09T18:24:29+02:00
; #@! TF.GenerationSoftware,Kicad,Pcbnew,6.0.2+dfsg-1
; #@! TF.FileFunction,Plated,1,2,PTH
FMAT,2
INCH
; #@! TA.AperFunction,Plated,PTH,ViaDrill
T1C0.0157
; #@! TA.AperFunction,Plated,PTH,ComponentDrill
T2C0.0394
; #@! TA.AperFunction,Plated,PTH,ComponentDrill
T3C0.0400
%
G90
G05
T1
X7.0Y-3.35
T2
X5.4Y-2.6996
X5.4Y-2.7996
X5.4Y-2.8996
X5.4Y-2.9996
X5.4Y-3.0996
X5.4Y-3.1996
X5.4Y-3.2996
X5.4Y-3.3996
X5.4Y-3.4996
X5.4Y-3.5996
X5.5Y-2.6996
X5.5Y-2.7996
X5.5Y-2.8996
X5.5Y-2.9996
X5.5Y-3.0996
X5.5Y-3.1996
X5.5Y-3.2996
X5.5Y-3.3996
X5.5Y-3.4996
X5.5Y-3.5996
X6.0502Y-2.6996
X6.0502Y-2.7996
X6.0502Y-2.8996
X6.0502Y-2.9996
X6.0502Y-3.0996
X6.0502Y-3.1996
X6.0502Y-3.2996
X6.0502Y-3.3996
X6.0502Y-3.4996
X6.0502Y-3.5996
X6.1502Y-2.6996
X6.1502Y-2.7996
X6.1502Y-2.8996
X6.1502Y-2.9996
X6.1502Y-3.0996
X6.1502Y-3.1996
X6.1502Y-3.2996
X6.1502Y-3.3996
X6.1502Y-3.4996
X6.1502Y-3.5996
X7.3Y-3.2
X7.3Y-3.2984
X7.6Y-2.6996
X7.6Y-2.7996
X7.6Y-2.8996
X7.6Y-2.9996
X7.6Y-3.0996
X7.6Y-3.1996
X7.6Y-3.2996
X7.6Y-3.3996
X7.6Y-3.4996
X7.6Y-3.5996
X7.7Y-2.6996
X7.7Y-2.7996
X7.7Y-2.8996
X7.7Y-2.9996
X7.7Y-3.0996
X7.7Y-3.1996
X7.7Y-3.2996
X7.7Y-3.3996
X7.7Y-3.4996
X7.7Y-3.5996
T3
X5.3998Y-4.0488
X5.4Y-3.95
X5.4Y-4.15
X5.4Y-4.25
X5.4Y-5.024
X5.4Y-5.124
X5.4Y-5.224
X5.4Y-5.324
X5.4Y-5.424
X5.4Y-5.524
X5.4Y-5.624
X5.4Y-5.724
X5.4Y-5.824
X5.4Y-5.924
X5.4Y-6.024
X5.4Y-6.124
X5.4Y-6.224
X5.4Y-6.324
X5.4Y-6.424
X6.0614Y-4.05
X6.0614Y-4.15
X6.3929Y-3.111
X6.3929Y-3.489
X6.4Y-5.024
X6.4Y-5.124
X6.4Y-5.224
X6.4Y-5.324
X6.4Y-5.424
X6.4Y-5.524
X6.4Y-5.624
X6.4Y-5.724
X6.4Y-5.824
X6.4Y-5.924
X6.4Y-6.024
X6.4Y-6.124
X6.4Y-6.224
X6.4Y-6.324
X6.4Y-6.424
X6.6998Y-4.0488
X6.7Y-3.95
X6.7Y-4.15
X6.7Y-4.25
X6.7Y-5.024
X6.7Y-5.124
X6.7Y-5.224
X6.7Y-5.324
X6.7Y-5.424
X6.7Y-5.524
X6.7Y-5.624
X6.7Y-5.724
X6.7Y-5.824
X6.7Y-5.924
X6.7Y-6.024
X6.7Y-6.124
X6.7Y-6.224
X6.7Y-6.324
X6.7Y-6.424
X7.0071Y-3.111
X7.0071Y-3.489
X7.3614Y-4.05
X7.3614Y-4.15
X7.7Y-5.024
X7.7Y-5.124
X7.7Y-5.224
X7.7Y-5.324
X7.7Y-5.424
X7.7Y-5.524
X7.7Y-5.624
X7.7Y-5.724
X7.7Y-5.824
X7.7Y-5.924
X7.7Y-6.024
X7.7Y-6.124
X7.7Y-6.224
X7.7Y-6.324
X7.7Y-6.424
T0
M30
