%TF.GenerationSoftware,KiCad,Pcbnew,6.0.2+dfsg-1*%
%TF.CreationDate,2022-10-09T18:24:25+02:00*%
%TF.ProjectId,can_middle,63616e5f-6d69-4646-946c-652e6b696361,rev?*%
%TF.SameCoordinates,Original*%
%TF.FileFunction,Copper,L1,Top*%
%TF.FilePolarity,Positive*%
%FSLAX46Y46*%
G04 Gerber Fmt 4.6, Leading zero omitted, Abs format (unit mm)*
G04 Created by KiCad (PCBNEW 6.0.2+dfsg-1) date 2022-10-09 18:24:25*
%MOMM*%
%LPD*%
G01*
G04 APERTURE LIST*
G04 Aperture macros list*
%AMRoundRect*
0 Rectangle with rounded corners*
0 $1 Rounding radius*
0 $2 $3 $4 $5 $6 $7 $8 $9 X,Y pos of 4 corners*
0 Add a 4 corners polygon primitive as box body*
4,1,4,$2,$3,$4,$5,$6,$7,$8,$9,$2,$3,0*
0 Add four circle primitives for the rounded corners*
1,1,$1+$1,$2,$3*
1,1,$1+$1,$4,$5*
1,1,$1+$1,$6,$7*
1,1,$1+$1,$8,$9*
0 Add four rect primitives between the rounded corners*
20,1,$1+$1,$2,$3,$4,$5,0*
20,1,$1+$1,$4,$5,$6,$7,0*
20,1,$1+$1,$6,$7,$8,$9,0*
20,1,$1+$1,$8,$9,$2,$3,0*%
G04 Aperture macros list end*
%TA.AperFunction,ComponentPad*%
%ADD10RoundRect,0.250000X0.600000X0.600000X-0.600000X0.600000X-0.600000X-0.600000X0.600000X-0.600000X0*%
%TD*%
%TA.AperFunction,ComponentPad*%
%ADD11C,1.700000*%
%TD*%
%TA.AperFunction,ComponentPad*%
%ADD12RoundRect,0.250000X-0.750000X0.600000X-0.750000X-0.600000X0.750000X-0.600000X0.750000X0.600000X0*%
%TD*%
%TA.AperFunction,ComponentPad*%
%ADD13O,2.000000X1.700000*%
%TD*%
%TA.AperFunction,ComponentPad*%
%ADD14C,1.524000*%
%TD*%
%TA.AperFunction,ComponentPad*%
%ADD15R,1.700000X1.700000*%
%TD*%
%TA.AperFunction,ComponentPad*%
%ADD16O,1.700000X1.700000*%
%TD*%
%TA.AperFunction,ComponentPad*%
%ADD17R,1.524000X1.524000*%
%TD*%
%TA.AperFunction,ViaPad*%
%ADD18C,0.800000*%
%TD*%
%TA.AperFunction,Conductor*%
%ADD19C,0.250000*%
%TD*%
G04 APERTURE END LIST*
D10*
%TO.P,J2,1,Pin_1*%
%TO.N,unconnected-(J2-Pad1)*%
X156215000Y-91430000D03*
D11*
%TO.P,J2,2,Pin_2*%
%TO.N,unconnected-(J2-Pad2)*%
X153675000Y-91430000D03*
%TO.P,J2,3,Pin_3*%
%TO.N,unconnected-(J2-Pad3)*%
X156215000Y-88890000D03*
%TO.P,J2,4,Pin_4*%
%TO.N,unconnected-(J2-Pad4)*%
X153675000Y-88890000D03*
%TO.P,J2,5,Pin_5*%
%TO.N,unconnected-(J2-Pad5)*%
X156215000Y-86350000D03*
%TO.P,J2,6,Pin_6*%
%TO.N,unconnected-(J2-Pad6)*%
X153675000Y-86350000D03*
%TO.P,J2,7,Pin_7*%
%TO.N,/a7*%
X156215000Y-83810000D03*
%TO.P,J2,8,Pin_8*%
%TO.N,/a17*%
X153675000Y-83810000D03*
%TO.P,J2,9,Pin_9*%
%TO.N,unconnected-(J2-Pad9)*%
X156215000Y-81270000D03*
%TO.P,J2,10,Pin_10*%
%TO.N,unconnected-(J2-Pad10)*%
X153675000Y-81270000D03*
%TO.P,J2,11,Pin_11*%
%TO.N,unconnected-(J2-Pad11)*%
X156215000Y-78730000D03*
%TO.P,J2,12,Pin_12*%
%TO.N,unconnected-(J2-Pad12)*%
X153675000Y-78730000D03*
%TO.P,J2,13,Pin_13*%
%TO.N,/a4*%
X156215000Y-76190000D03*
%TO.P,J2,14,Pin_14*%
%TO.N,unconnected-(J2-Pad14)*%
X153675000Y-76190000D03*
%TO.P,J2,15,Pin_15*%
%TO.N,/a3*%
X156215000Y-73650000D03*
%TO.P,J2,16,Pin_16*%
%TO.N,unconnected-(J2-Pad16)*%
X153675000Y-73650000D03*
%TO.P,J2,17,Pin_17*%
%TO.N,/a2*%
X156215000Y-71110000D03*
%TO.P,J2,18,Pin_18*%
%TO.N,/a12_EXT_CANL*%
X153675000Y-71110000D03*
%TO.P,J2,19,Pin_19*%
%TO.N,/a1*%
X156215000Y-68570000D03*
%TO.P,J2,20,Pin_20*%
%TO.N,/a11_EXT_CANH*%
X153675000Y-68570000D03*
%TD*%
D12*
%TO.P,J4,1,Pin_1*%
%TO.N,+12V*%
X185420000Y-81280000D03*
D13*
%TO.P,J4,2,Pin_2*%
%TO.N,GND*%
X185420000Y-83780000D03*
%TD*%
D14*
%TO.P,U1,1,TX*%
%TO.N,/MASTER_CAN_RX*%
X170180000Y-107950000D03*
%TO.P,U1,2,RX*%
%TO.N,/MASTER_CAN_TX*%
X170180000Y-105410000D03*
%TO.P,U1,3,GND*%
%TO.N,GND*%
X170173772Y-102840265D03*
%TO.P,U1,4,3.3V*%
%TO.N,+3.3V*%
X170180000Y-100330000D03*
%TO.P,U1,5,CANL*%
%TO.N,/a12_EXT_CANL*%
X186980000Y-105410000D03*
%TO.P,U1,6,CANH*%
%TO.N,/a11_EXT_CANH*%
X186980000Y-102870000D03*
%TD*%
D15*
%TO.P,J1,1,Pin_1*%
%TO.N,unconnected-(J1-Pad1)*%
X195580000Y-91430000D03*
D16*
%TO.P,J1,2,Pin_2*%
%TO.N,unconnected-(J1-Pad2)*%
X193040000Y-91430000D03*
%TO.P,J1,3,Pin_3*%
%TO.N,unconnected-(J1-Pad3)*%
X195580000Y-88890000D03*
%TO.P,J1,4,Pin_4*%
%TO.N,unconnected-(J1-Pad4)*%
X193040000Y-88890000D03*
%TO.P,J1,5,Pin_5*%
%TO.N,unconnected-(J1-Pad5)*%
X195580000Y-86350000D03*
%TO.P,J1,6,Pin_6*%
%TO.N,unconnected-(J1-Pad6)*%
X193040000Y-86350000D03*
%TO.P,J1,7,Pin_7*%
%TO.N,/a7*%
X195580000Y-83810000D03*
%TO.P,J1,8,Pin_8*%
%TO.N,/a17*%
X193040000Y-83810000D03*
%TO.P,J1,9,Pin_9*%
%TO.N,unconnected-(J1-Pad9)*%
X195580000Y-81270000D03*
%TO.P,J1,10,Pin_10*%
%TO.N,unconnected-(J1-Pad10)*%
X193040000Y-81270000D03*
%TO.P,J1,11,Pin_11*%
%TO.N,unconnected-(J1-Pad11)*%
X195580000Y-78730000D03*
%TO.P,J1,12,Pin_12*%
%TO.N,unconnected-(J1-Pad12)*%
X193040000Y-78730000D03*
%TO.P,J1,13,Pin_13*%
%TO.N,/a4*%
X195580000Y-76190000D03*
%TO.P,J1,14,Pin_14*%
%TO.N,unconnected-(J1-Pad14)*%
X193040000Y-76190000D03*
%TO.P,J1,15,Pin_15*%
%TO.N,/a3*%
X195580000Y-73650000D03*
%TO.P,J1,16,Pin_16*%
%TO.N,unconnected-(J1-Pad16)*%
X193040000Y-73650000D03*
%TO.P,J1,17,Pin_17*%
%TO.N,/a2*%
X195580000Y-71110000D03*
%TO.P,J1,18,Pin_18*%
%TO.N,/a12_EXT_CANL*%
X193040000Y-71110000D03*
%TO.P,J1,19,Pin_19*%
%TO.N,/a1*%
X195580000Y-68570000D03*
%TO.P,J1,20,Pin_20*%
%TO.N,/a11_EXT_CANH*%
X193040000Y-68570000D03*
%TD*%
D14*
%TO.P,U5,4,OUT+*%
%TO.N,+3.3V*%
X162380000Y-79020000D03*
%TO.P,U5,3,IN+*%
%TO.N,+12V*%
X177980000Y-79020000D03*
%TO.P,U5,2,IN-*%
%TO.N,GND*%
X177980000Y-88620000D03*
%TO.P,U5,1,OUT-*%
X162380000Y-88620000D03*
%TD*%
D17*
%TO.P,U4,1,EN*%
%TO.N,unconnected-(U4-Pad1)*%
X137160000Y-127610000D03*
D14*
%TO.P,U4,2,SENSOR_VP*%
%TO.N,unconnected-(U4-Pad2)*%
X137160000Y-130150000D03*
%TO.P,U4,3,SENSOR_VN*%
%TO.N,unconnected-(U4-Pad3)*%
X137160000Y-132690000D03*
%TO.P,U4,4,IO34*%
%TO.N,unconnected-(U4-Pad4)*%
X137160000Y-135230000D03*
%TO.P,U4,5,IO35*%
%TO.N,unconnected-(U4-Pad5)*%
X137160000Y-137770000D03*
%TO.P,U4,6,IO32*%
%TO.N,unconnected-(U4-Pad6)*%
X137160000Y-140310000D03*
%TO.P,U4,7,IO33*%
%TO.N,unconnected-(U4-Pad7)*%
X137160000Y-142850000D03*
%TO.P,U4,8,IO25*%
%TO.N,/SLAVE_CAN_RX*%
X137160000Y-145390000D03*
%TO.P,U4,9,IO26*%
%TO.N,/SLAVE_CAN_TX*%
X137160000Y-147930000D03*
%TO.P,U4,10,IO27*%
%TO.N,unconnected-(U4-Pad10)*%
X137160000Y-150470000D03*
%TO.P,U4,11,IO14*%
%TO.N,unconnected-(U4-Pad11)*%
X137160000Y-153010000D03*
%TO.P,U4,12,IO12*%
%TO.N,unconnected-(U4-Pad12)*%
X137160000Y-155550000D03*
%TO.P,U4,13,IO13*%
%TO.N,unconnected-(U4-Pad13)*%
X137160000Y-158090000D03*
%TO.P,U4,14,GND*%
%TO.N,GND*%
X137160000Y-160630000D03*
%TO.P,U4,15,VIN*%
%TO.N,unconnected-(U4-Pad15)*%
X137160000Y-163170000D03*
%TO.P,U4,16,3V3*%
%TO.N,+3.3V*%
X162560000Y-163170000D03*
%TO.P,U4,17,GND*%
%TO.N,GND*%
X162560000Y-160630000D03*
%TO.P,U4,18,IO15*%
%TO.N,unconnected-(U4-Pad18)*%
X162560000Y-158090000D03*
%TO.P,U4,19,IO2*%
%TO.N,unconnected-(U4-Pad19)*%
X162560000Y-155550000D03*
%TO.P,U4,20,IO4*%
%TO.N,unconnected-(U4-Pad20)*%
X162560000Y-153010000D03*
%TO.P,U4,21,RX2/IO16*%
%TO.N,/MASTER-TX*%
X162560000Y-150470000D03*
%TO.P,U4,22,TX2/IO17*%
%TO.N,/MASTER-RX*%
X162560000Y-147930000D03*
%TO.P,U4,23,IO5*%
%TO.N,unconnected-(U4-Pad23)*%
X162560000Y-145390000D03*
%TO.P,U4,24,IO18*%
%TO.N,unconnected-(U4-Pad24)*%
X162560000Y-142850000D03*
%TO.P,U4,25,IO19*%
%TO.N,unconnected-(U4-Pad25)*%
X162560000Y-140310000D03*
%TO.P,U4,26,IO21*%
%TO.N,unconnected-(U4-Pad26)*%
X162560000Y-137770000D03*
%TO.P,U4,27,RXD0/IO3*%
%TO.N,unconnected-(U4-Pad27)*%
X162560000Y-135230000D03*
%TO.P,U4,28,TXD0/IO1*%
%TO.N,unconnected-(U4-Pad28)*%
X162560000Y-132690000D03*
%TO.P,U4,29,IO22*%
%TO.N,unconnected-(U4-Pad29)*%
X162560000Y-130150000D03*
%TO.P,U4,30,IO23*%
%TO.N,unconnected-(U4-Pad30)*%
X162560000Y-127610000D03*
%TD*%
%TO.P,U2,1,TX*%
%TO.N,/SLAVE_CAN_RX*%
X137160000Y-107950000D03*
%TO.P,U2,2,RX*%
%TO.N,/SLAVE_CAN_TX*%
X137160000Y-105410000D03*
%TO.P,U2,3,GND*%
%TO.N,GND*%
X137153772Y-102840265D03*
%TO.P,U2,4,3.3V*%
%TO.N,+3.3V*%
X137160000Y-100330000D03*
%TO.P,U2,5,CANL*%
%TO.N,/b12_EXT_CANL*%
X153960000Y-105410000D03*
%TO.P,U2,6,CANH*%
%TO.N,/b11_EXT_CANH*%
X153960000Y-102870000D03*
%TD*%
D17*
%TO.P,U3,1,EN*%
%TO.N,unconnected-(U3-Pad1)*%
X170180000Y-127610000D03*
D14*
%TO.P,U3,2,SENSOR_VP*%
%TO.N,unconnected-(U3-Pad2)*%
X170180000Y-130150000D03*
%TO.P,U3,3,SENSOR_VN*%
%TO.N,unconnected-(U3-Pad3)*%
X170180000Y-132690000D03*
%TO.P,U3,4,IO34*%
%TO.N,unconnected-(U3-Pad4)*%
X170180000Y-135230000D03*
%TO.P,U3,5,IO35*%
%TO.N,unconnected-(U3-Pad5)*%
X170180000Y-137770000D03*
%TO.P,U3,6,IO32*%
%TO.N,unconnected-(U3-Pad6)*%
X170180000Y-140310000D03*
%TO.P,U3,7,IO33*%
%TO.N,unconnected-(U3-Pad7)*%
X170180000Y-142850000D03*
%TO.P,U3,8,IO25*%
%TO.N,/MASTER_CAN_RX*%
X170180000Y-145390000D03*
%TO.P,U3,9,IO26*%
%TO.N,/MASTER_CAN_TX*%
X170180000Y-147930000D03*
%TO.P,U3,10,IO27*%
%TO.N,unconnected-(U3-Pad10)*%
X170180000Y-150470000D03*
%TO.P,U3,11,IO14*%
%TO.N,unconnected-(U3-Pad11)*%
X170180000Y-153010000D03*
%TO.P,U3,12,IO12*%
%TO.N,unconnected-(U3-Pad12)*%
X170180000Y-155550000D03*
%TO.P,U3,13,IO13*%
%TO.N,unconnected-(U3-Pad13)*%
X170180000Y-158090000D03*
%TO.P,U3,14,GND*%
%TO.N,GND*%
X170180000Y-160630000D03*
%TO.P,U3,15,VIN*%
%TO.N,unconnected-(U3-Pad15)*%
X170180000Y-163170000D03*
%TO.P,U3,16,3V3*%
%TO.N,+3.3V*%
X195580000Y-163170000D03*
%TO.P,U3,17,GND*%
%TO.N,GND*%
X195580000Y-160630000D03*
%TO.P,U3,18,IO15*%
%TO.N,unconnected-(U3-Pad18)*%
X195580000Y-158090000D03*
%TO.P,U3,19,IO2*%
%TO.N,unconnected-(U3-Pad19)*%
X195580000Y-155550000D03*
%TO.P,U3,20,IO4*%
%TO.N,unconnected-(U3-Pad20)*%
X195580000Y-153010000D03*
%TO.P,U3,21,RX2/IO16*%
%TO.N,/MASTER-RX*%
X195580000Y-150470000D03*
%TO.P,U3,22,TX2/IO17*%
%TO.N,/MASTER-TX*%
X195580000Y-147930000D03*
%TO.P,U3,23,IO5*%
%TO.N,unconnected-(U3-Pad23)*%
X195580000Y-145390000D03*
%TO.P,U3,24,IO18*%
%TO.N,unconnected-(U3-Pad24)*%
X195580000Y-142850000D03*
%TO.P,U3,25,IO19*%
%TO.N,unconnected-(U3-Pad25)*%
X195580000Y-140310000D03*
%TO.P,U3,26,IO21*%
%TO.N,unconnected-(U3-Pad26)*%
X195580000Y-137770000D03*
%TO.P,U3,27,RXD0/IO3*%
%TO.N,unconnected-(U3-Pad27)*%
X195580000Y-135230000D03*
%TO.P,U3,28,TXD0/IO1*%
%TO.N,unconnected-(U3-Pad28)*%
X195580000Y-132690000D03*
%TO.P,U3,29,IO22*%
%TO.N,unconnected-(U3-Pad29)*%
X195580000Y-130150000D03*
%TO.P,U3,30,IO23*%
%TO.N,unconnected-(U3-Pad30)*%
X195580000Y-127610000D03*
%TD*%
D10*
%TO.P,J3,1,Pin_1*%
%TO.N,unconnected-(J3-Pad1)*%
X139700000Y-91430000D03*
D11*
%TO.P,J3,2,Pin_2*%
%TO.N,unconnected-(J3-Pad2)*%
X137160000Y-91430000D03*
%TO.P,J3,3,Pin_3*%
%TO.N,unconnected-(J3-Pad3)*%
X139700000Y-88890000D03*
%TO.P,J3,4,Pin_4*%
%TO.N,unconnected-(J3-Pad4)*%
X137160000Y-88890000D03*
%TO.P,J3,5,Pin_5*%
%TO.N,unconnected-(J3-Pad5)*%
X139700000Y-86350000D03*
%TO.P,J3,6,Pin_6*%
%TO.N,unconnected-(J3-Pad6)*%
X137160000Y-86350000D03*
%TO.P,J3,7,Pin_7*%
%TO.N,/a7*%
X139700000Y-83810000D03*
%TO.P,J3,8,Pin_8*%
%TO.N,/a17*%
X137160000Y-83810000D03*
%TO.P,J3,9,Pin_9*%
%TO.N,unconnected-(J3-Pad9)*%
X139700000Y-81270000D03*
%TO.P,J3,10,Pin_10*%
%TO.N,unconnected-(J3-Pad10)*%
X137160000Y-81270000D03*
%TO.P,J3,11,Pin_11*%
%TO.N,unconnected-(J3-Pad11)*%
X139700000Y-78730000D03*
%TO.P,J3,12,Pin_12*%
%TO.N,unconnected-(J3-Pad12)*%
X137160000Y-78730000D03*
%TO.P,J3,13,Pin_13*%
%TO.N,/a4*%
X139700000Y-76190000D03*
%TO.P,J3,14,Pin_14*%
%TO.N,unconnected-(J3-Pad14)*%
X137160000Y-76190000D03*
%TO.P,J3,15,Pin_15*%
%TO.N,/a3*%
X139700000Y-73650000D03*
%TO.P,J3,16,Pin_16*%
%TO.N,unconnected-(J3-Pad16)*%
X137160000Y-73650000D03*
%TO.P,J3,17,Pin_17*%
%TO.N,/a2*%
X139700000Y-71110000D03*
%TO.P,J3,18,Pin_18*%
%TO.N,/b12_EXT_CANL*%
X137160000Y-71110000D03*
%TO.P,J3,19,Pin_19*%
%TO.N,/a1*%
X139700000Y-68570000D03*
%TO.P,J3,20,Pin_20*%
%TO.N,/b11_EXT_CANH*%
X137160000Y-68570000D03*
%TD*%
D18*
%TO.N,/a17*%
X177800000Y-85090000D03*
%TD*%
D19*
%TO.N,/MASTER-TX*%
X195580000Y-147930000D02*
X194126511Y-149383489D01*
X163646511Y-149383489D02*
X162560000Y-150470000D01*
X194126511Y-149383489D02*
X163646511Y-149383489D01*
%TO.N,/a1*%
X139700000Y-68570000D02*
X140874511Y-69744511D01*
X140874511Y-69744511D02*
X155040489Y-69744511D01*
X156215000Y-68570000D02*
X157389511Y-69744511D01*
X157389511Y-69744511D02*
X194405489Y-69744511D01*
X194405489Y-69744511D02*
X195580000Y-68570000D01*
X155040489Y-69744511D02*
X156215000Y-68570000D01*
%TO.N,/a2*%
X140874511Y-72284511D02*
X155040489Y-72284511D01*
X194405489Y-72284511D02*
X195580000Y-71110000D01*
X155040489Y-72284511D02*
X156215000Y-71110000D01*
X157389511Y-72284511D02*
X194405489Y-72284511D01*
X139700000Y-71110000D02*
X140874511Y-72284511D01*
X156215000Y-71110000D02*
X157389511Y-72284511D01*
%TO.N,/a3*%
X140874511Y-74824511D02*
X155040489Y-74824511D01*
X194405489Y-74824511D02*
X195580000Y-73650000D01*
X156215000Y-73650000D02*
X157389511Y-74824511D01*
X155040489Y-74824511D02*
X156215000Y-73650000D01*
X157389511Y-74824511D02*
X194405489Y-74824511D01*
X139700000Y-73650000D02*
X140874511Y-74824511D01*
%TO.N,/a4*%
X157389511Y-77364511D02*
X194405489Y-77364511D01*
X139700000Y-76190000D02*
X140874511Y-77364511D01*
X140874511Y-77364511D02*
X155040489Y-77364511D01*
X194405489Y-77364511D02*
X195580000Y-76190000D01*
X156215000Y-76190000D02*
X157389511Y-77364511D01*
X155040489Y-77364511D02*
X156215000Y-76190000D01*
%TO.N,/a7*%
X140874511Y-82635489D02*
X155040489Y-82635489D01*
X155040489Y-82635489D02*
X156215000Y-83810000D01*
X139700000Y-83810000D02*
X140874511Y-82635489D01*
X156215000Y-83810000D02*
X157419520Y-82605480D01*
X194375480Y-82605480D02*
X195580000Y-83810000D01*
X157419520Y-82605480D02*
X194375480Y-82605480D01*
%TO.N,/a17*%
X154955000Y-85090000D02*
X153675000Y-83810000D01*
X152500489Y-84984511D02*
X153675000Y-83810000D01*
X137160000Y-83810000D02*
X138334511Y-84984511D01*
X177800000Y-85090000D02*
X154955000Y-85090000D01*
X138334511Y-84984511D02*
X152500489Y-84984511D01*
%TO.N,/MASTER_CAN_RX*%
X171266511Y-109036511D02*
X171266511Y-144303489D01*
X170180000Y-107950000D02*
X171266511Y-109036511D01*
X171266511Y-144303489D02*
X170180000Y-145390000D01*
%TO.N,/MASTER_CAN_TX*%
X170180000Y-105410000D02*
X169093489Y-106496511D01*
X169093489Y-146843489D02*
X170180000Y-147930000D01*
X169093489Y-106496511D02*
X169093489Y-146843489D01*
%TO.N,/SLAVE_CAN_RX*%
X137160000Y-107950000D02*
X138246511Y-109036511D01*
X138246511Y-109036511D02*
X138246511Y-144303489D01*
X138246511Y-144303489D02*
X137160000Y-145390000D01*
%TO.N,/SLAVE_CAN_TX*%
X136073489Y-106496511D02*
X136073489Y-146843489D01*
X136073489Y-146843489D02*
X137160000Y-147930000D01*
X137160000Y-105410000D02*
X136073489Y-106496511D01*
%TO.N,/a11_EXT_CANH*%
X194214511Y-67395489D02*
X196066499Y-67395489D01*
X196754511Y-93095489D02*
X186980000Y-102870000D01*
X196066499Y-67395489D02*
X196754511Y-68083501D01*
X193040000Y-68570000D02*
X194214511Y-67395489D01*
X196754511Y-68083501D02*
X196754511Y-93095489D01*
%TO.N,/b12_EXT_CANL*%
X135985489Y-72284511D02*
X135985489Y-92805489D01*
X137160000Y-71110000D02*
X135985489Y-72284511D01*
X148590000Y-105410000D02*
X153960000Y-105410000D01*
X135985489Y-92805489D02*
X148590000Y-105410000D01*
%TD*%
%TA.AperFunction,Conductor*%
%TO.N,GND*%
G36*
X200602121Y-63520002D02*
G01*
X200648614Y-63573658D01*
X200660000Y-63626000D01*
X200660000Y-175134000D01*
X200639998Y-175202121D01*
X200586342Y-175248614D01*
X200534000Y-175260000D01*
X132206000Y-175260000D01*
X132137879Y-175239998D01*
X132091386Y-175186342D01*
X132080000Y-175134000D01*
X132080000Y-163170000D01*
X135884647Y-163170000D01*
X135904022Y-163391463D01*
X135961560Y-163606196D01*
X135963882Y-163611177D01*
X135963883Y-163611178D01*
X136053186Y-163802689D01*
X136053189Y-163802694D01*
X136055512Y-163807676D01*
X136183023Y-163989781D01*
X136340219Y-164146977D01*
X136344727Y-164150134D01*
X136344730Y-164150136D01*
X136420495Y-164203187D01*
X136522323Y-164274488D01*
X136527305Y-164276811D01*
X136527310Y-164276814D01*
X136718822Y-164366117D01*
X136723804Y-164368440D01*
X136729112Y-164369862D01*
X136729114Y-164369863D01*
X136794949Y-164387503D01*
X136938537Y-164425978D01*
X137160000Y-164445353D01*
X137381463Y-164425978D01*
X137525051Y-164387503D01*
X137590886Y-164369863D01*
X137590888Y-164369862D01*
X137596196Y-164368440D01*
X137601178Y-164366117D01*
X137792690Y-164276814D01*
X137792695Y-164276811D01*
X137797677Y-164274488D01*
X137899505Y-164203187D01*
X137975270Y-164150136D01*
X137975273Y-164150134D01*
X137979781Y-164146977D01*
X138136977Y-163989781D01*
X138264488Y-163807676D01*
X138266811Y-163802694D01*
X138266814Y-163802689D01*
X138356117Y-163611178D01*
X138356118Y-163611177D01*
X138358440Y-163606196D01*
X138415978Y-163391463D01*
X138435353Y-163170000D01*
X161284647Y-163170000D01*
X161304022Y-163391463D01*
X161361560Y-163606196D01*
X161363882Y-163611177D01*
X161363883Y-163611178D01*
X161453186Y-163802689D01*
X161453189Y-163802694D01*
X161455512Y-163807676D01*
X161583023Y-163989781D01*
X161740219Y-164146977D01*
X161744727Y-164150134D01*
X161744730Y-164150136D01*
X161820495Y-164203187D01*
X161922323Y-164274488D01*
X161927305Y-164276811D01*
X161927310Y-164276814D01*
X162118822Y-164366117D01*
X162123804Y-164368440D01*
X162129112Y-164369862D01*
X162129114Y-164369863D01*
X162194949Y-164387503D01*
X162338537Y-164425978D01*
X162560000Y-164445353D01*
X162781463Y-164425978D01*
X162925051Y-164387503D01*
X162990886Y-164369863D01*
X162990888Y-164369862D01*
X162996196Y-164368440D01*
X163001178Y-164366117D01*
X163192690Y-164276814D01*
X163192695Y-164276811D01*
X163197677Y-164274488D01*
X163299505Y-164203187D01*
X163375270Y-164150136D01*
X163375273Y-164150134D01*
X163379781Y-164146977D01*
X163536977Y-163989781D01*
X163664488Y-163807676D01*
X163666811Y-163802694D01*
X163666814Y-163802689D01*
X163756117Y-163611178D01*
X163756118Y-163611177D01*
X163758440Y-163606196D01*
X163815978Y-163391463D01*
X163835353Y-163170000D01*
X168904647Y-163170000D01*
X168924022Y-163391463D01*
X168981560Y-163606196D01*
X168983882Y-163611177D01*
X168983883Y-163611178D01*
X169073186Y-163802689D01*
X169073189Y-163802694D01*
X169075512Y-163807676D01*
X169203023Y-163989781D01*
X169360219Y-164146977D01*
X169364727Y-164150134D01*
X169364730Y-164150136D01*
X169440495Y-164203187D01*
X169542323Y-164274488D01*
X169547305Y-164276811D01*
X169547310Y-164276814D01*
X169738822Y-164366117D01*
X169743804Y-164368440D01*
X169749112Y-164369862D01*
X169749114Y-164369863D01*
X169814949Y-164387503D01*
X169958537Y-164425978D01*
X170180000Y-164445353D01*
X170401463Y-164425978D01*
X170545051Y-164387503D01*
X170610886Y-164369863D01*
X170610888Y-164369862D01*
X170616196Y-164368440D01*
X170621178Y-164366117D01*
X170812690Y-164276814D01*
X170812695Y-164276811D01*
X170817677Y-164274488D01*
X170919505Y-164203187D01*
X170995270Y-164150136D01*
X170995273Y-164150134D01*
X170999781Y-164146977D01*
X171156977Y-163989781D01*
X171284488Y-163807676D01*
X171286811Y-163802694D01*
X171286814Y-163802689D01*
X171376117Y-163611178D01*
X171376118Y-163611177D01*
X171378440Y-163606196D01*
X171435978Y-163391463D01*
X171455353Y-163170000D01*
X194304647Y-163170000D01*
X194324022Y-163391463D01*
X194381560Y-163606196D01*
X194383882Y-163611177D01*
X194383883Y-163611178D01*
X194473186Y-163802689D01*
X194473189Y-163802694D01*
X194475512Y-163807676D01*
X194603023Y-163989781D01*
X194760219Y-164146977D01*
X194764727Y-164150134D01*
X194764730Y-164150136D01*
X194840495Y-164203187D01*
X194942323Y-164274488D01*
X194947305Y-164276811D01*
X194947310Y-164276814D01*
X195138822Y-164366117D01*
X195143804Y-164368440D01*
X195149112Y-164369862D01*
X195149114Y-164369863D01*
X195214949Y-164387503D01*
X195358537Y-164425978D01*
X195580000Y-164445353D01*
X195801463Y-164425978D01*
X195945051Y-164387503D01*
X196010886Y-164369863D01*
X196010888Y-164369862D01*
X196016196Y-164368440D01*
X196021178Y-164366117D01*
X196212690Y-164276814D01*
X196212695Y-164276811D01*
X196217677Y-164274488D01*
X196319505Y-164203187D01*
X196395270Y-164150136D01*
X196395273Y-164150134D01*
X196399781Y-164146977D01*
X196556977Y-163989781D01*
X196684488Y-163807676D01*
X196686811Y-163802694D01*
X196686814Y-163802689D01*
X196776117Y-163611178D01*
X196776118Y-163611177D01*
X196778440Y-163606196D01*
X196835978Y-163391463D01*
X196855353Y-163170000D01*
X196835978Y-162948537D01*
X196778440Y-162733804D01*
X196776117Y-162728822D01*
X196686814Y-162537311D01*
X196686811Y-162537306D01*
X196684488Y-162532324D01*
X196556977Y-162350219D01*
X196399781Y-162193023D01*
X196395273Y-162189866D01*
X196395270Y-162189864D01*
X196319505Y-162136813D01*
X196217677Y-162065512D01*
X196212695Y-162063189D01*
X196212690Y-162063186D01*
X196107035Y-162013919D01*
X196053750Y-161967002D01*
X196034289Y-161898725D01*
X196054831Y-161830765D01*
X196107035Y-161785529D01*
X196212445Y-161736376D01*
X196221931Y-161730898D01*
X196265764Y-161700207D01*
X196274139Y-161689729D01*
X196267071Y-161676281D01*
X195592812Y-161002022D01*
X195578868Y-160994408D01*
X195577035Y-160994539D01*
X195570420Y-160998790D01*
X194892207Y-161677003D01*
X194885777Y-161688777D01*
X194895074Y-161700793D01*
X194938069Y-161730898D01*
X194947555Y-161736376D01*
X195052965Y-161785529D01*
X195106250Y-161832446D01*
X195125711Y-161900723D01*
X195105169Y-161968683D01*
X195052965Y-162013919D01*
X194947311Y-162063186D01*
X194947306Y-162063189D01*
X194942324Y-162065512D01*
X194937817Y-162068668D01*
X194937815Y-162068669D01*
X194764730Y-162189864D01*
X194764727Y-162189866D01*
X194760219Y-162193023D01*
X194603023Y-162350219D01*
X194475512Y-162532324D01*
X194473189Y-162537306D01*
X194473186Y-162537311D01*
X194383883Y-162728822D01*
X194381560Y-162733804D01*
X194324022Y-162948537D01*
X194304647Y-163170000D01*
X171455353Y-163170000D01*
X171435978Y-162948537D01*
X171378440Y-162733804D01*
X171376117Y-162728822D01*
X171286814Y-162537311D01*
X171286811Y-162537306D01*
X171284488Y-162532324D01*
X171156977Y-162350219D01*
X170999781Y-162193023D01*
X170995273Y-162189866D01*
X170995270Y-162189864D01*
X170919505Y-162136813D01*
X170817677Y-162065512D01*
X170812695Y-162063189D01*
X170812690Y-162063186D01*
X170707035Y-162013919D01*
X170653750Y-161967002D01*
X170634289Y-161898725D01*
X170654831Y-161830765D01*
X170707035Y-161785529D01*
X170812445Y-161736376D01*
X170821931Y-161730898D01*
X170865764Y-161700207D01*
X170874139Y-161689729D01*
X170867071Y-161676281D01*
X170192812Y-161002022D01*
X170178868Y-160994408D01*
X170177035Y-160994539D01*
X170170420Y-160998790D01*
X169492207Y-161677003D01*
X169485777Y-161688777D01*
X169495074Y-161700793D01*
X169538069Y-161730898D01*
X169547555Y-161736376D01*
X169652965Y-161785529D01*
X169706250Y-161832446D01*
X169725711Y-161900723D01*
X169705169Y-161968683D01*
X169652965Y-162013919D01*
X169547311Y-162063186D01*
X169547306Y-162063189D01*
X169542324Y-162065512D01*
X169537817Y-162068668D01*
X169537815Y-162068669D01*
X169364730Y-162189864D01*
X169364727Y-162189866D01*
X169360219Y-162193023D01*
X169203023Y-162350219D01*
X169075512Y-162532324D01*
X169073189Y-162537306D01*
X169073186Y-162537311D01*
X168983883Y-162728822D01*
X168981560Y-162733804D01*
X168924022Y-162948537D01*
X168904647Y-163170000D01*
X163835353Y-163170000D01*
X163815978Y-162948537D01*
X163758440Y-162733804D01*
X163756117Y-162728822D01*
X163666814Y-162537311D01*
X163666811Y-162537306D01*
X163664488Y-162532324D01*
X163536977Y-162350219D01*
X163379781Y-162193023D01*
X163375273Y-162189866D01*
X163375270Y-162189864D01*
X163299505Y-162136813D01*
X163197677Y-162065512D01*
X163192695Y-162063189D01*
X163192690Y-162063186D01*
X163087035Y-162013919D01*
X163033750Y-161967002D01*
X163014289Y-161898725D01*
X163034831Y-161830765D01*
X163087035Y-161785529D01*
X163192445Y-161736376D01*
X163201931Y-161730898D01*
X163245764Y-161700207D01*
X163254139Y-161689729D01*
X163247071Y-161676281D01*
X162572812Y-161002022D01*
X162558868Y-160994408D01*
X162557035Y-160994539D01*
X162550420Y-160998790D01*
X161872207Y-161677003D01*
X161865777Y-161688777D01*
X161875074Y-161700793D01*
X161918069Y-161730898D01*
X161927555Y-161736376D01*
X162032965Y-161785529D01*
X162086250Y-161832446D01*
X162105711Y-161900723D01*
X162085169Y-161968683D01*
X162032965Y-162013919D01*
X161927311Y-162063186D01*
X161927306Y-162063189D01*
X161922324Y-162065512D01*
X161917817Y-162068668D01*
X161917815Y-162068669D01*
X161744730Y-162189864D01*
X161744727Y-162189866D01*
X161740219Y-162193023D01*
X161583023Y-162350219D01*
X161455512Y-162532324D01*
X161453189Y-162537306D01*
X161453186Y-162537311D01*
X161363883Y-162728822D01*
X161361560Y-162733804D01*
X161304022Y-162948537D01*
X161284647Y-163170000D01*
X138435353Y-163170000D01*
X138415978Y-162948537D01*
X138358440Y-162733804D01*
X138356117Y-162728822D01*
X138266814Y-162537311D01*
X138266811Y-162537306D01*
X138264488Y-162532324D01*
X138136977Y-162350219D01*
X137979781Y-162193023D01*
X137975273Y-162189866D01*
X137975270Y-162189864D01*
X137899505Y-162136813D01*
X137797677Y-162065512D01*
X137792695Y-162063189D01*
X137792690Y-162063186D01*
X137687035Y-162013919D01*
X137633750Y-161967002D01*
X137614289Y-161898725D01*
X137634831Y-161830765D01*
X137687035Y-161785529D01*
X137792445Y-161736376D01*
X137801931Y-161730898D01*
X137845764Y-161700207D01*
X137854139Y-161689729D01*
X137847071Y-161676281D01*
X137172812Y-161002022D01*
X137158868Y-160994408D01*
X137157035Y-160994539D01*
X137150420Y-160998790D01*
X136472207Y-161677003D01*
X136465777Y-161688777D01*
X136475074Y-161700793D01*
X136518069Y-161730898D01*
X136527555Y-161736376D01*
X136632965Y-161785529D01*
X136686250Y-161832446D01*
X136705711Y-161900723D01*
X136685169Y-161968683D01*
X136632965Y-162013919D01*
X136527311Y-162063186D01*
X136527306Y-162063189D01*
X136522324Y-162065512D01*
X136517817Y-162068668D01*
X136517815Y-162068669D01*
X136344730Y-162189864D01*
X136344727Y-162189866D01*
X136340219Y-162193023D01*
X136183023Y-162350219D01*
X136055512Y-162532324D01*
X136053189Y-162537306D01*
X136053186Y-162537311D01*
X135963883Y-162728822D01*
X135961560Y-162733804D01*
X135904022Y-162948537D01*
X135884647Y-163170000D01*
X132080000Y-163170000D01*
X132080000Y-160635475D01*
X135885628Y-160635475D01*
X135904038Y-160845896D01*
X135905941Y-160856691D01*
X135960609Y-161060715D01*
X135964355Y-161071007D01*
X136053623Y-161262441D01*
X136059103Y-161271932D01*
X136089794Y-161315765D01*
X136100271Y-161324140D01*
X136113718Y-161317072D01*
X136787978Y-160642812D01*
X136794356Y-160631132D01*
X137524408Y-160631132D01*
X137524539Y-160632965D01*
X137528790Y-160639580D01*
X138207003Y-161317793D01*
X138218777Y-161324223D01*
X138230793Y-161314926D01*
X138260897Y-161271932D01*
X138266377Y-161262441D01*
X138355645Y-161071007D01*
X138359391Y-161060715D01*
X138414059Y-160856691D01*
X138415962Y-160845896D01*
X138434372Y-160635475D01*
X161285628Y-160635475D01*
X161304038Y-160845896D01*
X161305941Y-160856691D01*
X161360609Y-161060715D01*
X161364355Y-161071007D01*
X161453623Y-161262441D01*
X161459103Y-161271932D01*
X161489794Y-161315765D01*
X161500271Y-161324140D01*
X161513718Y-161317072D01*
X162187978Y-160642812D01*
X162194356Y-160631132D01*
X162924408Y-160631132D01*
X162924539Y-160632965D01*
X162928790Y-160639580D01*
X163607003Y-161317793D01*
X163618777Y-161324223D01*
X163630793Y-161314926D01*
X163660897Y-161271932D01*
X163666377Y-161262441D01*
X163755645Y-161071007D01*
X163759391Y-161060715D01*
X163814059Y-160856691D01*
X163815962Y-160845896D01*
X163834372Y-160635475D01*
X168905628Y-160635475D01*
X168924038Y-160845896D01*
X168925941Y-160856691D01*
X168980609Y-161060715D01*
X168984355Y-161071007D01*
X169073623Y-161262441D01*
X169079103Y-161271932D01*
X169109794Y-161315765D01*
X169120271Y-161324140D01*
X169133718Y-161317072D01*
X169807978Y-160642812D01*
X169814356Y-160631132D01*
X170544408Y-160631132D01*
X170544539Y-160632965D01*
X170548790Y-160639580D01*
X171227003Y-161317793D01*
X171238777Y-161324223D01*
X171250793Y-161314926D01*
X171280897Y-161271932D01*
X171286377Y-161262441D01*
X171375645Y-161071007D01*
X171379391Y-161060715D01*
X171434059Y-160856691D01*
X171435962Y-160845896D01*
X171454372Y-160635475D01*
X194305628Y-160635475D01*
X194324038Y-160845896D01*
X194325941Y-160856691D01*
X194380609Y-161060715D01*
X194384355Y-161071007D01*
X194473623Y-161262441D01*
X194479103Y-161271932D01*
X194509794Y-161315765D01*
X194520271Y-161324140D01*
X194533718Y-161317072D01*
X195207978Y-160642812D01*
X195214356Y-160631132D01*
X195944408Y-160631132D01*
X195944539Y-160632965D01*
X195948790Y-160639580D01*
X196627003Y-161317793D01*
X196638777Y-161324223D01*
X196650793Y-161314926D01*
X196680897Y-161271932D01*
X196686377Y-161262441D01*
X196775645Y-161071007D01*
X196779391Y-161060715D01*
X196834059Y-160856691D01*
X196835962Y-160845896D01*
X196854372Y-160635475D01*
X196854372Y-160624525D01*
X196835962Y-160414104D01*
X196834059Y-160403309D01*
X196779391Y-160199285D01*
X196775645Y-160188993D01*
X196686377Y-159997559D01*
X196680897Y-159988068D01*
X196650206Y-159944235D01*
X196639729Y-159935860D01*
X196626282Y-159942928D01*
X195952022Y-160617188D01*
X195944408Y-160631132D01*
X195214356Y-160631132D01*
X195215592Y-160628868D01*
X195215461Y-160627035D01*
X195211210Y-160620420D01*
X194532997Y-159942207D01*
X194521223Y-159935777D01*
X194509207Y-159945074D01*
X194479103Y-159988068D01*
X194473623Y-159997559D01*
X194384355Y-160188993D01*
X194380609Y-160199285D01*
X194325941Y-160403309D01*
X194324038Y-160414104D01*
X194305628Y-160624525D01*
X194305628Y-160635475D01*
X171454372Y-160635475D01*
X171454372Y-160624525D01*
X171435962Y-160414104D01*
X171434059Y-160403309D01*
X171379391Y-160199285D01*
X171375645Y-160188993D01*
X171286377Y-159997559D01*
X171280897Y-159988068D01*
X171250206Y-159944235D01*
X171239729Y-159935860D01*
X171226282Y-159942928D01*
X170552022Y-160617188D01*
X170544408Y-160631132D01*
X169814356Y-160631132D01*
X169815592Y-160628868D01*
X169815461Y-160627035D01*
X169811210Y-160620420D01*
X169132997Y-159942207D01*
X169121223Y-159935777D01*
X169109207Y-159945074D01*
X169079103Y-159988068D01*
X169073623Y-159997559D01*
X168984355Y-160188993D01*
X168980609Y-160199285D01*
X168925941Y-160403309D01*
X168924038Y-160414104D01*
X168905628Y-160624525D01*
X168905628Y-160635475D01*
X163834372Y-160635475D01*
X163834372Y-160624525D01*
X163815962Y-160414104D01*
X163814059Y-160403309D01*
X163759391Y-160199285D01*
X163755645Y-160188993D01*
X163666377Y-159997559D01*
X163660897Y-159988068D01*
X163630206Y-159944235D01*
X163619729Y-159935860D01*
X163606282Y-159942928D01*
X162932022Y-160617188D01*
X162924408Y-160631132D01*
X162194356Y-160631132D01*
X162195592Y-160628868D01*
X162195461Y-160627035D01*
X162191210Y-160620420D01*
X161512997Y-159942207D01*
X161501223Y-159935777D01*
X161489207Y-159945074D01*
X161459103Y-159988068D01*
X161453623Y-159997559D01*
X161364355Y-160188993D01*
X161360609Y-160199285D01*
X161305941Y-160403309D01*
X161304038Y-160414104D01*
X161285628Y-160624525D01*
X161285628Y-160635475D01*
X138434372Y-160635475D01*
X138434372Y-160624525D01*
X138415962Y-160414104D01*
X138414059Y-160403309D01*
X138359391Y-160199285D01*
X138355645Y-160188993D01*
X138266377Y-159997559D01*
X138260897Y-159988068D01*
X138230206Y-159944235D01*
X138219729Y-159935860D01*
X138206282Y-159942928D01*
X137532022Y-160617188D01*
X137524408Y-160631132D01*
X136794356Y-160631132D01*
X136795592Y-160628868D01*
X136795461Y-160627035D01*
X136791210Y-160620420D01*
X136112997Y-159942207D01*
X136101223Y-159935777D01*
X136089207Y-159945074D01*
X136059103Y-159988068D01*
X136053623Y-159997559D01*
X135964355Y-160188993D01*
X135960609Y-160199285D01*
X135905941Y-160403309D01*
X135904038Y-160414104D01*
X135885628Y-160624525D01*
X135885628Y-160635475D01*
X132080000Y-160635475D01*
X132080000Y-106476454D01*
X135435269Y-106476454D01*
X135436015Y-106484346D01*
X135439430Y-106520472D01*
X135439989Y-106532330D01*
X135439989Y-146764722D01*
X135439462Y-146775905D01*
X135437787Y-146783398D01*
X135438036Y-146791324D01*
X135438036Y-146791325D01*
X135439927Y-146851475D01*
X135439989Y-146855434D01*
X135439989Y-146883345D01*
X135440486Y-146887279D01*
X135440486Y-146887280D01*
X135440494Y-146887345D01*
X135441427Y-146899182D01*
X135442816Y-146943378D01*
X135448467Y-146962828D01*
X135452476Y-146982189D01*
X135455015Y-147002286D01*
X135457934Y-147009657D01*
X135457934Y-147009659D01*
X135471293Y-147043401D01*
X135475138Y-147054631D01*
X135487471Y-147097082D01*
X135491504Y-147103901D01*
X135491506Y-147103906D01*
X135497782Y-147114517D01*
X135506477Y-147132265D01*
X135513937Y-147151106D01*
X135518599Y-147157522D01*
X135518599Y-147157523D01*
X135539925Y-147186876D01*
X135546441Y-147196796D01*
X135568947Y-147234851D01*
X135583268Y-147249172D01*
X135596108Y-147264205D01*
X135608017Y-147280596D01*
X135622194Y-147292324D01*
X135642094Y-147308787D01*
X135650873Y-147316777D01*
X135881874Y-147547778D01*
X135915900Y-147610090D01*
X135914486Y-147669484D01*
X135904022Y-147708537D01*
X135884647Y-147930000D01*
X135904022Y-148151463D01*
X135961560Y-148366196D01*
X135963882Y-148371177D01*
X135963883Y-148371178D01*
X136053186Y-148562689D01*
X136053189Y-148562694D01*
X136055512Y-148567676D01*
X136058668Y-148572183D01*
X136058669Y-148572185D01*
X136157328Y-148713084D01*
X136183023Y-148749781D01*
X136340219Y-148906977D01*
X136344727Y-148910134D01*
X136344730Y-148910136D01*
X136420495Y-148963187D01*
X136522323Y-149034488D01*
X136527305Y-149036811D01*
X136527310Y-149036814D01*
X136632373Y-149085805D01*
X136685658Y-149132722D01*
X136705119Y-149200999D01*
X136684577Y-149268959D01*
X136632373Y-149314195D01*
X136527311Y-149363186D01*
X136527306Y-149363189D01*
X136522324Y-149365512D01*
X136517817Y-149368668D01*
X136517815Y-149368669D01*
X136344730Y-149489864D01*
X136344727Y-149489866D01*
X136340219Y-149493023D01*
X136183023Y-149650219D01*
X136055512Y-149832324D01*
X136053189Y-149837306D01*
X136053186Y-149837311D01*
X135968490Y-150018942D01*
X135961560Y-150033804D01*
X135904022Y-150248537D01*
X135884647Y-150470000D01*
X135904022Y-150691463D01*
X135961560Y-150906196D01*
X135963882Y-150911177D01*
X135963883Y-150911178D01*
X136053186Y-151102689D01*
X136053189Y-151102694D01*
X136055512Y-151107676D01*
X136183023Y-151289781D01*
X136340219Y-151446977D01*
X136344727Y-151450134D01*
X136344730Y-151450136D01*
X136420495Y-151503187D01*
X136522323Y-151574488D01*
X136527305Y-151576811D01*
X136527310Y-151576814D01*
X136632373Y-151625805D01*
X136685658Y-151672722D01*
X136705119Y-151740999D01*
X136684577Y-151808959D01*
X136632373Y-151854195D01*
X136527311Y-151903186D01*
X136527306Y-151903189D01*
X136522324Y-151905512D01*
X136517817Y-151908668D01*
X136517815Y-151908669D01*
X136344730Y-152029864D01*
X136344727Y-152029866D01*
X136340219Y-152033023D01*
X136183023Y-152190219D01*
X136055512Y-152372324D01*
X136053189Y-152377306D01*
X136053186Y-152377311D01*
X135963883Y-152568822D01*
X135961560Y-152573804D01*
X135904022Y-152788537D01*
X135884647Y-153010000D01*
X135904022Y-153231463D01*
X135961560Y-153446196D01*
X135963882Y-153451177D01*
X135963883Y-153451178D01*
X136053186Y-153642689D01*
X136053189Y-153642694D01*
X136055512Y-153647676D01*
X136183023Y-153829781D01*
X136340219Y-153986977D01*
X136344727Y-153990134D01*
X136344730Y-153990136D01*
X136420495Y-154043187D01*
X136522323Y-154114488D01*
X136527305Y-154116811D01*
X136527310Y-154116814D01*
X136632373Y-154165805D01*
X136685658Y-154212722D01*
X136705119Y-154280999D01*
X136684577Y-154348959D01*
X136632373Y-154394195D01*
X136527311Y-154443186D01*
X136527306Y-154443189D01*
X136522324Y-154445512D01*
X136517817Y-154448668D01*
X136517815Y-154448669D01*
X136344730Y-154569864D01*
X136344727Y-154569866D01*
X136340219Y-154573023D01*
X136183023Y-154730219D01*
X136055512Y-154912324D01*
X136053189Y-154917306D01*
X136053186Y-154917311D01*
X135963883Y-155108822D01*
X135961560Y-155113804D01*
X135904022Y-155328537D01*
X135884647Y-155550000D01*
X135904022Y-155771463D01*
X135961560Y-155986196D01*
X135963882Y-155991177D01*
X135963883Y-155991178D01*
X136053186Y-156182689D01*
X136053189Y-156182694D01*
X136055512Y-156187676D01*
X136183023Y-156369781D01*
X136340219Y-156526977D01*
X136344727Y-156530134D01*
X136344730Y-156530136D01*
X136420495Y-156583187D01*
X136522323Y-156654488D01*
X136527305Y-156656811D01*
X136527310Y-156656814D01*
X136632373Y-156705805D01*
X136685658Y-156752722D01*
X136705119Y-156820999D01*
X136684577Y-156888959D01*
X136632373Y-156934195D01*
X136527311Y-156983186D01*
X136527306Y-156983189D01*
X136522324Y-156985512D01*
X136517817Y-156988668D01*
X136517815Y-156988669D01*
X136344730Y-157109864D01*
X136344727Y-157109866D01*
X136340219Y-157113023D01*
X136183023Y-157270219D01*
X136055512Y-157452324D01*
X136053189Y-157457306D01*
X136053186Y-157457311D01*
X135963883Y-157648822D01*
X135961560Y-157653804D01*
X135904022Y-157868537D01*
X135884647Y-158090000D01*
X135904022Y-158311463D01*
X135961560Y-158526196D01*
X135963882Y-158531177D01*
X135963883Y-158531178D01*
X136053186Y-158722689D01*
X136053189Y-158722694D01*
X136055512Y-158727676D01*
X136183023Y-158909781D01*
X136340219Y-159066977D01*
X136344727Y-159070134D01*
X136344730Y-159070136D01*
X136420495Y-159123187D01*
X136522323Y-159194488D01*
X136527305Y-159196811D01*
X136527310Y-159196814D01*
X136632965Y-159246081D01*
X136686250Y-159292998D01*
X136705711Y-159361275D01*
X136685169Y-159429235D01*
X136632965Y-159474471D01*
X136527559Y-159523623D01*
X136518068Y-159529103D01*
X136474235Y-159559794D01*
X136465860Y-159570271D01*
X136472928Y-159583718D01*
X137147188Y-160257978D01*
X137161132Y-160265592D01*
X137162965Y-160265461D01*
X137169580Y-160261210D01*
X137847793Y-159582997D01*
X137854223Y-159571223D01*
X137844926Y-159559207D01*
X137801931Y-159529102D01*
X137792445Y-159523624D01*
X137687035Y-159474471D01*
X137633750Y-159427554D01*
X137614289Y-159359277D01*
X137634831Y-159291317D01*
X137687035Y-159246081D01*
X137792690Y-159196814D01*
X137792695Y-159196811D01*
X137797677Y-159194488D01*
X137899505Y-159123187D01*
X137975270Y-159070136D01*
X137975273Y-159070134D01*
X137979781Y-159066977D01*
X138136977Y-158909781D01*
X138264488Y-158727676D01*
X138266811Y-158722694D01*
X138266814Y-158722689D01*
X138356117Y-158531178D01*
X138356118Y-158531177D01*
X138358440Y-158526196D01*
X138415978Y-158311463D01*
X138435353Y-158090000D01*
X161284647Y-158090000D01*
X161304022Y-158311463D01*
X161361560Y-158526196D01*
X161363882Y-158531177D01*
X161363883Y-158531178D01*
X161453186Y-158722689D01*
X161453189Y-158722694D01*
X161455512Y-158727676D01*
X161583023Y-158909781D01*
X161740219Y-159066977D01*
X161744727Y-159070134D01*
X161744730Y-159070136D01*
X161820495Y-159123187D01*
X161922323Y-159194488D01*
X161927305Y-159196811D01*
X161927310Y-159196814D01*
X162032965Y-159246081D01*
X162086250Y-159292998D01*
X162105711Y-159361275D01*
X162085169Y-159429235D01*
X162032965Y-159474471D01*
X161927559Y-159523623D01*
X161918068Y-159529103D01*
X161874235Y-159559794D01*
X161865860Y-159570271D01*
X161872928Y-159583718D01*
X162547188Y-160257978D01*
X162561132Y-160265592D01*
X162562965Y-160265461D01*
X162569580Y-160261210D01*
X163247793Y-159582997D01*
X163254223Y-159571223D01*
X163244926Y-159559207D01*
X163201931Y-159529102D01*
X163192445Y-159523624D01*
X163087035Y-159474471D01*
X163033750Y-159427554D01*
X163014289Y-159359277D01*
X163034831Y-159291317D01*
X163087035Y-159246081D01*
X163192690Y-159196814D01*
X163192695Y-159196811D01*
X163197677Y-159194488D01*
X163299505Y-159123187D01*
X163375270Y-159070136D01*
X163375273Y-159070134D01*
X163379781Y-159066977D01*
X163536977Y-158909781D01*
X163664488Y-158727676D01*
X163666811Y-158722694D01*
X163666814Y-158722689D01*
X163756117Y-158531178D01*
X163756118Y-158531177D01*
X163758440Y-158526196D01*
X163815978Y-158311463D01*
X163835353Y-158090000D01*
X163815978Y-157868537D01*
X163758440Y-157653804D01*
X163756117Y-157648822D01*
X163666814Y-157457311D01*
X163666811Y-157457306D01*
X163664488Y-157452324D01*
X163536977Y-157270219D01*
X163379781Y-157113023D01*
X163375273Y-157109866D01*
X163375270Y-157109864D01*
X163299505Y-157056813D01*
X163197677Y-156985512D01*
X163192695Y-156983189D01*
X163192690Y-156983186D01*
X163087627Y-156934195D01*
X163034342Y-156887278D01*
X163014881Y-156819001D01*
X163035423Y-156751041D01*
X163087627Y-156705805D01*
X163192690Y-156656814D01*
X163192695Y-156656811D01*
X163197677Y-156654488D01*
X163299505Y-156583187D01*
X163375270Y-156530136D01*
X163375273Y-156530134D01*
X163379781Y-156526977D01*
X163536977Y-156369781D01*
X163664488Y-156187676D01*
X163666811Y-156182694D01*
X163666814Y-156182689D01*
X163756117Y-155991178D01*
X163756118Y-155991177D01*
X163758440Y-155986196D01*
X163815978Y-155771463D01*
X163835353Y-155550000D01*
X163815978Y-155328537D01*
X163758440Y-155113804D01*
X163756117Y-155108822D01*
X163666814Y-154917311D01*
X163666811Y-154917306D01*
X163664488Y-154912324D01*
X163536977Y-154730219D01*
X163379781Y-154573023D01*
X163375273Y-154569866D01*
X163375270Y-154569864D01*
X163299505Y-154516813D01*
X163197677Y-154445512D01*
X163192695Y-154443189D01*
X163192690Y-154443186D01*
X163087627Y-154394195D01*
X163034342Y-154347278D01*
X163014881Y-154279001D01*
X163035423Y-154211041D01*
X163087627Y-154165805D01*
X163192690Y-154116814D01*
X163192695Y-154116811D01*
X163197677Y-154114488D01*
X163299505Y-154043187D01*
X163375270Y-153990136D01*
X163375273Y-153990134D01*
X163379781Y-153986977D01*
X163536977Y-153829781D01*
X163664488Y-153647676D01*
X163666811Y-153642694D01*
X163666814Y-153642689D01*
X163756117Y-153451178D01*
X163756118Y-153451177D01*
X163758440Y-153446196D01*
X163815978Y-153231463D01*
X163835353Y-153010000D01*
X163815978Y-152788537D01*
X163758440Y-152573804D01*
X163756117Y-152568822D01*
X163666814Y-152377311D01*
X163666811Y-152377306D01*
X163664488Y-152372324D01*
X163536977Y-152190219D01*
X163379781Y-152033023D01*
X163375273Y-152029866D01*
X163375270Y-152029864D01*
X163299505Y-151976813D01*
X163197677Y-151905512D01*
X163192695Y-151903189D01*
X163192690Y-151903186D01*
X163087627Y-151854195D01*
X163034342Y-151807278D01*
X163014881Y-151739001D01*
X163035423Y-151671041D01*
X163087627Y-151625805D01*
X163192690Y-151576814D01*
X163192695Y-151576811D01*
X163197677Y-151574488D01*
X163299505Y-151503187D01*
X163375270Y-151450136D01*
X163375273Y-151450134D01*
X163379781Y-151446977D01*
X163536977Y-151289781D01*
X163664488Y-151107676D01*
X163666811Y-151102694D01*
X163666814Y-151102689D01*
X163756117Y-150911178D01*
X163756118Y-150911177D01*
X163758440Y-150906196D01*
X163815978Y-150691463D01*
X163835353Y-150470000D01*
X163815978Y-150248537D01*
X163805514Y-150209484D01*
X163807204Y-150138507D01*
X163838126Y-150087778D01*
X163872010Y-150053894D01*
X163934322Y-150019868D01*
X163961105Y-150016989D01*
X168821859Y-150016989D01*
X168889980Y-150036991D01*
X168936473Y-150090647D01*
X168946577Y-150160921D01*
X168943565Y-150175601D01*
X168925447Y-150243216D01*
X168925446Y-150243223D01*
X168924022Y-150248537D01*
X168904647Y-150470000D01*
X168924022Y-150691463D01*
X168981560Y-150906196D01*
X168983882Y-150911177D01*
X168983883Y-150911178D01*
X169073186Y-151102689D01*
X169073189Y-151102694D01*
X169075512Y-151107676D01*
X169203023Y-151289781D01*
X169360219Y-151446977D01*
X169364727Y-151450134D01*
X169364730Y-151450136D01*
X169440495Y-151503187D01*
X169542323Y-151574488D01*
X169547305Y-151576811D01*
X169547310Y-151576814D01*
X169652373Y-151625805D01*
X169705658Y-151672722D01*
X169725119Y-151740999D01*
X169704577Y-151808959D01*
X169652373Y-151854195D01*
X169547311Y-151903186D01*
X169547306Y-151903189D01*
X169542324Y-151905512D01*
X169537817Y-151908668D01*
X169537815Y-151908669D01*
X169364730Y-152029864D01*
X169364727Y-152029866D01*
X169360219Y-152033023D01*
X169203023Y-152190219D01*
X169075512Y-152372324D01*
X169073189Y-152377306D01*
X169073186Y-152377311D01*
X168983883Y-152568822D01*
X168981560Y-152573804D01*
X168924022Y-152788537D01*
X168904647Y-153010000D01*
X168924022Y-153231463D01*
X168981560Y-153446196D01*
X168983882Y-153451177D01*
X168983883Y-153451178D01*
X169073186Y-153642689D01*
X169073189Y-153642694D01*
X169075512Y-153647676D01*
X169203023Y-153829781D01*
X169360219Y-153986977D01*
X169364727Y-153990134D01*
X169364730Y-153990136D01*
X169440495Y-154043187D01*
X169542323Y-154114488D01*
X169547305Y-154116811D01*
X169547310Y-154116814D01*
X169652373Y-154165805D01*
X169705658Y-154212722D01*
X169725119Y-154280999D01*
X169704577Y-154348959D01*
X169652373Y-154394195D01*
X169547311Y-154443186D01*
X169547306Y-154443189D01*
X169542324Y-154445512D01*
X169537817Y-154448668D01*
X169537815Y-154448669D01*
X169364730Y-154569864D01*
X169364727Y-154569866D01*
X169360219Y-154573023D01*
X169203023Y-154730219D01*
X169075512Y-154912324D01*
X169073189Y-154917306D01*
X169073186Y-154917311D01*
X168983883Y-155108822D01*
X168981560Y-155113804D01*
X168924022Y-155328537D01*
X168904647Y-155550000D01*
X168924022Y-155771463D01*
X168981560Y-155986196D01*
X168983882Y-155991177D01*
X168983883Y-155991178D01*
X169073186Y-156182689D01*
X169073189Y-156182694D01*
X169075512Y-156187676D01*
X169203023Y-156369781D01*
X169360219Y-156526977D01*
X169364727Y-156530134D01*
X169364730Y-156530136D01*
X169440495Y-156583187D01*
X169542323Y-156654488D01*
X169547305Y-156656811D01*
X169547310Y-156656814D01*
X169652373Y-156705805D01*
X169705658Y-156752722D01*
X169725119Y-156820999D01*
X169704577Y-156888959D01*
X169652373Y-156934195D01*
X169547311Y-156983186D01*
X169547306Y-156983189D01*
X169542324Y-156985512D01*
X169537817Y-156988668D01*
X169537815Y-156988669D01*
X169364730Y-157109864D01*
X169364727Y-157109866D01*
X169360219Y-157113023D01*
X169203023Y-157270219D01*
X169075512Y-157452324D01*
X169073189Y-157457306D01*
X169073186Y-157457311D01*
X168983883Y-157648822D01*
X168981560Y-157653804D01*
X168924022Y-157868537D01*
X168904647Y-158090000D01*
X168924022Y-158311463D01*
X168981560Y-158526196D01*
X168983882Y-158531177D01*
X168983883Y-158531178D01*
X169073186Y-158722689D01*
X169073189Y-158722694D01*
X169075512Y-158727676D01*
X169203023Y-158909781D01*
X169360219Y-159066977D01*
X169364727Y-159070134D01*
X169364730Y-159070136D01*
X169440495Y-159123187D01*
X169542323Y-159194488D01*
X169547305Y-159196811D01*
X169547310Y-159196814D01*
X169652965Y-159246081D01*
X169706250Y-159292998D01*
X169725711Y-159361275D01*
X169705169Y-159429235D01*
X169652965Y-159474471D01*
X169547559Y-159523623D01*
X169538068Y-159529103D01*
X169494235Y-159559794D01*
X169485860Y-159570271D01*
X169492928Y-159583718D01*
X170167188Y-160257978D01*
X170181132Y-160265592D01*
X170182965Y-160265461D01*
X170189580Y-160261210D01*
X170867793Y-159582997D01*
X170874223Y-159571223D01*
X170864926Y-159559207D01*
X170821931Y-159529102D01*
X170812445Y-159523624D01*
X170707035Y-159474471D01*
X170653750Y-159427554D01*
X170634289Y-159359277D01*
X170654831Y-159291317D01*
X170707035Y-159246081D01*
X170812690Y-159196814D01*
X170812695Y-159196811D01*
X170817677Y-159194488D01*
X170919505Y-159123187D01*
X170995270Y-159070136D01*
X170995273Y-159070134D01*
X170999781Y-159066977D01*
X171156977Y-158909781D01*
X171284488Y-158727676D01*
X171286811Y-158722694D01*
X171286814Y-158722689D01*
X171376117Y-158531178D01*
X171376118Y-158531177D01*
X171378440Y-158526196D01*
X171435978Y-158311463D01*
X171455353Y-158090000D01*
X171435978Y-157868537D01*
X171378440Y-157653804D01*
X171376117Y-157648822D01*
X171286814Y-157457311D01*
X171286811Y-157457306D01*
X171284488Y-157452324D01*
X171156977Y-157270219D01*
X170999781Y-157113023D01*
X170995273Y-157109866D01*
X170995270Y-157109864D01*
X170919505Y-157056813D01*
X170817677Y-156985512D01*
X170812695Y-156983189D01*
X170812690Y-156983186D01*
X170707627Y-156934195D01*
X170654342Y-156887278D01*
X170634881Y-156819001D01*
X170655423Y-156751041D01*
X170707627Y-156705805D01*
X170812690Y-156656814D01*
X170812695Y-156656811D01*
X170817677Y-156654488D01*
X170919505Y-156583187D01*
X170995270Y-156530136D01*
X170995273Y-156530134D01*
X170999781Y-156526977D01*
X171156977Y-156369781D01*
X171284488Y-156187676D01*
X171286811Y-156182694D01*
X171286814Y-156182689D01*
X171376117Y-155991178D01*
X171376118Y-155991177D01*
X171378440Y-155986196D01*
X171435978Y-155771463D01*
X171455353Y-155550000D01*
X171435978Y-155328537D01*
X171378440Y-155113804D01*
X171376117Y-155108822D01*
X171286814Y-154917311D01*
X171286811Y-154917306D01*
X171284488Y-154912324D01*
X171156977Y-154730219D01*
X170999781Y-154573023D01*
X170995273Y-154569866D01*
X170995270Y-154569864D01*
X170919505Y-154516813D01*
X170817677Y-154445512D01*
X170812695Y-154443189D01*
X170812690Y-154443186D01*
X170707627Y-154394195D01*
X170654342Y-154347278D01*
X170634881Y-154279001D01*
X170655423Y-154211041D01*
X170707627Y-154165805D01*
X170812690Y-154116814D01*
X170812695Y-154116811D01*
X170817677Y-154114488D01*
X170919505Y-154043187D01*
X170995270Y-153990136D01*
X170995273Y-153990134D01*
X170999781Y-153986977D01*
X171156977Y-153829781D01*
X171284488Y-153647676D01*
X171286811Y-153642694D01*
X171286814Y-153642689D01*
X171376117Y-153451178D01*
X171376118Y-153451177D01*
X171378440Y-153446196D01*
X171435978Y-153231463D01*
X171455353Y-153010000D01*
X171435978Y-152788537D01*
X171378440Y-152573804D01*
X171376117Y-152568822D01*
X171286814Y-152377311D01*
X171286811Y-152377306D01*
X171284488Y-152372324D01*
X171156977Y-152190219D01*
X170999781Y-152033023D01*
X170995273Y-152029866D01*
X170995270Y-152029864D01*
X170919505Y-151976813D01*
X170817677Y-151905512D01*
X170812695Y-151903189D01*
X170812690Y-151903186D01*
X170707627Y-151854195D01*
X170654342Y-151807278D01*
X170634881Y-151739001D01*
X170655423Y-151671041D01*
X170707627Y-151625805D01*
X170812690Y-151576814D01*
X170812695Y-151576811D01*
X170817677Y-151574488D01*
X170919505Y-151503187D01*
X170995270Y-151450136D01*
X170995273Y-151450134D01*
X170999781Y-151446977D01*
X171156977Y-151289781D01*
X171284488Y-151107676D01*
X171286811Y-151102694D01*
X171286814Y-151102689D01*
X171376117Y-150911178D01*
X171376118Y-150911177D01*
X171378440Y-150906196D01*
X171435978Y-150691463D01*
X171455353Y-150470000D01*
X171435978Y-150248537D01*
X171434554Y-150243223D01*
X171434553Y-150243216D01*
X171416435Y-150175601D01*
X171418124Y-150104625D01*
X171457917Y-150045829D01*
X171523181Y-150017880D01*
X171538141Y-150016989D01*
X194047744Y-150016989D01*
X194058927Y-150017516D01*
X194066420Y-150019191D01*
X194074346Y-150018942D01*
X194074347Y-150018942D01*
X194134497Y-150017051D01*
X194138456Y-150016989D01*
X194166367Y-150016989D01*
X194170302Y-150016492D01*
X194170367Y-150016484D01*
X194182204Y-150015551D01*
X194212301Y-150014605D01*
X194218609Y-150014407D01*
X194287324Y-150032259D01*
X194335480Y-150084428D01*
X194347786Y-150154350D01*
X194344274Y-150172956D01*
X194324022Y-150248537D01*
X194304647Y-150470000D01*
X194324022Y-150691463D01*
X194381560Y-150906196D01*
X194383882Y-150911177D01*
X194383883Y-150911178D01*
X194473186Y-151102689D01*
X194473189Y-151102694D01*
X194475512Y-151107676D01*
X194603023Y-151289781D01*
X194760219Y-151446977D01*
X194764727Y-151450134D01*
X194764730Y-151450136D01*
X194840495Y-151503187D01*
X194942323Y-151574488D01*
X194947305Y-151576811D01*
X194947310Y-151576814D01*
X195052373Y-151625805D01*
X195105658Y-151672722D01*
X195125119Y-151740999D01*
X195104577Y-151808959D01*
X195052373Y-151854195D01*
X194947311Y-151903186D01*
X194947306Y-151903189D01*
X194942324Y-151905512D01*
X194937817Y-151908668D01*
X194937815Y-151908669D01*
X194764730Y-152029864D01*
X194764727Y-152029866D01*
X194760219Y-152033023D01*
X194603023Y-152190219D01*
X194475512Y-152372324D01*
X194473189Y-152377306D01*
X194473186Y-152377311D01*
X194383883Y-152568822D01*
X194381560Y-152573804D01*
X194324022Y-152788537D01*
X194304647Y-153010000D01*
X194324022Y-153231463D01*
X194381560Y-153446196D01*
X194383882Y-153451177D01*
X194383883Y-153451178D01*
X194473186Y-153642689D01*
X194473189Y-153642694D01*
X194475512Y-153647676D01*
X194603023Y-153829781D01*
X194760219Y-153986977D01*
X194764727Y-153990134D01*
X194764730Y-153990136D01*
X194840495Y-154043187D01*
X194942323Y-154114488D01*
X194947305Y-154116811D01*
X194947310Y-154116814D01*
X195052373Y-154165805D01*
X195105658Y-154212722D01*
X195125119Y-154280999D01*
X195104577Y-154348959D01*
X195052373Y-154394195D01*
X194947311Y-154443186D01*
X194947306Y-154443189D01*
X194942324Y-154445512D01*
X194937817Y-154448668D01*
X194937815Y-154448669D01*
X194764730Y-154569864D01*
X194764727Y-154569866D01*
X194760219Y-154573023D01*
X194603023Y-154730219D01*
X194475512Y-154912324D01*
X194473189Y-154917306D01*
X194473186Y-154917311D01*
X194383883Y-155108822D01*
X194381560Y-155113804D01*
X194324022Y-155328537D01*
X194304647Y-155550000D01*
X194324022Y-155771463D01*
X194381560Y-155986196D01*
X194383882Y-155991177D01*
X194383883Y-155991178D01*
X194473186Y-156182689D01*
X194473189Y-156182694D01*
X194475512Y-156187676D01*
X194603023Y-156369781D01*
X194760219Y-156526977D01*
X194764727Y-156530134D01*
X194764730Y-156530136D01*
X194840495Y-156583187D01*
X194942323Y-156654488D01*
X194947305Y-156656811D01*
X194947310Y-156656814D01*
X195052373Y-156705805D01*
X195105658Y-156752722D01*
X195125119Y-156820999D01*
X195104577Y-156888959D01*
X195052373Y-156934195D01*
X194947311Y-156983186D01*
X194947306Y-156983189D01*
X194942324Y-156985512D01*
X194937817Y-156988668D01*
X194937815Y-156988669D01*
X194764730Y-157109864D01*
X194764727Y-157109866D01*
X194760219Y-157113023D01*
X194603023Y-157270219D01*
X194475512Y-157452324D01*
X194473189Y-157457306D01*
X194473186Y-157457311D01*
X194383883Y-157648822D01*
X194381560Y-157653804D01*
X194324022Y-157868537D01*
X194304647Y-158090000D01*
X194324022Y-158311463D01*
X194381560Y-158526196D01*
X194383882Y-158531177D01*
X194383883Y-158531178D01*
X194473186Y-158722689D01*
X194473189Y-158722694D01*
X194475512Y-158727676D01*
X194603023Y-158909781D01*
X194760219Y-159066977D01*
X194764727Y-159070134D01*
X194764730Y-159070136D01*
X194840495Y-159123187D01*
X194942323Y-159194488D01*
X194947305Y-159196811D01*
X194947310Y-159196814D01*
X195052965Y-159246081D01*
X195106250Y-159292998D01*
X195125711Y-159361275D01*
X195105169Y-159429235D01*
X195052965Y-159474471D01*
X194947559Y-159523623D01*
X194938068Y-159529103D01*
X194894235Y-159559794D01*
X194885860Y-159570271D01*
X194892928Y-159583718D01*
X195567188Y-160257978D01*
X195581132Y-160265592D01*
X195582965Y-160265461D01*
X195589580Y-160261210D01*
X196267793Y-159582997D01*
X196274223Y-159571223D01*
X196264926Y-159559207D01*
X196221931Y-159529102D01*
X196212445Y-159523624D01*
X196107035Y-159474471D01*
X196053750Y-159427554D01*
X196034289Y-159359277D01*
X196054831Y-159291317D01*
X196107035Y-159246081D01*
X196212690Y-159196814D01*
X196212695Y-159196811D01*
X196217677Y-159194488D01*
X196319505Y-159123187D01*
X196395270Y-159070136D01*
X196395273Y-159070134D01*
X196399781Y-159066977D01*
X196556977Y-158909781D01*
X196684488Y-158727676D01*
X196686811Y-158722694D01*
X196686814Y-158722689D01*
X196776117Y-158531178D01*
X196776118Y-158531177D01*
X196778440Y-158526196D01*
X196835978Y-158311463D01*
X196855353Y-158090000D01*
X196835978Y-157868537D01*
X196778440Y-157653804D01*
X196776117Y-157648822D01*
X196686814Y-157457311D01*
X196686811Y-157457306D01*
X196684488Y-157452324D01*
X196556977Y-157270219D01*
X196399781Y-157113023D01*
X196395273Y-157109866D01*
X196395270Y-157109864D01*
X196319505Y-157056813D01*
X196217677Y-156985512D01*
X196212695Y-156983189D01*
X196212690Y-156983186D01*
X196107627Y-156934195D01*
X196054342Y-156887278D01*
X196034881Y-156819001D01*
X196055423Y-156751041D01*
X196107627Y-156705805D01*
X196212690Y-156656814D01*
X196212695Y-156656811D01*
X196217677Y-156654488D01*
X196319505Y-156583187D01*
X196395270Y-156530136D01*
X196395273Y-156530134D01*
X196399781Y-156526977D01*
X196556977Y-156369781D01*
X196684488Y-156187676D01*
X196686811Y-156182694D01*
X196686814Y-156182689D01*
X196776117Y-155991178D01*
X196776118Y-155991177D01*
X196778440Y-155986196D01*
X196835978Y-155771463D01*
X196855353Y-155550000D01*
X196835978Y-155328537D01*
X196778440Y-155113804D01*
X196776117Y-155108822D01*
X196686814Y-154917311D01*
X196686811Y-154917306D01*
X196684488Y-154912324D01*
X196556977Y-154730219D01*
X196399781Y-154573023D01*
X196395273Y-154569866D01*
X196395270Y-154569864D01*
X196319505Y-154516813D01*
X196217677Y-154445512D01*
X196212695Y-154443189D01*
X196212690Y-154443186D01*
X196107627Y-154394195D01*
X196054342Y-154347278D01*
X196034881Y-154279001D01*
X196055423Y-154211041D01*
X196107627Y-154165805D01*
X196212690Y-154116814D01*
X196212695Y-154116811D01*
X196217677Y-154114488D01*
X196319505Y-154043187D01*
X196395270Y-153990136D01*
X196395273Y-153990134D01*
X196399781Y-153986977D01*
X196556977Y-153829781D01*
X196684488Y-153647676D01*
X196686811Y-153642694D01*
X196686814Y-153642689D01*
X196776117Y-153451178D01*
X196776118Y-153451177D01*
X196778440Y-153446196D01*
X196835978Y-153231463D01*
X196855353Y-153010000D01*
X196835978Y-152788537D01*
X196778440Y-152573804D01*
X196776117Y-152568822D01*
X196686814Y-152377311D01*
X196686811Y-152377306D01*
X196684488Y-152372324D01*
X196556977Y-152190219D01*
X196399781Y-152033023D01*
X196395273Y-152029866D01*
X196395270Y-152029864D01*
X196319505Y-151976813D01*
X196217677Y-151905512D01*
X196212695Y-151903189D01*
X196212690Y-151903186D01*
X196107627Y-151854195D01*
X196054342Y-151807278D01*
X196034881Y-151739001D01*
X196055423Y-151671041D01*
X196107627Y-151625805D01*
X196212690Y-151576814D01*
X196212695Y-151576811D01*
X196217677Y-151574488D01*
X196319505Y-151503187D01*
X196395270Y-151450136D01*
X196395273Y-151450134D01*
X196399781Y-151446977D01*
X196556977Y-151289781D01*
X196684488Y-151107676D01*
X196686811Y-151102694D01*
X196686814Y-151102689D01*
X196776117Y-150911178D01*
X196776118Y-150911177D01*
X196778440Y-150906196D01*
X196835978Y-150691463D01*
X196855353Y-150470000D01*
X196835978Y-150248537D01*
X196778440Y-150033804D01*
X196771510Y-150018942D01*
X196686814Y-149837311D01*
X196686811Y-149837306D01*
X196684488Y-149832324D01*
X196556977Y-149650219D01*
X196399781Y-149493023D01*
X196395273Y-149489866D01*
X196395270Y-149489864D01*
X196319505Y-149436813D01*
X196217677Y-149365512D01*
X196212695Y-149363189D01*
X196212690Y-149363186D01*
X196107627Y-149314195D01*
X196054342Y-149267278D01*
X196034881Y-149199001D01*
X196055423Y-149131041D01*
X196107627Y-149085805D01*
X196212690Y-149036814D01*
X196212695Y-149036811D01*
X196217677Y-149034488D01*
X196319505Y-148963187D01*
X196395270Y-148910136D01*
X196395273Y-148910134D01*
X196399781Y-148906977D01*
X196556977Y-148749781D01*
X196582673Y-148713084D01*
X196681331Y-148572185D01*
X196681332Y-148572183D01*
X196684488Y-148567676D01*
X196686811Y-148562694D01*
X196686814Y-148562689D01*
X196776117Y-148371178D01*
X196776118Y-148371177D01*
X196778440Y-148366196D01*
X196835978Y-148151463D01*
X196855353Y-147930000D01*
X196835978Y-147708537D01*
X196778440Y-147493804D01*
X196695891Y-147316777D01*
X196686814Y-147297311D01*
X196686811Y-147297306D01*
X196684488Y-147292324D01*
X196590100Y-147157523D01*
X196560136Y-147114730D01*
X196560134Y-147114727D01*
X196556977Y-147110219D01*
X196399781Y-146953023D01*
X196395273Y-146949866D01*
X196395270Y-146949864D01*
X196305983Y-146887345D01*
X196217677Y-146825512D01*
X196212695Y-146823189D01*
X196212690Y-146823186D01*
X196107627Y-146774195D01*
X196054342Y-146727278D01*
X196034881Y-146659001D01*
X196055423Y-146591041D01*
X196107627Y-146545805D01*
X196212690Y-146496814D01*
X196212695Y-146496811D01*
X196217677Y-146494488D01*
X196319505Y-146423187D01*
X196395270Y-146370136D01*
X196395273Y-146370134D01*
X196399781Y-146366977D01*
X196556977Y-146209781D01*
X196684488Y-146027676D01*
X196686811Y-146022694D01*
X196686814Y-146022689D01*
X196776117Y-145831178D01*
X196776118Y-145831177D01*
X196778440Y-145826196D01*
X196835978Y-145611463D01*
X196855353Y-145390000D01*
X196835978Y-145168537D01*
X196778440Y-144953804D01*
X196706327Y-144799157D01*
X196686814Y-144757311D01*
X196686811Y-144757306D01*
X196684488Y-144752324D01*
X196679935Y-144745822D01*
X196560136Y-144574730D01*
X196560134Y-144574727D01*
X196556977Y-144570219D01*
X196399781Y-144413023D01*
X196395273Y-144409866D01*
X196395270Y-144409864D01*
X196260724Y-144315654D01*
X196217677Y-144285512D01*
X196212695Y-144283189D01*
X196212690Y-144283186D01*
X196107627Y-144234195D01*
X196054342Y-144187278D01*
X196034881Y-144119001D01*
X196055423Y-144051041D01*
X196107627Y-144005805D01*
X196212690Y-143956814D01*
X196212695Y-143956811D01*
X196217677Y-143954488D01*
X196319505Y-143883187D01*
X196395270Y-143830136D01*
X196395273Y-143830134D01*
X196399781Y-143826977D01*
X196556977Y-143669781D01*
X196684488Y-143487676D01*
X196686811Y-143482694D01*
X196686814Y-143482689D01*
X196776117Y-143291178D01*
X196776118Y-143291177D01*
X196778440Y-143286196D01*
X196835978Y-143071463D01*
X196855353Y-142850000D01*
X196835978Y-142628537D01*
X196778440Y-142413804D01*
X196776117Y-142408822D01*
X196686814Y-142217311D01*
X196686811Y-142217306D01*
X196684488Y-142212324D01*
X196556977Y-142030219D01*
X196399781Y-141873023D01*
X196395273Y-141869866D01*
X196395270Y-141869864D01*
X196319505Y-141816813D01*
X196217677Y-141745512D01*
X196212695Y-141743189D01*
X196212690Y-141743186D01*
X196107627Y-141694195D01*
X196054342Y-141647278D01*
X196034881Y-141579001D01*
X196055423Y-141511041D01*
X196107627Y-141465805D01*
X196212690Y-141416814D01*
X196212695Y-141416811D01*
X196217677Y-141414488D01*
X196319505Y-141343187D01*
X196395270Y-141290136D01*
X196395273Y-141290134D01*
X196399781Y-141286977D01*
X196556977Y-141129781D01*
X196684488Y-140947676D01*
X196686811Y-140942694D01*
X196686814Y-140942689D01*
X196776117Y-140751178D01*
X196776118Y-140751177D01*
X196778440Y-140746196D01*
X196835978Y-140531463D01*
X196855353Y-140310000D01*
X196835978Y-140088537D01*
X196778440Y-139873804D01*
X196776117Y-139868822D01*
X196686814Y-139677311D01*
X196686811Y-139677306D01*
X196684488Y-139672324D01*
X196556977Y-139490219D01*
X196399781Y-139333023D01*
X196395273Y-139329866D01*
X196395270Y-139329864D01*
X196319505Y-139276813D01*
X196217677Y-139205512D01*
X196212695Y-139203189D01*
X196212690Y-139203186D01*
X196107627Y-139154195D01*
X196054342Y-139107278D01*
X196034881Y-139039001D01*
X196055423Y-138971041D01*
X196107627Y-138925805D01*
X196212690Y-138876814D01*
X196212695Y-138876811D01*
X196217677Y-138874488D01*
X196319505Y-138803187D01*
X196395270Y-138750136D01*
X196395273Y-138750134D01*
X196399781Y-138746977D01*
X196556977Y-138589781D01*
X196684488Y-138407676D01*
X196686811Y-138402694D01*
X196686814Y-138402689D01*
X196776117Y-138211178D01*
X196776118Y-138211177D01*
X196778440Y-138206196D01*
X196835978Y-137991463D01*
X196855353Y-137770000D01*
X196835978Y-137548537D01*
X196778440Y-137333804D01*
X196776117Y-137328822D01*
X196686814Y-137137311D01*
X196686811Y-137137306D01*
X196684488Y-137132324D01*
X196556977Y-136950219D01*
X196399781Y-136793023D01*
X196395273Y-136789866D01*
X196395270Y-136789864D01*
X196319505Y-136736813D01*
X196217677Y-136665512D01*
X196212695Y-136663189D01*
X196212690Y-136663186D01*
X196107627Y-136614195D01*
X196054342Y-136567278D01*
X196034881Y-136499001D01*
X196055423Y-136431041D01*
X196107627Y-136385805D01*
X196212690Y-136336814D01*
X196212695Y-136336811D01*
X196217677Y-136334488D01*
X196319505Y-136263187D01*
X196395270Y-136210136D01*
X196395273Y-136210134D01*
X196399781Y-136206977D01*
X196556977Y-136049781D01*
X196684488Y-135867676D01*
X196686811Y-135862694D01*
X196686814Y-135862689D01*
X196776117Y-135671178D01*
X196776118Y-135671177D01*
X196778440Y-135666196D01*
X196835978Y-135451463D01*
X196855353Y-135230000D01*
X196835978Y-135008537D01*
X196778440Y-134793804D01*
X196776117Y-134788822D01*
X196686814Y-134597311D01*
X196686811Y-134597306D01*
X196684488Y-134592324D01*
X196556977Y-134410219D01*
X196399781Y-134253023D01*
X196395273Y-134249866D01*
X196395270Y-134249864D01*
X196319505Y-134196813D01*
X196217677Y-134125512D01*
X196212695Y-134123189D01*
X196212690Y-134123186D01*
X196107627Y-134074195D01*
X196054342Y-134027278D01*
X196034881Y-133959001D01*
X196055423Y-133891041D01*
X196107627Y-133845805D01*
X196212690Y-133796814D01*
X196212695Y-133796811D01*
X196217677Y-133794488D01*
X196319505Y-133723187D01*
X196395270Y-133670136D01*
X196395273Y-133670134D01*
X196399781Y-133666977D01*
X196556977Y-133509781D01*
X196684488Y-133327676D01*
X196686811Y-133322694D01*
X196686814Y-133322689D01*
X196776117Y-133131178D01*
X196776118Y-133131177D01*
X196778440Y-133126196D01*
X196835978Y-132911463D01*
X196855353Y-132690000D01*
X196835978Y-132468537D01*
X196778440Y-132253804D01*
X196776117Y-132248822D01*
X196686814Y-132057311D01*
X196686811Y-132057306D01*
X196684488Y-132052324D01*
X196556977Y-131870219D01*
X196399781Y-131713023D01*
X196395273Y-131709866D01*
X196395270Y-131709864D01*
X196319505Y-131656813D01*
X196217677Y-131585512D01*
X196212695Y-131583189D01*
X196212690Y-131583186D01*
X196107627Y-131534195D01*
X196054342Y-131487278D01*
X196034881Y-131419001D01*
X196055423Y-131351041D01*
X196107627Y-131305805D01*
X196212690Y-131256814D01*
X196212695Y-131256811D01*
X196217677Y-131254488D01*
X196319505Y-131183187D01*
X196395270Y-131130136D01*
X196395273Y-131130134D01*
X196399781Y-131126977D01*
X196556977Y-130969781D01*
X196684488Y-130787676D01*
X196686811Y-130782694D01*
X196686814Y-130782689D01*
X196776117Y-130591178D01*
X196776118Y-130591177D01*
X196778440Y-130586196D01*
X196835978Y-130371463D01*
X196855353Y-130150000D01*
X196835978Y-129928537D01*
X196778440Y-129713804D01*
X196776117Y-129708822D01*
X196686814Y-129517311D01*
X196686811Y-129517306D01*
X196684488Y-129512324D01*
X196556977Y-129330219D01*
X196399781Y-129173023D01*
X196395273Y-129169866D01*
X196395270Y-129169864D01*
X196319505Y-129116813D01*
X196217677Y-129045512D01*
X196212695Y-129043189D01*
X196212690Y-129043186D01*
X196107627Y-128994195D01*
X196054342Y-128947278D01*
X196034881Y-128879001D01*
X196055423Y-128811041D01*
X196107627Y-128765805D01*
X196212690Y-128716814D01*
X196212695Y-128716811D01*
X196217677Y-128714488D01*
X196319505Y-128643187D01*
X196395270Y-128590136D01*
X196395273Y-128590134D01*
X196399781Y-128586977D01*
X196556977Y-128429781D01*
X196684488Y-128247676D01*
X196686811Y-128242694D01*
X196686814Y-128242689D01*
X196776117Y-128051178D01*
X196776118Y-128051177D01*
X196778440Y-128046196D01*
X196835978Y-127831463D01*
X196855353Y-127610000D01*
X196835978Y-127388537D01*
X196778440Y-127173804D01*
X196776117Y-127168822D01*
X196686814Y-126977311D01*
X196686811Y-126977306D01*
X196684488Y-126972324D01*
X196556977Y-126790219D01*
X196399781Y-126633023D01*
X196395273Y-126629866D01*
X196395270Y-126629864D01*
X196319505Y-126576813D01*
X196217677Y-126505512D01*
X196212695Y-126503189D01*
X196212690Y-126503186D01*
X196021178Y-126413883D01*
X196021177Y-126413882D01*
X196016196Y-126411560D01*
X196010888Y-126410138D01*
X196010886Y-126410137D01*
X195945051Y-126392497D01*
X195801463Y-126354022D01*
X195580000Y-126334647D01*
X195358537Y-126354022D01*
X195214949Y-126392497D01*
X195149114Y-126410137D01*
X195149112Y-126410138D01*
X195143804Y-126411560D01*
X195138823Y-126413882D01*
X195138822Y-126413883D01*
X194947311Y-126503186D01*
X194947306Y-126503189D01*
X194942324Y-126505512D01*
X194937817Y-126508668D01*
X194937815Y-126508669D01*
X194764730Y-126629864D01*
X194764727Y-126629866D01*
X194760219Y-126633023D01*
X194603023Y-126790219D01*
X194475512Y-126972324D01*
X194473189Y-126977306D01*
X194473186Y-126977311D01*
X194383883Y-127168822D01*
X194381560Y-127173804D01*
X194324022Y-127388537D01*
X194304647Y-127610000D01*
X194324022Y-127831463D01*
X194381560Y-128046196D01*
X194383882Y-128051177D01*
X194383883Y-128051178D01*
X194473186Y-128242689D01*
X194473189Y-128242694D01*
X194475512Y-128247676D01*
X194603023Y-128429781D01*
X194760219Y-128586977D01*
X194764727Y-128590134D01*
X194764730Y-128590136D01*
X194840495Y-128643187D01*
X194942323Y-128714488D01*
X194947305Y-128716811D01*
X194947310Y-128716814D01*
X195052373Y-128765805D01*
X195105658Y-128812722D01*
X195125119Y-128880999D01*
X195104577Y-128948959D01*
X195052373Y-128994195D01*
X194947311Y-129043186D01*
X194947306Y-129043189D01*
X194942324Y-129045512D01*
X194937817Y-129048668D01*
X194937815Y-129048669D01*
X194764730Y-129169864D01*
X194764727Y-129169866D01*
X194760219Y-129173023D01*
X194603023Y-129330219D01*
X194475512Y-129512324D01*
X194473189Y-129517306D01*
X194473186Y-129517311D01*
X194383883Y-129708822D01*
X194381560Y-129713804D01*
X194324022Y-129928537D01*
X194304647Y-130150000D01*
X194324022Y-130371463D01*
X194381560Y-130586196D01*
X194383882Y-130591177D01*
X194383883Y-130591178D01*
X194473186Y-130782689D01*
X194473189Y-130782694D01*
X194475512Y-130787676D01*
X194603023Y-130969781D01*
X194760219Y-131126977D01*
X194764727Y-131130134D01*
X194764730Y-131130136D01*
X194840495Y-131183187D01*
X194942323Y-131254488D01*
X194947305Y-131256811D01*
X194947310Y-131256814D01*
X195052373Y-131305805D01*
X195105658Y-131352722D01*
X195125119Y-131420999D01*
X195104577Y-131488959D01*
X195052373Y-131534195D01*
X194947311Y-131583186D01*
X194947306Y-131583189D01*
X194942324Y-131585512D01*
X194937817Y-131588668D01*
X194937815Y-131588669D01*
X194764730Y-131709864D01*
X194764727Y-131709866D01*
X194760219Y-131713023D01*
X194603023Y-131870219D01*
X194475512Y-132052324D01*
X194473189Y-132057306D01*
X194473186Y-132057311D01*
X194383883Y-132248822D01*
X194381560Y-132253804D01*
X194324022Y-132468537D01*
X194304647Y-132690000D01*
X194324022Y-132911463D01*
X194381560Y-133126196D01*
X194383882Y-133131177D01*
X194383883Y-133131178D01*
X194473186Y-133322689D01*
X194473189Y-133322694D01*
X194475512Y-133327676D01*
X194603023Y-133509781D01*
X194760219Y-133666977D01*
X194764727Y-133670134D01*
X194764730Y-133670136D01*
X194840495Y-133723187D01*
X194942323Y-133794488D01*
X194947305Y-133796811D01*
X194947310Y-133796814D01*
X195052373Y-133845805D01*
X195105658Y-133892722D01*
X195125119Y-133960999D01*
X195104577Y-134028959D01*
X195052373Y-134074195D01*
X194947311Y-134123186D01*
X194947306Y-134123189D01*
X194942324Y-134125512D01*
X194937817Y-134128668D01*
X194937815Y-134128669D01*
X194764730Y-134249864D01*
X194764727Y-134249866D01*
X194760219Y-134253023D01*
X194603023Y-134410219D01*
X194475512Y-134592324D01*
X194473189Y-134597306D01*
X194473186Y-134597311D01*
X194383883Y-134788822D01*
X194381560Y-134793804D01*
X194324022Y-135008537D01*
X194304647Y-135230000D01*
X194324022Y-135451463D01*
X194381560Y-135666196D01*
X194383882Y-135671177D01*
X194383883Y-135671178D01*
X194473186Y-135862689D01*
X194473189Y-135862694D01*
X194475512Y-135867676D01*
X194603023Y-136049781D01*
X194760219Y-136206977D01*
X194764727Y-136210134D01*
X194764730Y-136210136D01*
X194840495Y-136263187D01*
X194942323Y-136334488D01*
X194947305Y-136336811D01*
X194947310Y-136336814D01*
X195052373Y-136385805D01*
X195105658Y-136432722D01*
X195125119Y-136500999D01*
X195104577Y-136568959D01*
X195052373Y-136614195D01*
X194947311Y-136663186D01*
X194947306Y-136663189D01*
X194942324Y-136665512D01*
X194937817Y-136668668D01*
X194937815Y-136668669D01*
X194764730Y-136789864D01*
X194764727Y-136789866D01*
X194760219Y-136793023D01*
X194603023Y-136950219D01*
X194475512Y-137132324D01*
X194473189Y-137137306D01*
X194473186Y-137137311D01*
X194383883Y-137328822D01*
X194381560Y-137333804D01*
X194324022Y-137548537D01*
X194304647Y-137770000D01*
X194324022Y-137991463D01*
X194381560Y-138206196D01*
X194383882Y-138211177D01*
X194383883Y-138211178D01*
X194473186Y-138402689D01*
X194473189Y-138402694D01*
X194475512Y-138407676D01*
X194603023Y-138589781D01*
X194760219Y-138746977D01*
X194764727Y-138750134D01*
X194764730Y-138750136D01*
X194840495Y-138803187D01*
X194942323Y-138874488D01*
X194947305Y-138876811D01*
X194947310Y-138876814D01*
X195052373Y-138925805D01*
X195105658Y-138972722D01*
X195125119Y-139040999D01*
X195104577Y-139108959D01*
X195052373Y-139154195D01*
X194947311Y-139203186D01*
X194947306Y-139203189D01*
X194942324Y-139205512D01*
X194937817Y-139208668D01*
X194937815Y-139208669D01*
X194764730Y-139329864D01*
X194764727Y-139329866D01*
X194760219Y-139333023D01*
X194603023Y-139490219D01*
X194475512Y-139672324D01*
X194473189Y-139677306D01*
X194473186Y-139677311D01*
X194383883Y-139868822D01*
X194381560Y-139873804D01*
X194324022Y-140088537D01*
X194304647Y-140310000D01*
X194324022Y-140531463D01*
X194381560Y-140746196D01*
X194383882Y-140751177D01*
X194383883Y-140751178D01*
X194473186Y-140942689D01*
X194473189Y-140942694D01*
X194475512Y-140947676D01*
X194603023Y-141129781D01*
X194760219Y-141286977D01*
X194764727Y-141290134D01*
X194764730Y-141290136D01*
X194840495Y-141343187D01*
X194942323Y-141414488D01*
X194947305Y-141416811D01*
X194947310Y-141416814D01*
X195052373Y-141465805D01*
X195105658Y-141512722D01*
X195125119Y-141580999D01*
X195104577Y-141648959D01*
X195052373Y-141694195D01*
X194947311Y-141743186D01*
X194947306Y-141743189D01*
X194942324Y-141745512D01*
X194937817Y-141748668D01*
X194937815Y-141748669D01*
X194764730Y-141869864D01*
X194764727Y-141869866D01*
X194760219Y-141873023D01*
X194603023Y-142030219D01*
X194475512Y-142212324D01*
X194473189Y-142217306D01*
X194473186Y-142217311D01*
X194383883Y-142408822D01*
X194381560Y-142413804D01*
X194324022Y-142628537D01*
X194304647Y-142850000D01*
X194324022Y-143071463D01*
X194381560Y-143286196D01*
X194383882Y-143291177D01*
X194383883Y-143291178D01*
X194473186Y-143482689D01*
X194473189Y-143482694D01*
X194475512Y-143487676D01*
X194603023Y-143669781D01*
X194760219Y-143826977D01*
X194764727Y-143830134D01*
X194764730Y-143830136D01*
X194840495Y-143883187D01*
X194942323Y-143954488D01*
X194947305Y-143956811D01*
X194947310Y-143956814D01*
X195052373Y-144005805D01*
X195105658Y-144052722D01*
X195125119Y-144120999D01*
X195104577Y-144188959D01*
X195052373Y-144234195D01*
X194947311Y-144283186D01*
X194947306Y-144283189D01*
X194942324Y-144285512D01*
X194937817Y-144288668D01*
X194937815Y-144288669D01*
X194764730Y-144409864D01*
X194764727Y-144409866D01*
X194760219Y-144413023D01*
X194603023Y-144570219D01*
X194599866Y-144574727D01*
X194599864Y-144574730D01*
X194480065Y-144745822D01*
X194475512Y-144752324D01*
X194473189Y-144757306D01*
X194473186Y-144757311D01*
X194453673Y-144799157D01*
X194381560Y-144953804D01*
X194324022Y-145168537D01*
X194304647Y-145390000D01*
X194324022Y-145611463D01*
X194381560Y-145826196D01*
X194383882Y-145831177D01*
X194383883Y-145831178D01*
X194473186Y-146022689D01*
X194473189Y-146022694D01*
X194475512Y-146027676D01*
X194603023Y-146209781D01*
X194760219Y-146366977D01*
X194764727Y-146370134D01*
X194764730Y-146370136D01*
X194840495Y-146423187D01*
X194942323Y-146494488D01*
X194947305Y-146496811D01*
X194947310Y-146496814D01*
X195052373Y-146545805D01*
X195105658Y-146592722D01*
X195125119Y-146660999D01*
X195104577Y-146728959D01*
X195052373Y-146774195D01*
X194947311Y-146823186D01*
X194947306Y-146823189D01*
X194942324Y-146825512D01*
X194937817Y-146828668D01*
X194937815Y-146828669D01*
X194764730Y-146949864D01*
X194764727Y-146949866D01*
X194760219Y-146953023D01*
X194603023Y-147110219D01*
X194599866Y-147114727D01*
X194599864Y-147114730D01*
X194569900Y-147157523D01*
X194475512Y-147292324D01*
X194473189Y-147297306D01*
X194473186Y-147297311D01*
X194464109Y-147316777D01*
X194381560Y-147493804D01*
X194324022Y-147708537D01*
X194304647Y-147930000D01*
X194324022Y-148151463D01*
X194325446Y-148156776D01*
X194325447Y-148156783D01*
X194334485Y-148190514D01*
X194332796Y-148261490D01*
X194301874Y-148312221D01*
X193901011Y-148713084D01*
X193838699Y-148747110D01*
X193811916Y-148749989D01*
X171396915Y-148749989D01*
X171328794Y-148729987D01*
X171282301Y-148676331D01*
X171272197Y-148606057D01*
X171285341Y-148568074D01*
X171284488Y-148567676D01*
X171376117Y-148371178D01*
X171376118Y-148371177D01*
X171378440Y-148366196D01*
X171435978Y-148151463D01*
X171455353Y-147930000D01*
X171435978Y-147708537D01*
X171378440Y-147493804D01*
X171295891Y-147316777D01*
X171286814Y-147297311D01*
X171286811Y-147297306D01*
X171284488Y-147292324D01*
X171190100Y-147157523D01*
X171160136Y-147114730D01*
X171160134Y-147114727D01*
X171156977Y-147110219D01*
X170999781Y-146953023D01*
X170995273Y-146949866D01*
X170995270Y-146949864D01*
X170905983Y-146887345D01*
X170817677Y-146825512D01*
X170812695Y-146823189D01*
X170812690Y-146823186D01*
X170707627Y-146774195D01*
X170654342Y-146727278D01*
X170634881Y-146659001D01*
X170655423Y-146591041D01*
X170707627Y-146545805D01*
X170812690Y-146496814D01*
X170812695Y-146496811D01*
X170817677Y-146494488D01*
X170919505Y-146423187D01*
X170995270Y-146370136D01*
X170995273Y-146370134D01*
X170999781Y-146366977D01*
X171156977Y-146209781D01*
X171284488Y-146027676D01*
X171286811Y-146022694D01*
X171286814Y-146022689D01*
X171376117Y-145831178D01*
X171376118Y-145831177D01*
X171378440Y-145826196D01*
X171435978Y-145611463D01*
X171455353Y-145390000D01*
X171435978Y-145168537D01*
X171425514Y-145129484D01*
X171427204Y-145058507D01*
X171458126Y-145007778D01*
X171658758Y-144807146D01*
X171667048Y-144799602D01*
X171673529Y-144795489D01*
X171720170Y-144745821D01*
X171722924Y-144742980D01*
X171742646Y-144723258D01*
X171745123Y-144720065D01*
X171752828Y-144711044D01*
X171777670Y-144684589D01*
X171783097Y-144678810D01*
X171786918Y-144671860D01*
X171792857Y-144661057D01*
X171803713Y-144644530D01*
X171811268Y-144634791D01*
X171811269Y-144634789D01*
X171816125Y-144628529D01*
X171833685Y-144587949D01*
X171838902Y-144577301D01*
X171856386Y-144545498D01*
X171856387Y-144545496D01*
X171860206Y-144538549D01*
X171865244Y-144518926D01*
X171871648Y-144500223D01*
X171876544Y-144488909D01*
X171876544Y-144488908D01*
X171879692Y-144481634D01*
X171880931Y-144473811D01*
X171880934Y-144473801D01*
X171886610Y-144437965D01*
X171889016Y-144426345D01*
X171898039Y-144391200D01*
X171898039Y-144391199D01*
X171900011Y-144383519D01*
X171900011Y-144363265D01*
X171901562Y-144343554D01*
X171903491Y-144331375D01*
X171904731Y-144323546D01*
X171900570Y-144279527D01*
X171900011Y-144267670D01*
X171900011Y-109115279D01*
X171900538Y-109104096D01*
X171902213Y-109096603D01*
X171900073Y-109028512D01*
X171900011Y-109024555D01*
X171900011Y-108996655D01*
X171899507Y-108992664D01*
X171898574Y-108980822D01*
X171897434Y-108944547D01*
X171897185Y-108936622D01*
X171891532Y-108917163D01*
X171887523Y-108897804D01*
X171887357Y-108896494D01*
X171884985Y-108877714D01*
X171882069Y-108870348D01*
X171882067Y-108870342D01*
X171868711Y-108836609D01*
X171864866Y-108825379D01*
X171854741Y-108790528D01*
X171854741Y-108790527D01*
X171852530Y-108782918D01*
X171842216Y-108765477D01*
X171833519Y-108747724D01*
X171828983Y-108736269D01*
X171826063Y-108728894D01*
X171800074Y-108693123D01*
X171793558Y-108683203D01*
X171775089Y-108651974D01*
X171771053Y-108645149D01*
X171756732Y-108630828D01*
X171743891Y-108615794D01*
X171736642Y-108605817D01*
X171731983Y-108599404D01*
X171697906Y-108571213D01*
X171689127Y-108563223D01*
X171458126Y-108332222D01*
X171424100Y-108269910D01*
X171425514Y-108210516D01*
X171434554Y-108176777D01*
X171435978Y-108171463D01*
X171455353Y-107950000D01*
X171435978Y-107728537D01*
X171378440Y-107513804D01*
X171376117Y-107508822D01*
X171286814Y-107317311D01*
X171286811Y-107317306D01*
X171284488Y-107312324D01*
X171156977Y-107130219D01*
X170999781Y-106973023D01*
X170995273Y-106969866D01*
X170995270Y-106969864D01*
X170919505Y-106916813D01*
X170817677Y-106845512D01*
X170812695Y-106843189D01*
X170812690Y-106843186D01*
X170707627Y-106794195D01*
X170654342Y-106747278D01*
X170634881Y-106679001D01*
X170655423Y-106611041D01*
X170707627Y-106565805D01*
X170812690Y-106516814D01*
X170812695Y-106516811D01*
X170817677Y-106514488D01*
X170968615Y-106408800D01*
X170995270Y-106390136D01*
X170995273Y-106390134D01*
X170999781Y-106386977D01*
X171156977Y-106229781D01*
X171165577Y-106217500D01*
X171281331Y-106052185D01*
X171281332Y-106052183D01*
X171284488Y-106047676D01*
X171286811Y-106042694D01*
X171286814Y-106042689D01*
X171376117Y-105851178D01*
X171376118Y-105851177D01*
X171378440Y-105846196D01*
X171435978Y-105631463D01*
X171455353Y-105410000D01*
X171435978Y-105188537D01*
X171378440Y-104973804D01*
X171376117Y-104968822D01*
X171286814Y-104777311D01*
X171286811Y-104777306D01*
X171284488Y-104772324D01*
X171281331Y-104767815D01*
X171160136Y-104594730D01*
X171160134Y-104594727D01*
X171156977Y-104590219D01*
X170999781Y-104433023D01*
X170995273Y-104429866D01*
X170995270Y-104429864D01*
X170919505Y-104376813D01*
X170817677Y-104305512D01*
X170672037Y-104237599D01*
X170618753Y-104190683D01*
X170599292Y-104122406D01*
X170619834Y-104054446D01*
X170672038Y-104009210D01*
X170806217Y-103946641D01*
X170815703Y-103941163D01*
X170859536Y-103910472D01*
X170867911Y-103899994D01*
X170860843Y-103886546D01*
X170186584Y-103212287D01*
X170172640Y-103204673D01*
X170170807Y-103204804D01*
X170164192Y-103209055D01*
X169485979Y-103887268D01*
X169479549Y-103899042D01*
X169488846Y-103911058D01*
X169531841Y-103941163D01*
X169541327Y-103946641D01*
X169681734Y-104012114D01*
X169735019Y-104059032D01*
X169754480Y-104127309D01*
X169733938Y-104195269D01*
X169681734Y-104240504D01*
X169547311Y-104303186D01*
X169547306Y-104303189D01*
X169542324Y-104305512D01*
X169537817Y-104308668D01*
X169537815Y-104308669D01*
X169364730Y-104429864D01*
X169364727Y-104429866D01*
X169360219Y-104433023D01*
X169203023Y-104590219D01*
X169199866Y-104594727D01*
X169199864Y-104594730D01*
X169078669Y-104767815D01*
X169075512Y-104772324D01*
X169073189Y-104777306D01*
X169073186Y-104777311D01*
X168983883Y-104968822D01*
X168981560Y-104973804D01*
X168924022Y-105188537D01*
X168904647Y-105410000D01*
X168924022Y-105631463D01*
X168925446Y-105636776D01*
X168925447Y-105636783D01*
X168934485Y-105670514D01*
X168932796Y-105741490D01*
X168901874Y-105792221D01*
X168701236Y-105992859D01*
X168692950Y-106000399D01*
X168686471Y-106004511D01*
X168641703Y-106052185D01*
X168639846Y-106054162D01*
X168637091Y-106057004D01*
X168617354Y-106076741D01*
X168614874Y-106079938D01*
X168607171Y-106088958D01*
X168576903Y-106121190D01*
X168573084Y-106128136D01*
X168573082Y-106128139D01*
X168567141Y-106138945D01*
X168556290Y-106155464D01*
X168543875Y-106171470D01*
X168540730Y-106178739D01*
X168540727Y-106178743D01*
X168526315Y-106212048D01*
X168521098Y-106222698D01*
X168499794Y-106261451D01*
X168497823Y-106269126D01*
X168497823Y-106269127D01*
X168494756Y-106281073D01*
X168488352Y-106299777D01*
X168480308Y-106318366D01*
X168479069Y-106326189D01*
X168479066Y-106326199D01*
X168473390Y-106362035D01*
X168470984Y-106373655D01*
X168467564Y-106386977D01*
X168459989Y-106416481D01*
X168459989Y-106436735D01*
X168458438Y-106456445D01*
X168455269Y-106476454D01*
X168456015Y-106484346D01*
X168459430Y-106520472D01*
X168459989Y-106532330D01*
X168459989Y-146764722D01*
X168459462Y-146775905D01*
X168457787Y-146783398D01*
X168458036Y-146791324D01*
X168458036Y-146791325D01*
X168459927Y-146851475D01*
X168459989Y-146855434D01*
X168459989Y-146883345D01*
X168460486Y-146887279D01*
X168460486Y-146887280D01*
X168460494Y-146887345D01*
X168461427Y-146899182D01*
X168462816Y-146943378D01*
X168468467Y-146962828D01*
X168472476Y-146982189D01*
X168475015Y-147002286D01*
X168477934Y-147009657D01*
X168477934Y-147009659D01*
X168491293Y-147043401D01*
X168495138Y-147054631D01*
X168507471Y-147097082D01*
X168511504Y-147103901D01*
X168511506Y-147103906D01*
X168517782Y-147114517D01*
X168526477Y-147132265D01*
X168533937Y-147151106D01*
X168538599Y-147157522D01*
X168538599Y-147157523D01*
X168559925Y-147186876D01*
X168566441Y-147196796D01*
X168588947Y-147234851D01*
X168603268Y-147249172D01*
X168616108Y-147264205D01*
X168628017Y-147280596D01*
X168642194Y-147292324D01*
X168662094Y-147308787D01*
X168670873Y-147316777D01*
X168901874Y-147547778D01*
X168935900Y-147610090D01*
X168934486Y-147669484D01*
X168924022Y-147708537D01*
X168904647Y-147930000D01*
X168924022Y-148151463D01*
X168981560Y-148366196D01*
X168983882Y-148371177D01*
X168983883Y-148371178D01*
X169075512Y-148567676D01*
X169074001Y-148568381D01*
X169088942Y-148629997D01*
X169065714Y-148697087D01*
X169009902Y-148740968D01*
X168963085Y-148749989D01*
X163776915Y-148749989D01*
X163708794Y-148729987D01*
X163662301Y-148676331D01*
X163652197Y-148606057D01*
X163665341Y-148568074D01*
X163664488Y-148567676D01*
X163756117Y-148371178D01*
X163756118Y-148371177D01*
X163758440Y-148366196D01*
X163815978Y-148151463D01*
X163835353Y-147930000D01*
X163815978Y-147708537D01*
X163758440Y-147493804D01*
X163675891Y-147316777D01*
X163666814Y-147297311D01*
X163666811Y-147297306D01*
X163664488Y-147292324D01*
X163570100Y-147157523D01*
X163540136Y-147114730D01*
X163540134Y-147114727D01*
X163536977Y-147110219D01*
X163379781Y-146953023D01*
X163375273Y-146949866D01*
X163375270Y-146949864D01*
X163285983Y-146887345D01*
X163197677Y-146825512D01*
X163192695Y-146823189D01*
X163192690Y-146823186D01*
X163087627Y-146774195D01*
X163034342Y-146727278D01*
X163014881Y-146659001D01*
X163035423Y-146591041D01*
X163087627Y-146545805D01*
X163192690Y-146496814D01*
X163192695Y-146496811D01*
X163197677Y-146494488D01*
X163299505Y-146423187D01*
X163375270Y-146370136D01*
X163375273Y-146370134D01*
X163379781Y-146366977D01*
X163536977Y-146209781D01*
X163664488Y-146027676D01*
X163666811Y-146022694D01*
X163666814Y-146022689D01*
X163756117Y-145831178D01*
X163756118Y-145831177D01*
X163758440Y-145826196D01*
X163815978Y-145611463D01*
X163835353Y-145390000D01*
X163815978Y-145168537D01*
X163758440Y-144953804D01*
X163686327Y-144799157D01*
X163666814Y-144757311D01*
X163666811Y-144757306D01*
X163664488Y-144752324D01*
X163659935Y-144745822D01*
X163540136Y-144574730D01*
X163540134Y-144574727D01*
X163536977Y-144570219D01*
X163379781Y-144413023D01*
X163375273Y-144409866D01*
X163375270Y-144409864D01*
X163240724Y-144315654D01*
X163197677Y-144285512D01*
X163192695Y-144283189D01*
X163192690Y-144283186D01*
X163087627Y-144234195D01*
X163034342Y-144187278D01*
X163014881Y-144119001D01*
X163035423Y-144051041D01*
X163087627Y-144005805D01*
X163192690Y-143956814D01*
X163192695Y-143956811D01*
X163197677Y-143954488D01*
X163299505Y-143883187D01*
X163375270Y-143830136D01*
X163375273Y-143830134D01*
X163379781Y-143826977D01*
X163536977Y-143669781D01*
X163664488Y-143487676D01*
X163666811Y-143482694D01*
X163666814Y-143482689D01*
X163756117Y-143291178D01*
X163756118Y-143291177D01*
X163758440Y-143286196D01*
X163815978Y-143071463D01*
X163835353Y-142850000D01*
X163815978Y-142628537D01*
X163758440Y-142413804D01*
X163756117Y-142408822D01*
X163666814Y-142217311D01*
X163666811Y-142217306D01*
X163664488Y-142212324D01*
X163536977Y-142030219D01*
X163379781Y-141873023D01*
X163375273Y-141869866D01*
X163375270Y-141869864D01*
X163299505Y-141816813D01*
X163197677Y-141745512D01*
X163192695Y-141743189D01*
X163192690Y-141743186D01*
X163087627Y-141694195D01*
X163034342Y-141647278D01*
X163014881Y-141579001D01*
X163035423Y-141511041D01*
X163087627Y-141465805D01*
X163192690Y-141416814D01*
X163192695Y-141416811D01*
X163197677Y-141414488D01*
X163299505Y-141343187D01*
X163375270Y-141290136D01*
X163375273Y-141290134D01*
X163379781Y-141286977D01*
X163536977Y-141129781D01*
X163664488Y-140947676D01*
X163666811Y-140942694D01*
X163666814Y-140942689D01*
X163756117Y-140751178D01*
X163756118Y-140751177D01*
X163758440Y-140746196D01*
X163815978Y-140531463D01*
X163835353Y-140310000D01*
X163815978Y-140088537D01*
X163758440Y-139873804D01*
X163756117Y-139868822D01*
X163666814Y-139677311D01*
X163666811Y-139677306D01*
X163664488Y-139672324D01*
X163536977Y-139490219D01*
X163379781Y-139333023D01*
X163375273Y-139329866D01*
X163375270Y-139329864D01*
X163299505Y-139276813D01*
X163197677Y-139205512D01*
X163192695Y-139203189D01*
X163192690Y-139203186D01*
X163087627Y-139154195D01*
X163034342Y-139107278D01*
X163014881Y-139039001D01*
X163035423Y-138971041D01*
X163087627Y-138925805D01*
X163192690Y-138876814D01*
X163192695Y-138876811D01*
X163197677Y-138874488D01*
X163299505Y-138803187D01*
X163375270Y-138750136D01*
X163375273Y-138750134D01*
X163379781Y-138746977D01*
X163536977Y-138589781D01*
X163664488Y-138407676D01*
X163666811Y-138402694D01*
X163666814Y-138402689D01*
X163756117Y-138211178D01*
X163756118Y-138211177D01*
X163758440Y-138206196D01*
X163815978Y-137991463D01*
X163835353Y-137770000D01*
X163815978Y-137548537D01*
X163758440Y-137333804D01*
X163756117Y-137328822D01*
X163666814Y-137137311D01*
X163666811Y-137137306D01*
X163664488Y-137132324D01*
X163536977Y-136950219D01*
X163379781Y-136793023D01*
X163375273Y-136789866D01*
X163375270Y-136789864D01*
X163299505Y-136736813D01*
X163197677Y-136665512D01*
X163192695Y-136663189D01*
X163192690Y-136663186D01*
X163087627Y-136614195D01*
X163034342Y-136567278D01*
X163014881Y-136499001D01*
X163035423Y-136431041D01*
X163087627Y-136385805D01*
X163192690Y-136336814D01*
X163192695Y-136336811D01*
X163197677Y-136334488D01*
X163299505Y-136263187D01*
X163375270Y-136210136D01*
X163375273Y-136210134D01*
X163379781Y-136206977D01*
X163536977Y-136049781D01*
X163664488Y-135867676D01*
X163666811Y-135862694D01*
X163666814Y-135862689D01*
X163756117Y-135671178D01*
X163756118Y-135671177D01*
X163758440Y-135666196D01*
X163815978Y-135451463D01*
X163835353Y-135230000D01*
X163815978Y-135008537D01*
X163758440Y-134793804D01*
X163756117Y-134788822D01*
X163666814Y-134597311D01*
X163666811Y-134597306D01*
X163664488Y-134592324D01*
X163536977Y-134410219D01*
X163379781Y-134253023D01*
X163375273Y-134249866D01*
X163375270Y-134249864D01*
X163299505Y-134196813D01*
X163197677Y-134125512D01*
X163192695Y-134123189D01*
X163192690Y-134123186D01*
X163087627Y-134074195D01*
X163034342Y-134027278D01*
X163014881Y-133959001D01*
X163035423Y-133891041D01*
X163087627Y-133845805D01*
X163192690Y-133796814D01*
X163192695Y-133796811D01*
X163197677Y-133794488D01*
X163299505Y-133723187D01*
X163375270Y-133670136D01*
X163375273Y-133670134D01*
X163379781Y-133666977D01*
X163536977Y-133509781D01*
X163664488Y-133327676D01*
X163666811Y-133322694D01*
X163666814Y-133322689D01*
X163756117Y-133131178D01*
X163756118Y-133131177D01*
X163758440Y-133126196D01*
X163815978Y-132911463D01*
X163835353Y-132690000D01*
X163815978Y-132468537D01*
X163758440Y-132253804D01*
X163756117Y-132248822D01*
X163666814Y-132057311D01*
X163666811Y-132057306D01*
X163664488Y-132052324D01*
X163536977Y-131870219D01*
X163379781Y-131713023D01*
X163375273Y-131709866D01*
X163375270Y-131709864D01*
X163299505Y-131656813D01*
X163197677Y-131585512D01*
X163192695Y-131583189D01*
X163192690Y-131583186D01*
X163087627Y-131534195D01*
X163034342Y-131487278D01*
X163014881Y-131419001D01*
X163035423Y-131351041D01*
X163087627Y-131305805D01*
X163192690Y-131256814D01*
X163192695Y-131256811D01*
X163197677Y-131254488D01*
X163299505Y-131183187D01*
X163375270Y-131130136D01*
X163375273Y-131130134D01*
X163379781Y-131126977D01*
X163536977Y-130969781D01*
X163664488Y-130787676D01*
X163666811Y-130782694D01*
X163666814Y-130782689D01*
X163756117Y-130591178D01*
X163756118Y-130591177D01*
X163758440Y-130586196D01*
X163815978Y-130371463D01*
X163835353Y-130150000D01*
X163815978Y-129928537D01*
X163758440Y-129713804D01*
X163756117Y-129708822D01*
X163666814Y-129517311D01*
X163666811Y-129517306D01*
X163664488Y-129512324D01*
X163536977Y-129330219D01*
X163379781Y-129173023D01*
X163375273Y-129169866D01*
X163375270Y-129169864D01*
X163299505Y-129116813D01*
X163197677Y-129045512D01*
X163192695Y-129043189D01*
X163192690Y-129043186D01*
X163087627Y-128994195D01*
X163034342Y-128947278D01*
X163014881Y-128879001D01*
X163035423Y-128811041D01*
X163087627Y-128765805D01*
X163192690Y-128716814D01*
X163192695Y-128716811D01*
X163197677Y-128714488D01*
X163299505Y-128643187D01*
X163375270Y-128590136D01*
X163375273Y-128590134D01*
X163379781Y-128586977D01*
X163536977Y-128429781D01*
X163664488Y-128247676D01*
X163666811Y-128242694D01*
X163666814Y-128242689D01*
X163756117Y-128051178D01*
X163756118Y-128051177D01*
X163758440Y-128046196D01*
X163815978Y-127831463D01*
X163835353Y-127610000D01*
X163815978Y-127388537D01*
X163758440Y-127173804D01*
X163756117Y-127168822D01*
X163666814Y-126977311D01*
X163666811Y-126977306D01*
X163664488Y-126972324D01*
X163536977Y-126790219D01*
X163379781Y-126633023D01*
X163375273Y-126629866D01*
X163375270Y-126629864D01*
X163299505Y-126576813D01*
X163197677Y-126505512D01*
X163192695Y-126503189D01*
X163192690Y-126503186D01*
X163001178Y-126413883D01*
X163001177Y-126413882D01*
X162996196Y-126411560D01*
X162990888Y-126410138D01*
X162990886Y-126410137D01*
X162925051Y-126392497D01*
X162781463Y-126354022D01*
X162560000Y-126334647D01*
X162338537Y-126354022D01*
X162194949Y-126392497D01*
X162129114Y-126410137D01*
X162129112Y-126410138D01*
X162123804Y-126411560D01*
X162118823Y-126413882D01*
X162118822Y-126413883D01*
X161927311Y-126503186D01*
X161927306Y-126503189D01*
X161922324Y-126505512D01*
X161917817Y-126508668D01*
X161917815Y-126508669D01*
X161744730Y-126629864D01*
X161744727Y-126629866D01*
X161740219Y-126633023D01*
X161583023Y-126790219D01*
X161455512Y-126972324D01*
X161453189Y-126977306D01*
X161453186Y-126977311D01*
X161363883Y-127168822D01*
X161361560Y-127173804D01*
X161304022Y-127388537D01*
X161284647Y-127610000D01*
X161304022Y-127831463D01*
X161361560Y-128046196D01*
X161363882Y-128051177D01*
X161363883Y-128051178D01*
X161453186Y-128242689D01*
X161453189Y-128242694D01*
X161455512Y-128247676D01*
X161583023Y-128429781D01*
X161740219Y-128586977D01*
X161744727Y-128590134D01*
X161744730Y-128590136D01*
X161820495Y-128643187D01*
X161922323Y-128714488D01*
X161927305Y-128716811D01*
X161927310Y-128716814D01*
X162032373Y-128765805D01*
X162085658Y-128812722D01*
X162105119Y-128880999D01*
X162084577Y-128948959D01*
X162032373Y-128994195D01*
X161927311Y-129043186D01*
X161927306Y-129043189D01*
X161922324Y-129045512D01*
X161917817Y-129048668D01*
X161917815Y-129048669D01*
X161744730Y-129169864D01*
X161744727Y-129169866D01*
X161740219Y-129173023D01*
X161583023Y-129330219D01*
X161455512Y-129512324D01*
X161453189Y-129517306D01*
X161453186Y-129517311D01*
X161363883Y-129708822D01*
X161361560Y-129713804D01*
X161304022Y-129928537D01*
X161284647Y-130150000D01*
X161304022Y-130371463D01*
X161361560Y-130586196D01*
X161363882Y-130591177D01*
X161363883Y-130591178D01*
X161453186Y-130782689D01*
X161453189Y-130782694D01*
X161455512Y-130787676D01*
X161583023Y-130969781D01*
X161740219Y-131126977D01*
X161744727Y-131130134D01*
X161744730Y-131130136D01*
X161820495Y-131183187D01*
X161922323Y-131254488D01*
X161927305Y-131256811D01*
X161927310Y-131256814D01*
X162032373Y-131305805D01*
X162085658Y-131352722D01*
X162105119Y-131420999D01*
X162084577Y-131488959D01*
X162032373Y-131534195D01*
X161927311Y-131583186D01*
X161927306Y-131583189D01*
X161922324Y-131585512D01*
X161917817Y-131588668D01*
X161917815Y-131588669D01*
X161744730Y-131709864D01*
X161744727Y-131709866D01*
X161740219Y-131713023D01*
X161583023Y-131870219D01*
X161455512Y-132052324D01*
X161453189Y-132057306D01*
X161453186Y-132057311D01*
X161363883Y-132248822D01*
X161361560Y-132253804D01*
X161304022Y-132468537D01*
X161284647Y-132690000D01*
X161304022Y-132911463D01*
X161361560Y-133126196D01*
X161363882Y-133131177D01*
X161363883Y-133131178D01*
X161453186Y-133322689D01*
X161453189Y-133322694D01*
X161455512Y-133327676D01*
X161583023Y-133509781D01*
X161740219Y-133666977D01*
X161744727Y-133670134D01*
X161744730Y-133670136D01*
X161820495Y-133723187D01*
X161922323Y-133794488D01*
X161927305Y-133796811D01*
X161927310Y-133796814D01*
X162032373Y-133845805D01*
X162085658Y-133892722D01*
X162105119Y-133960999D01*
X162084577Y-134028959D01*
X162032373Y-134074195D01*
X161927311Y-134123186D01*
X161927306Y-134123189D01*
X161922324Y-134125512D01*
X161917817Y-134128668D01*
X161917815Y-134128669D01*
X161744730Y-134249864D01*
X161744727Y-134249866D01*
X161740219Y-134253023D01*
X161583023Y-134410219D01*
X161455512Y-134592324D01*
X161453189Y-134597306D01*
X161453186Y-134597311D01*
X161363883Y-134788822D01*
X161361560Y-134793804D01*
X161304022Y-135008537D01*
X161284647Y-135230000D01*
X161304022Y-135451463D01*
X161361560Y-135666196D01*
X161363882Y-135671177D01*
X161363883Y-135671178D01*
X161453186Y-135862689D01*
X161453189Y-135862694D01*
X161455512Y-135867676D01*
X161583023Y-136049781D01*
X161740219Y-136206977D01*
X161744727Y-136210134D01*
X161744730Y-136210136D01*
X161820495Y-136263187D01*
X161922323Y-136334488D01*
X161927305Y-136336811D01*
X161927310Y-136336814D01*
X162032373Y-136385805D01*
X162085658Y-136432722D01*
X162105119Y-136500999D01*
X162084577Y-136568959D01*
X162032373Y-136614195D01*
X161927311Y-136663186D01*
X161927306Y-136663189D01*
X161922324Y-136665512D01*
X161917817Y-136668668D01*
X161917815Y-136668669D01*
X161744730Y-136789864D01*
X161744727Y-136789866D01*
X161740219Y-136793023D01*
X161583023Y-136950219D01*
X161455512Y-137132324D01*
X161453189Y-137137306D01*
X161453186Y-137137311D01*
X161363883Y-137328822D01*
X161361560Y-137333804D01*
X161304022Y-137548537D01*
X161284647Y-137770000D01*
X161304022Y-137991463D01*
X161361560Y-138206196D01*
X161363882Y-138211177D01*
X161363883Y-138211178D01*
X161453186Y-138402689D01*
X161453189Y-138402694D01*
X161455512Y-138407676D01*
X161583023Y-138589781D01*
X161740219Y-138746977D01*
X161744727Y-138750134D01*
X161744730Y-138750136D01*
X161820495Y-138803187D01*
X161922323Y-138874488D01*
X161927305Y-138876811D01*
X161927310Y-138876814D01*
X162032373Y-138925805D01*
X162085658Y-138972722D01*
X162105119Y-139040999D01*
X162084577Y-139108959D01*
X162032373Y-139154195D01*
X161927311Y-139203186D01*
X161927306Y-139203189D01*
X161922324Y-139205512D01*
X161917817Y-139208668D01*
X161917815Y-139208669D01*
X161744730Y-139329864D01*
X161744727Y-139329866D01*
X161740219Y-139333023D01*
X161583023Y-139490219D01*
X161455512Y-139672324D01*
X161453189Y-139677306D01*
X161453186Y-139677311D01*
X161363883Y-139868822D01*
X161361560Y-139873804D01*
X161304022Y-140088537D01*
X161284647Y-140310000D01*
X161304022Y-140531463D01*
X161361560Y-140746196D01*
X161363882Y-140751177D01*
X161363883Y-140751178D01*
X161453186Y-140942689D01*
X161453189Y-140942694D01*
X161455512Y-140947676D01*
X161583023Y-141129781D01*
X161740219Y-141286977D01*
X161744727Y-141290134D01*
X161744730Y-141290136D01*
X161820495Y-141343187D01*
X161922323Y-141414488D01*
X161927305Y-141416811D01*
X161927310Y-141416814D01*
X162032373Y-141465805D01*
X162085658Y-141512722D01*
X162105119Y-141580999D01*
X162084577Y-141648959D01*
X162032373Y-141694195D01*
X161927311Y-141743186D01*
X161927306Y-141743189D01*
X161922324Y-141745512D01*
X161917817Y-141748668D01*
X161917815Y-141748669D01*
X161744730Y-141869864D01*
X161744727Y-141869866D01*
X161740219Y-141873023D01*
X161583023Y-142030219D01*
X161455512Y-142212324D01*
X161453189Y-142217306D01*
X161453186Y-142217311D01*
X161363883Y-142408822D01*
X161361560Y-142413804D01*
X161304022Y-142628537D01*
X161284647Y-142850000D01*
X161304022Y-143071463D01*
X161361560Y-143286196D01*
X161363882Y-143291177D01*
X161363883Y-143291178D01*
X161453186Y-143482689D01*
X161453189Y-143482694D01*
X161455512Y-143487676D01*
X161583023Y-143669781D01*
X161740219Y-143826977D01*
X161744727Y-143830134D01*
X161744730Y-143830136D01*
X161820495Y-143883187D01*
X161922323Y-143954488D01*
X161927305Y-143956811D01*
X161927310Y-143956814D01*
X162032373Y-144005805D01*
X162085658Y-144052722D01*
X162105119Y-144120999D01*
X162084577Y-144188959D01*
X162032373Y-144234195D01*
X161927311Y-144283186D01*
X161927306Y-144283189D01*
X161922324Y-144285512D01*
X161917817Y-144288668D01*
X161917815Y-144288669D01*
X161744730Y-144409864D01*
X161744727Y-144409866D01*
X161740219Y-144413023D01*
X161583023Y-144570219D01*
X161579866Y-144574727D01*
X161579864Y-144574730D01*
X161460065Y-144745822D01*
X161455512Y-144752324D01*
X161453189Y-144757306D01*
X161453186Y-144757311D01*
X161433673Y-144799157D01*
X161361560Y-144953804D01*
X161304022Y-145168537D01*
X161284647Y-145390000D01*
X161304022Y-145611463D01*
X161361560Y-145826196D01*
X161363882Y-145831177D01*
X161363883Y-145831178D01*
X161453186Y-146022689D01*
X161453189Y-146022694D01*
X161455512Y-146027676D01*
X161583023Y-146209781D01*
X161740219Y-146366977D01*
X161744727Y-146370134D01*
X161744730Y-146370136D01*
X161820495Y-146423187D01*
X161922323Y-146494488D01*
X161927305Y-146496811D01*
X161927310Y-146496814D01*
X162032373Y-146545805D01*
X162085658Y-146592722D01*
X162105119Y-146660999D01*
X162084577Y-146728959D01*
X162032373Y-146774195D01*
X161927311Y-146823186D01*
X161927306Y-146823189D01*
X161922324Y-146825512D01*
X161917817Y-146828668D01*
X161917815Y-146828669D01*
X161744730Y-146949864D01*
X161744727Y-146949866D01*
X161740219Y-146953023D01*
X161583023Y-147110219D01*
X161579866Y-147114727D01*
X161579864Y-147114730D01*
X161549900Y-147157523D01*
X161455512Y-147292324D01*
X161453189Y-147297306D01*
X161453186Y-147297311D01*
X161444109Y-147316777D01*
X161361560Y-147493804D01*
X161304022Y-147708537D01*
X161284647Y-147930000D01*
X161304022Y-148151463D01*
X161361560Y-148366196D01*
X161363882Y-148371177D01*
X161363883Y-148371178D01*
X161453186Y-148562689D01*
X161453189Y-148562694D01*
X161455512Y-148567676D01*
X161458668Y-148572183D01*
X161458669Y-148572185D01*
X161557328Y-148713084D01*
X161583023Y-148749781D01*
X161740219Y-148906977D01*
X161744727Y-148910134D01*
X161744730Y-148910136D01*
X161820495Y-148963187D01*
X161922323Y-149034488D01*
X161927305Y-149036811D01*
X161927310Y-149036814D01*
X162032373Y-149085805D01*
X162085658Y-149132722D01*
X162105119Y-149200999D01*
X162084577Y-149268959D01*
X162032373Y-149314195D01*
X161927311Y-149363186D01*
X161927306Y-149363189D01*
X161922324Y-149365512D01*
X161917817Y-149368668D01*
X161917815Y-149368669D01*
X161744730Y-149489864D01*
X161744727Y-149489866D01*
X161740219Y-149493023D01*
X161583023Y-149650219D01*
X161455512Y-149832324D01*
X161453189Y-149837306D01*
X161453186Y-149837311D01*
X161368490Y-150018942D01*
X161361560Y-150033804D01*
X161304022Y-150248537D01*
X161284647Y-150470000D01*
X161304022Y-150691463D01*
X161361560Y-150906196D01*
X161363882Y-150911177D01*
X161363883Y-150911178D01*
X161453186Y-151102689D01*
X161453189Y-151102694D01*
X161455512Y-151107676D01*
X161583023Y-151289781D01*
X161740219Y-151446977D01*
X161744727Y-151450134D01*
X161744730Y-151450136D01*
X161820495Y-151503187D01*
X161922323Y-151574488D01*
X161927305Y-151576811D01*
X161927310Y-151576814D01*
X162032373Y-151625805D01*
X162085658Y-151672722D01*
X162105119Y-151740999D01*
X162084577Y-151808959D01*
X162032373Y-151854195D01*
X161927311Y-151903186D01*
X161927306Y-151903189D01*
X161922324Y-151905512D01*
X161917817Y-151908668D01*
X161917815Y-151908669D01*
X161744730Y-152029864D01*
X161744727Y-152029866D01*
X161740219Y-152033023D01*
X161583023Y-152190219D01*
X161455512Y-152372324D01*
X161453189Y-152377306D01*
X161453186Y-152377311D01*
X161363883Y-152568822D01*
X161361560Y-152573804D01*
X161304022Y-152788537D01*
X161284647Y-153010000D01*
X161304022Y-153231463D01*
X161361560Y-153446196D01*
X161363882Y-153451177D01*
X161363883Y-153451178D01*
X161453186Y-153642689D01*
X161453189Y-153642694D01*
X161455512Y-153647676D01*
X161583023Y-153829781D01*
X161740219Y-153986977D01*
X161744727Y-153990134D01*
X161744730Y-153990136D01*
X161820495Y-154043187D01*
X161922323Y-154114488D01*
X161927305Y-154116811D01*
X161927310Y-154116814D01*
X162032373Y-154165805D01*
X162085658Y-154212722D01*
X162105119Y-154280999D01*
X162084577Y-154348959D01*
X162032373Y-154394195D01*
X161927311Y-154443186D01*
X161927306Y-154443189D01*
X161922324Y-154445512D01*
X161917817Y-154448668D01*
X161917815Y-154448669D01*
X161744730Y-154569864D01*
X161744727Y-154569866D01*
X161740219Y-154573023D01*
X161583023Y-154730219D01*
X161455512Y-154912324D01*
X161453189Y-154917306D01*
X161453186Y-154917311D01*
X161363883Y-155108822D01*
X161361560Y-155113804D01*
X161304022Y-155328537D01*
X161284647Y-155550000D01*
X161304022Y-155771463D01*
X161361560Y-155986196D01*
X161363882Y-155991177D01*
X161363883Y-155991178D01*
X161453186Y-156182689D01*
X161453189Y-156182694D01*
X161455512Y-156187676D01*
X161583023Y-156369781D01*
X161740219Y-156526977D01*
X161744727Y-156530134D01*
X161744730Y-156530136D01*
X161820495Y-156583187D01*
X161922323Y-156654488D01*
X161927305Y-156656811D01*
X161927310Y-156656814D01*
X162032373Y-156705805D01*
X162085658Y-156752722D01*
X162105119Y-156820999D01*
X162084577Y-156888959D01*
X162032373Y-156934195D01*
X161927311Y-156983186D01*
X161927306Y-156983189D01*
X161922324Y-156985512D01*
X161917817Y-156988668D01*
X161917815Y-156988669D01*
X161744730Y-157109864D01*
X161744727Y-157109866D01*
X161740219Y-157113023D01*
X161583023Y-157270219D01*
X161455512Y-157452324D01*
X161453189Y-157457306D01*
X161453186Y-157457311D01*
X161363883Y-157648822D01*
X161361560Y-157653804D01*
X161304022Y-157868537D01*
X161284647Y-158090000D01*
X138435353Y-158090000D01*
X138415978Y-157868537D01*
X138358440Y-157653804D01*
X138356117Y-157648822D01*
X138266814Y-157457311D01*
X138266811Y-157457306D01*
X138264488Y-157452324D01*
X138136977Y-157270219D01*
X137979781Y-157113023D01*
X137975273Y-157109866D01*
X137975270Y-157109864D01*
X137899505Y-157056813D01*
X137797677Y-156985512D01*
X137792695Y-156983189D01*
X137792690Y-156983186D01*
X137687627Y-156934195D01*
X137634342Y-156887278D01*
X137614881Y-156819001D01*
X137635423Y-156751041D01*
X137687627Y-156705805D01*
X137792690Y-156656814D01*
X137792695Y-156656811D01*
X137797677Y-156654488D01*
X137899505Y-156583187D01*
X137975270Y-156530136D01*
X137975273Y-156530134D01*
X137979781Y-156526977D01*
X138136977Y-156369781D01*
X138264488Y-156187676D01*
X138266811Y-156182694D01*
X138266814Y-156182689D01*
X138356117Y-155991178D01*
X138356118Y-155991177D01*
X138358440Y-155986196D01*
X138415978Y-155771463D01*
X138435353Y-155550000D01*
X138415978Y-155328537D01*
X138358440Y-155113804D01*
X138356117Y-155108822D01*
X138266814Y-154917311D01*
X138266811Y-154917306D01*
X138264488Y-154912324D01*
X138136977Y-154730219D01*
X137979781Y-154573023D01*
X137975273Y-154569866D01*
X137975270Y-154569864D01*
X137899505Y-154516813D01*
X137797677Y-154445512D01*
X137792695Y-154443189D01*
X137792690Y-154443186D01*
X137687627Y-154394195D01*
X137634342Y-154347278D01*
X137614881Y-154279001D01*
X137635423Y-154211041D01*
X137687627Y-154165805D01*
X137792690Y-154116814D01*
X137792695Y-154116811D01*
X137797677Y-154114488D01*
X137899505Y-154043187D01*
X137975270Y-153990136D01*
X137975273Y-153990134D01*
X137979781Y-153986977D01*
X138136977Y-153829781D01*
X138264488Y-153647676D01*
X138266811Y-153642694D01*
X138266814Y-153642689D01*
X138356117Y-153451178D01*
X138356118Y-153451177D01*
X138358440Y-153446196D01*
X138415978Y-153231463D01*
X138435353Y-153010000D01*
X138415978Y-152788537D01*
X138358440Y-152573804D01*
X138356117Y-152568822D01*
X138266814Y-152377311D01*
X138266811Y-152377306D01*
X138264488Y-152372324D01*
X138136977Y-152190219D01*
X137979781Y-152033023D01*
X137975273Y-152029866D01*
X137975270Y-152029864D01*
X137899505Y-151976813D01*
X137797677Y-151905512D01*
X137792695Y-151903189D01*
X137792690Y-151903186D01*
X137687627Y-151854195D01*
X137634342Y-151807278D01*
X137614881Y-151739001D01*
X137635423Y-151671041D01*
X137687627Y-151625805D01*
X137792690Y-151576814D01*
X137792695Y-151576811D01*
X137797677Y-151574488D01*
X137899505Y-151503187D01*
X137975270Y-151450136D01*
X137975273Y-151450134D01*
X137979781Y-151446977D01*
X138136977Y-151289781D01*
X138264488Y-151107676D01*
X138266811Y-151102694D01*
X138266814Y-151102689D01*
X138356117Y-150911178D01*
X138356118Y-150911177D01*
X138358440Y-150906196D01*
X138415978Y-150691463D01*
X138435353Y-150470000D01*
X138415978Y-150248537D01*
X138358440Y-150033804D01*
X138351510Y-150018942D01*
X138266814Y-149837311D01*
X138266811Y-149837306D01*
X138264488Y-149832324D01*
X138136977Y-149650219D01*
X137979781Y-149493023D01*
X137975273Y-149489866D01*
X137975270Y-149489864D01*
X137899505Y-149436813D01*
X137797677Y-149365512D01*
X137792695Y-149363189D01*
X137792690Y-149363186D01*
X137687627Y-149314195D01*
X137634342Y-149267278D01*
X137614881Y-149199001D01*
X137635423Y-149131041D01*
X137687627Y-149085805D01*
X137792690Y-149036814D01*
X137792695Y-149036811D01*
X137797677Y-149034488D01*
X137899505Y-148963187D01*
X137975270Y-148910136D01*
X137975273Y-148910134D01*
X137979781Y-148906977D01*
X138136977Y-148749781D01*
X138162673Y-148713084D01*
X138261331Y-148572185D01*
X138261332Y-148572183D01*
X138264488Y-148567676D01*
X138266811Y-148562694D01*
X138266814Y-148562689D01*
X138356117Y-148371178D01*
X138356118Y-148371177D01*
X138358440Y-148366196D01*
X138415978Y-148151463D01*
X138435353Y-147930000D01*
X138415978Y-147708537D01*
X138358440Y-147493804D01*
X138275891Y-147316777D01*
X138266814Y-147297311D01*
X138266811Y-147297306D01*
X138264488Y-147292324D01*
X138170100Y-147157523D01*
X138140136Y-147114730D01*
X138140134Y-147114727D01*
X138136977Y-147110219D01*
X137979781Y-146953023D01*
X137975273Y-146949866D01*
X137975270Y-146949864D01*
X137885983Y-146887345D01*
X137797677Y-146825512D01*
X137792695Y-146823189D01*
X137792690Y-146823186D01*
X137687627Y-146774195D01*
X137634342Y-146727278D01*
X137614881Y-146659001D01*
X137635423Y-146591041D01*
X137687627Y-146545805D01*
X137792690Y-146496814D01*
X137792695Y-146496811D01*
X137797677Y-146494488D01*
X137899505Y-146423187D01*
X137975270Y-146370136D01*
X137975273Y-146370134D01*
X137979781Y-146366977D01*
X138136977Y-146209781D01*
X138264488Y-146027676D01*
X138266811Y-146022694D01*
X138266814Y-146022689D01*
X138356117Y-145831178D01*
X138356118Y-145831177D01*
X138358440Y-145826196D01*
X138415978Y-145611463D01*
X138435353Y-145390000D01*
X138415978Y-145168537D01*
X138405514Y-145129484D01*
X138407204Y-145058507D01*
X138438126Y-145007778D01*
X138638758Y-144807146D01*
X138647048Y-144799602D01*
X138653529Y-144795489D01*
X138700170Y-144745821D01*
X138702924Y-144742980D01*
X138722646Y-144723258D01*
X138725123Y-144720065D01*
X138732828Y-144711044D01*
X138757670Y-144684589D01*
X138763097Y-144678810D01*
X138766918Y-144671860D01*
X138772857Y-144661057D01*
X138783713Y-144644530D01*
X138791268Y-144634791D01*
X138791269Y-144634789D01*
X138796125Y-144628529D01*
X138813685Y-144587949D01*
X138818902Y-144577301D01*
X138836386Y-144545498D01*
X138836387Y-144545496D01*
X138840206Y-144538549D01*
X138845244Y-144518926D01*
X138851648Y-144500223D01*
X138856544Y-144488909D01*
X138856544Y-144488908D01*
X138859692Y-144481634D01*
X138860931Y-144473811D01*
X138860934Y-144473801D01*
X138866610Y-144437965D01*
X138869016Y-144426345D01*
X138878039Y-144391200D01*
X138878039Y-144391199D01*
X138880011Y-144383519D01*
X138880011Y-144363265D01*
X138881562Y-144343554D01*
X138883491Y-144331375D01*
X138884731Y-144323546D01*
X138880570Y-144279527D01*
X138880011Y-144267670D01*
X138880011Y-109115279D01*
X138880538Y-109104096D01*
X138882213Y-109096603D01*
X138880073Y-109028512D01*
X138880011Y-109024555D01*
X138880011Y-108996655D01*
X138879507Y-108992664D01*
X138878574Y-108980822D01*
X138877434Y-108944547D01*
X138877185Y-108936622D01*
X138871532Y-108917163D01*
X138867523Y-108897804D01*
X138867357Y-108896494D01*
X138864985Y-108877714D01*
X138862069Y-108870348D01*
X138862067Y-108870342D01*
X138848711Y-108836609D01*
X138844866Y-108825379D01*
X138834741Y-108790528D01*
X138834741Y-108790527D01*
X138832530Y-108782918D01*
X138822216Y-108765477D01*
X138813519Y-108747724D01*
X138808983Y-108736269D01*
X138806063Y-108728894D01*
X138780074Y-108693123D01*
X138773558Y-108683203D01*
X138755089Y-108651974D01*
X138751053Y-108645149D01*
X138736732Y-108630828D01*
X138723891Y-108615794D01*
X138716642Y-108605817D01*
X138711983Y-108599404D01*
X138677906Y-108571213D01*
X138669127Y-108563223D01*
X138438126Y-108332222D01*
X138404100Y-108269910D01*
X138405514Y-108210516D01*
X138414554Y-108176777D01*
X138415978Y-108171463D01*
X138435353Y-107950000D01*
X138415978Y-107728537D01*
X138358440Y-107513804D01*
X138356117Y-107508822D01*
X138266814Y-107317311D01*
X138266811Y-107317306D01*
X138264488Y-107312324D01*
X138136977Y-107130219D01*
X137979781Y-106973023D01*
X137975273Y-106969866D01*
X137975270Y-106969864D01*
X137899505Y-106916813D01*
X137797677Y-106845512D01*
X137792695Y-106843189D01*
X137792690Y-106843186D01*
X137687627Y-106794195D01*
X137634342Y-106747278D01*
X137614881Y-106679001D01*
X137635423Y-106611041D01*
X137687627Y-106565805D01*
X137792690Y-106516814D01*
X137792695Y-106516811D01*
X137797677Y-106514488D01*
X137948615Y-106408800D01*
X137975270Y-106390136D01*
X137975273Y-106390134D01*
X137979781Y-106386977D01*
X138136977Y-106229781D01*
X138145577Y-106217500D01*
X138261331Y-106052185D01*
X138261332Y-106052183D01*
X138264488Y-106047676D01*
X138266811Y-106042694D01*
X138266814Y-106042689D01*
X138356117Y-105851178D01*
X138356118Y-105851177D01*
X138358440Y-105846196D01*
X138415978Y-105631463D01*
X138435353Y-105410000D01*
X138415978Y-105188537D01*
X138358440Y-104973804D01*
X138356117Y-104968822D01*
X138266814Y-104777311D01*
X138266811Y-104777306D01*
X138264488Y-104772324D01*
X138261331Y-104767815D01*
X138140136Y-104594730D01*
X138140134Y-104594727D01*
X138136977Y-104590219D01*
X137979781Y-104433023D01*
X137975273Y-104429866D01*
X137975270Y-104429864D01*
X137899505Y-104376813D01*
X137797677Y-104305512D01*
X137652037Y-104237599D01*
X137598753Y-104190683D01*
X137579292Y-104122406D01*
X137599834Y-104054446D01*
X137652038Y-104009210D01*
X137786217Y-103946641D01*
X137795703Y-103941163D01*
X137839536Y-103910472D01*
X137847911Y-103899994D01*
X137840843Y-103886546D01*
X137166584Y-103212287D01*
X137152640Y-103204673D01*
X137150807Y-103204804D01*
X137144192Y-103209055D01*
X136465979Y-103887268D01*
X136459549Y-103899042D01*
X136468846Y-103911058D01*
X136511841Y-103941163D01*
X136521327Y-103946641D01*
X136661734Y-104012114D01*
X136715019Y-104059032D01*
X136734480Y-104127309D01*
X136713938Y-104195269D01*
X136661734Y-104240504D01*
X136527311Y-104303186D01*
X136527306Y-104303189D01*
X136522324Y-104305512D01*
X136517817Y-104308668D01*
X136517815Y-104308669D01*
X136344730Y-104429864D01*
X136344727Y-104429866D01*
X136340219Y-104433023D01*
X136183023Y-104590219D01*
X136179866Y-104594727D01*
X136179864Y-104594730D01*
X136058669Y-104767815D01*
X136055512Y-104772324D01*
X136053189Y-104777306D01*
X136053186Y-104777311D01*
X135963883Y-104968822D01*
X135961560Y-104973804D01*
X135904022Y-105188537D01*
X135884647Y-105410000D01*
X135904022Y-105631463D01*
X135905446Y-105636776D01*
X135905447Y-105636783D01*
X135914485Y-105670514D01*
X135912796Y-105741490D01*
X135881874Y-105792221D01*
X135681236Y-105992859D01*
X135672950Y-106000399D01*
X135666471Y-106004511D01*
X135621703Y-106052185D01*
X135619846Y-106054162D01*
X135617091Y-106057004D01*
X135597354Y-106076741D01*
X135594874Y-106079938D01*
X135587171Y-106088958D01*
X135556903Y-106121190D01*
X135553084Y-106128136D01*
X135553082Y-106128139D01*
X135547141Y-106138945D01*
X135536290Y-106155464D01*
X135523875Y-106171470D01*
X135520730Y-106178739D01*
X135520727Y-106178743D01*
X135506315Y-106212048D01*
X135501098Y-106222698D01*
X135479794Y-106261451D01*
X135477823Y-106269126D01*
X135477823Y-106269127D01*
X135474756Y-106281073D01*
X135468352Y-106299777D01*
X135460308Y-106318366D01*
X135459069Y-106326189D01*
X135459066Y-106326199D01*
X135453390Y-106362035D01*
X135450984Y-106373655D01*
X135447564Y-106386977D01*
X135439989Y-106416481D01*
X135439989Y-106436735D01*
X135438438Y-106456445D01*
X135435269Y-106476454D01*
X132080000Y-106476454D01*
X132080000Y-102845740D01*
X135879400Y-102845740D01*
X135897810Y-103056161D01*
X135899713Y-103066956D01*
X135954381Y-103270980D01*
X135958127Y-103281272D01*
X136047395Y-103472706D01*
X136052875Y-103482197D01*
X136083566Y-103526030D01*
X136094043Y-103534405D01*
X136107490Y-103527337D01*
X136781750Y-102853077D01*
X136788128Y-102841397D01*
X137518180Y-102841397D01*
X137518311Y-102843230D01*
X137522562Y-102849845D01*
X138200775Y-103528058D01*
X138212549Y-103534488D01*
X138224565Y-103525191D01*
X138254669Y-103482197D01*
X138260149Y-103472706D01*
X138349417Y-103281272D01*
X138353163Y-103270980D01*
X138407831Y-103066956D01*
X138409734Y-103056161D01*
X138428144Y-102845740D01*
X138428144Y-102834790D01*
X138409734Y-102624369D01*
X138407831Y-102613574D01*
X138353163Y-102409550D01*
X138349417Y-102399258D01*
X138260149Y-102207824D01*
X138254669Y-102198333D01*
X138223978Y-102154500D01*
X138213501Y-102146125D01*
X138200054Y-102153193D01*
X137525794Y-102827453D01*
X137518180Y-102841397D01*
X136788128Y-102841397D01*
X136789364Y-102839133D01*
X136789233Y-102837300D01*
X136784982Y-102830685D01*
X136106769Y-102152472D01*
X136094995Y-102146042D01*
X136082979Y-102155339D01*
X136052875Y-102198333D01*
X136047395Y-102207824D01*
X135958127Y-102399258D01*
X135954381Y-102409550D01*
X135899713Y-102613574D01*
X135897810Y-102624369D01*
X135879400Y-102834790D01*
X135879400Y-102845740D01*
X132080000Y-102845740D01*
X132080000Y-100330000D01*
X135884647Y-100330000D01*
X135904022Y-100551463D01*
X135961560Y-100766196D01*
X135963882Y-100771177D01*
X135963883Y-100771178D01*
X136053186Y-100962689D01*
X136053189Y-100962694D01*
X136055512Y-100967676D01*
X136183023Y-101149781D01*
X136340219Y-101306977D01*
X136344727Y-101310134D01*
X136344730Y-101310136D01*
X136420495Y-101363187D01*
X136522323Y-101434488D01*
X136527304Y-101436811D01*
X136527315Y-101436817D01*
X136597968Y-101469763D01*
X136651252Y-101516680D01*
X136670713Y-101584957D01*
X136650171Y-101652917D01*
X136597967Y-101698152D01*
X136521331Y-101733888D01*
X136511840Y-101739368D01*
X136468007Y-101770059D01*
X136459632Y-101780536D01*
X136466700Y-101793983D01*
X137140960Y-102468243D01*
X137154904Y-102475857D01*
X137156737Y-102475726D01*
X137163352Y-102471475D01*
X137841565Y-101793262D01*
X137847995Y-101781488D01*
X137838698Y-101769472D01*
X137795703Y-101739367D01*
X137786213Y-101733887D01*
X137715806Y-101701056D01*
X137662520Y-101654139D01*
X137643059Y-101585862D01*
X137663601Y-101517902D01*
X137715805Y-101472666D01*
X137792689Y-101436814D01*
X137792690Y-101436814D01*
X137797677Y-101434488D01*
X137899505Y-101363187D01*
X137975270Y-101310136D01*
X137975273Y-101310134D01*
X137979781Y-101306977D01*
X138136977Y-101149781D01*
X138264488Y-100967676D01*
X138266811Y-100962694D01*
X138266814Y-100962689D01*
X138356117Y-100771178D01*
X138356118Y-100771177D01*
X138358440Y-100766196D01*
X138415978Y-100551463D01*
X138435353Y-100330000D01*
X138415978Y-100108537D01*
X138358440Y-99893804D01*
X138356117Y-99888822D01*
X138266814Y-99697311D01*
X138266811Y-99697306D01*
X138264488Y-99692324D01*
X138136977Y-99510219D01*
X137979781Y-99353023D01*
X137975273Y-99349866D01*
X137975270Y-99349864D01*
X137899505Y-99296813D01*
X137797677Y-99225512D01*
X137792695Y-99223189D01*
X137792690Y-99223186D01*
X137601178Y-99133883D01*
X137601177Y-99133882D01*
X137596196Y-99131560D01*
X137590888Y-99130138D01*
X137590886Y-99130137D01*
X137525051Y-99112497D01*
X137381463Y-99074022D01*
X137160000Y-99054647D01*
X136938537Y-99074022D01*
X136794949Y-99112497D01*
X136729114Y-99130137D01*
X136729112Y-99130138D01*
X136723804Y-99131560D01*
X136718823Y-99133882D01*
X136718822Y-99133883D01*
X136527311Y-99223186D01*
X136527306Y-99223189D01*
X136522324Y-99225512D01*
X136517817Y-99228668D01*
X136517815Y-99228669D01*
X136344730Y-99349864D01*
X136344727Y-99349866D01*
X136340219Y-99353023D01*
X136183023Y-99510219D01*
X136055512Y-99692324D01*
X136053189Y-99697306D01*
X136053186Y-99697311D01*
X135963883Y-99888822D01*
X135961560Y-99893804D01*
X135904022Y-100108537D01*
X135884647Y-100330000D01*
X132080000Y-100330000D01*
X132080000Y-72264454D01*
X135347269Y-72264454D01*
X135348015Y-72272346D01*
X135351430Y-72308472D01*
X135351989Y-72320330D01*
X135351989Y-92726722D01*
X135351462Y-92737905D01*
X135349787Y-92745398D01*
X135350036Y-92753324D01*
X135350036Y-92753325D01*
X135351927Y-92813475D01*
X135351989Y-92817434D01*
X135351989Y-92845345D01*
X135352486Y-92849279D01*
X135352486Y-92849280D01*
X135352494Y-92849345D01*
X135353427Y-92861182D01*
X135354816Y-92905378D01*
X135360467Y-92924828D01*
X135364476Y-92944189D01*
X135367015Y-92964286D01*
X135369934Y-92971657D01*
X135369934Y-92971659D01*
X135383293Y-93005401D01*
X135387138Y-93016631D01*
X135399471Y-93059082D01*
X135403504Y-93065901D01*
X135403506Y-93065906D01*
X135409782Y-93076517D01*
X135418477Y-93094265D01*
X135425937Y-93113106D01*
X135430599Y-93119522D01*
X135430599Y-93119523D01*
X135451925Y-93148876D01*
X135458441Y-93158796D01*
X135472874Y-93183200D01*
X135480947Y-93196851D01*
X135495268Y-93211172D01*
X135508108Y-93226205D01*
X135520017Y-93242596D01*
X135526123Y-93247647D01*
X135554094Y-93270787D01*
X135562873Y-93278777D01*
X148086343Y-105802247D01*
X148093887Y-105810537D01*
X148098000Y-105817018D01*
X148103777Y-105822443D01*
X148147667Y-105863658D01*
X148150509Y-105866413D01*
X148170230Y-105886134D01*
X148173425Y-105888612D01*
X148182447Y-105896318D01*
X148214679Y-105926586D01*
X148221628Y-105930406D01*
X148232432Y-105936346D01*
X148248956Y-105947199D01*
X148264959Y-105959613D01*
X148305543Y-105977176D01*
X148316173Y-105982383D01*
X148354940Y-106003695D01*
X148362617Y-106005666D01*
X148362622Y-106005668D01*
X148374558Y-106008732D01*
X148393266Y-106015137D01*
X148411855Y-106023181D01*
X148419680Y-106024420D01*
X148419682Y-106024421D01*
X148455519Y-106030097D01*
X148467140Y-106032504D01*
X148502289Y-106041528D01*
X148509970Y-106043500D01*
X148530231Y-106043500D01*
X148549940Y-106045051D01*
X148569943Y-106048219D01*
X148577835Y-106047473D01*
X148583062Y-106046979D01*
X148613954Y-106044059D01*
X148625811Y-106043500D01*
X152786996Y-106043500D01*
X152855117Y-106063502D01*
X152890209Y-106097229D01*
X152974424Y-106217500D01*
X152983023Y-106229781D01*
X153140219Y-106386977D01*
X153144727Y-106390134D01*
X153144730Y-106390136D01*
X153171385Y-106408800D01*
X153322323Y-106514488D01*
X153327305Y-106516811D01*
X153327310Y-106516814D01*
X153518822Y-106606117D01*
X153523804Y-106608440D01*
X153529112Y-106609862D01*
X153529114Y-106609863D01*
X153594949Y-106627503D01*
X153738537Y-106665978D01*
X153960000Y-106685353D01*
X154181463Y-106665978D01*
X154325051Y-106627503D01*
X154390886Y-106609863D01*
X154390888Y-106609862D01*
X154396196Y-106608440D01*
X154401178Y-106606117D01*
X154592690Y-106516814D01*
X154592695Y-106516811D01*
X154597677Y-106514488D01*
X154748615Y-106408800D01*
X154775270Y-106390136D01*
X154775273Y-106390134D01*
X154779781Y-106386977D01*
X154936977Y-106229781D01*
X154945577Y-106217500D01*
X155061331Y-106052185D01*
X155061332Y-106052183D01*
X155064488Y-106047676D01*
X155066811Y-106042694D01*
X155066814Y-106042689D01*
X155156117Y-105851178D01*
X155156118Y-105851177D01*
X155158440Y-105846196D01*
X155215978Y-105631463D01*
X155235353Y-105410000D01*
X155215978Y-105188537D01*
X155158440Y-104973804D01*
X155156117Y-104968822D01*
X155066814Y-104777311D01*
X155066811Y-104777306D01*
X155064488Y-104772324D01*
X155061331Y-104767815D01*
X154940136Y-104594730D01*
X154940134Y-104594727D01*
X154936977Y-104590219D01*
X154779781Y-104433023D01*
X154775273Y-104429866D01*
X154775270Y-104429864D01*
X154699505Y-104376813D01*
X154597677Y-104305512D01*
X154592695Y-104303189D01*
X154592690Y-104303186D01*
X154487627Y-104254195D01*
X154434342Y-104207278D01*
X154414881Y-104139001D01*
X154435423Y-104071041D01*
X154487627Y-104025805D01*
X154592690Y-103976814D01*
X154592695Y-103976811D01*
X154597677Y-103974488D01*
X154723271Y-103886546D01*
X154775270Y-103850136D01*
X154775273Y-103850134D01*
X154779781Y-103846977D01*
X154936977Y-103689781D01*
X155050217Y-103528058D01*
X155061331Y-103512185D01*
X155061332Y-103512183D01*
X155064488Y-103507676D01*
X155066811Y-103502694D01*
X155066814Y-103502689D01*
X155156117Y-103311178D01*
X155156118Y-103311177D01*
X155158440Y-103306196D01*
X155165119Y-103281272D01*
X155214554Y-103096776D01*
X155215978Y-103091463D01*
X155235353Y-102870000D01*
X155233231Y-102845740D01*
X168899400Y-102845740D01*
X168917810Y-103056161D01*
X168919713Y-103066956D01*
X168974381Y-103270980D01*
X168978127Y-103281272D01*
X169067395Y-103472706D01*
X169072875Y-103482197D01*
X169103566Y-103526030D01*
X169114043Y-103534405D01*
X169127490Y-103527337D01*
X169801750Y-102853077D01*
X169808128Y-102841397D01*
X170538180Y-102841397D01*
X170538311Y-102843230D01*
X170542562Y-102849845D01*
X171220775Y-103528058D01*
X171232549Y-103534488D01*
X171244565Y-103525191D01*
X171274669Y-103482197D01*
X171280149Y-103472706D01*
X171369417Y-103281272D01*
X171373163Y-103270980D01*
X171427831Y-103066956D01*
X171429734Y-103056161D01*
X171448144Y-102845740D01*
X171448144Y-102834790D01*
X171429734Y-102624369D01*
X171427831Y-102613574D01*
X171373163Y-102409550D01*
X171369417Y-102399258D01*
X171280149Y-102207824D01*
X171274669Y-102198333D01*
X171243978Y-102154500D01*
X171233501Y-102146125D01*
X171220054Y-102153193D01*
X170545794Y-102827453D01*
X170538180Y-102841397D01*
X169808128Y-102841397D01*
X169809364Y-102839133D01*
X169809233Y-102837300D01*
X169804982Y-102830685D01*
X169126769Y-102152472D01*
X169114995Y-102146042D01*
X169102979Y-102155339D01*
X169072875Y-102198333D01*
X169067395Y-102207824D01*
X168978127Y-102399258D01*
X168974381Y-102409550D01*
X168919713Y-102613574D01*
X168917810Y-102624369D01*
X168899400Y-102834790D01*
X168899400Y-102845740D01*
X155233231Y-102845740D01*
X155215978Y-102648537D01*
X155158440Y-102433804D01*
X155142331Y-102399258D01*
X155066814Y-102237311D01*
X155066811Y-102237306D01*
X155064488Y-102232324D01*
X155047333Y-102207824D01*
X154940136Y-102054730D01*
X154940134Y-102054727D01*
X154936977Y-102050219D01*
X154779781Y-101893023D01*
X154775273Y-101889866D01*
X154775270Y-101889864D01*
X154699505Y-101836813D01*
X154597677Y-101765512D01*
X154592695Y-101763189D01*
X154592690Y-101763186D01*
X154401178Y-101673883D01*
X154401177Y-101673882D01*
X154396196Y-101671560D01*
X154390888Y-101670138D01*
X154390886Y-101670137D01*
X154290781Y-101643314D01*
X154181463Y-101614022D01*
X153960000Y-101594647D01*
X153738537Y-101614022D01*
X153629219Y-101643314D01*
X153529114Y-101670137D01*
X153529112Y-101670138D01*
X153523804Y-101671560D01*
X153518823Y-101673882D01*
X153518822Y-101673883D01*
X153327311Y-101763186D01*
X153327306Y-101763189D01*
X153322324Y-101765512D01*
X153317817Y-101768668D01*
X153317815Y-101768669D01*
X153144730Y-101889864D01*
X153144727Y-101889866D01*
X153140219Y-101893023D01*
X152983023Y-102050219D01*
X152979866Y-102054727D01*
X152979864Y-102054730D01*
X152872667Y-102207824D01*
X152855512Y-102232324D01*
X152853189Y-102237306D01*
X152853186Y-102237311D01*
X152777669Y-102399258D01*
X152761560Y-102433804D01*
X152704022Y-102648537D01*
X152684647Y-102870000D01*
X152704022Y-103091463D01*
X152705446Y-103096776D01*
X152754882Y-103281272D01*
X152761560Y-103306196D01*
X152763882Y-103311177D01*
X152763883Y-103311178D01*
X152853186Y-103502689D01*
X152853189Y-103502694D01*
X152855512Y-103507676D01*
X152858668Y-103512183D01*
X152858669Y-103512185D01*
X152869784Y-103528058D01*
X152983023Y-103689781D01*
X153140219Y-103846977D01*
X153144727Y-103850134D01*
X153144730Y-103850136D01*
X153196729Y-103886546D01*
X153322323Y-103974488D01*
X153327305Y-103976811D01*
X153327310Y-103976814D01*
X153432373Y-104025805D01*
X153485658Y-104072722D01*
X153505119Y-104140999D01*
X153484577Y-104208959D01*
X153432373Y-104254195D01*
X153327311Y-104303186D01*
X153327306Y-104303189D01*
X153322324Y-104305512D01*
X153317817Y-104308668D01*
X153317815Y-104308669D01*
X153144730Y-104429864D01*
X153144727Y-104429866D01*
X153140219Y-104433023D01*
X152983023Y-104590219D01*
X152979866Y-104594727D01*
X152979864Y-104594730D01*
X152890209Y-104722771D01*
X152834752Y-104767099D01*
X152786996Y-104776500D01*
X148904595Y-104776500D01*
X148836474Y-104756498D01*
X148815500Y-104739595D01*
X144405905Y-100330000D01*
X168904647Y-100330000D01*
X168924022Y-100551463D01*
X168981560Y-100766196D01*
X168983882Y-100771177D01*
X168983883Y-100771178D01*
X169073186Y-100962689D01*
X169073189Y-100962694D01*
X169075512Y-100967676D01*
X169203023Y-101149781D01*
X169360219Y-101306977D01*
X169364727Y-101310134D01*
X169364730Y-101310136D01*
X169440495Y-101363187D01*
X169542323Y-101434488D01*
X169547304Y-101436811D01*
X169547315Y-101436817D01*
X169617968Y-101469763D01*
X169671252Y-101516680D01*
X169690713Y-101584957D01*
X169670171Y-101652917D01*
X169617967Y-101698152D01*
X169541331Y-101733888D01*
X169531840Y-101739368D01*
X169488007Y-101770059D01*
X169479632Y-101780536D01*
X169486700Y-101793983D01*
X170160960Y-102468243D01*
X170174904Y-102475857D01*
X170176737Y-102475726D01*
X170183352Y-102471475D01*
X170861565Y-101793262D01*
X170867995Y-101781488D01*
X170858698Y-101769472D01*
X170815703Y-101739367D01*
X170806213Y-101733887D01*
X170735806Y-101701056D01*
X170682520Y-101654139D01*
X170663059Y-101585862D01*
X170683601Y-101517902D01*
X170735805Y-101472666D01*
X170812689Y-101436814D01*
X170812690Y-101436814D01*
X170817677Y-101434488D01*
X170919505Y-101363187D01*
X170995270Y-101310136D01*
X170995273Y-101310134D01*
X170999781Y-101306977D01*
X171156977Y-101149781D01*
X171284488Y-100967676D01*
X171286811Y-100962694D01*
X171286814Y-100962689D01*
X171376117Y-100771178D01*
X171376118Y-100771177D01*
X171378440Y-100766196D01*
X171435978Y-100551463D01*
X171455353Y-100330000D01*
X171435978Y-100108537D01*
X171378440Y-99893804D01*
X171376117Y-99888822D01*
X171286814Y-99697311D01*
X171286811Y-99697306D01*
X171284488Y-99692324D01*
X171156977Y-99510219D01*
X170999781Y-99353023D01*
X170995273Y-99349866D01*
X170995270Y-99349864D01*
X170919505Y-99296813D01*
X170817677Y-99225512D01*
X170812695Y-99223189D01*
X170812690Y-99223186D01*
X170621178Y-99133883D01*
X170621177Y-99133882D01*
X170616196Y-99131560D01*
X170610888Y-99130138D01*
X170610886Y-99130137D01*
X170545051Y-99112497D01*
X170401463Y-99074022D01*
X170180000Y-99054647D01*
X169958537Y-99074022D01*
X169814949Y-99112497D01*
X169749114Y-99130137D01*
X169749112Y-99130138D01*
X169743804Y-99131560D01*
X169738823Y-99133882D01*
X169738822Y-99133883D01*
X169547311Y-99223186D01*
X169547306Y-99223189D01*
X169542324Y-99225512D01*
X169537817Y-99228668D01*
X169537815Y-99228669D01*
X169364730Y-99349864D01*
X169364727Y-99349866D01*
X169360219Y-99353023D01*
X169203023Y-99510219D01*
X169075512Y-99692324D01*
X169073189Y-99697306D01*
X169073186Y-99697311D01*
X168983883Y-99888822D01*
X168981560Y-99893804D01*
X168924022Y-100108537D01*
X168904647Y-100330000D01*
X144405905Y-100330000D01*
X137080938Y-93005033D01*
X137046912Y-92942721D01*
X137051977Y-92871906D01*
X137094524Y-92815070D01*
X137161044Y-92790259D01*
X137174649Y-92790023D01*
X137216672Y-92791564D01*
X137216677Y-92791564D01*
X137221837Y-92791753D01*
X137226957Y-92791097D01*
X137226959Y-92791097D01*
X137438288Y-92764025D01*
X137438289Y-92764025D01*
X137443416Y-92763368D01*
X137476891Y-92753325D01*
X137652429Y-92700661D01*
X137652434Y-92700659D01*
X137657384Y-92699174D01*
X137857994Y-92600896D01*
X138039860Y-92471173D01*
X138198096Y-92313489D01*
X138198671Y-92314066D01*
X138254391Y-92277562D01*
X138325385Y-92276939D01*
X138385446Y-92314796D01*
X138405051Y-92344691D01*
X138406133Y-92347000D01*
X138408450Y-92353946D01*
X138501522Y-92504348D01*
X138626697Y-92629305D01*
X138632927Y-92633145D01*
X138632928Y-92633146D01*
X138770090Y-92717694D01*
X138777262Y-92722115D01*
X138855400Y-92748032D01*
X138938611Y-92775632D01*
X138938613Y-92775632D01*
X138945139Y-92777797D01*
X138951975Y-92778497D01*
X138951978Y-92778498D01*
X138995031Y-92782909D01*
X139049600Y-92788500D01*
X140350400Y-92788500D01*
X140353646Y-92788163D01*
X140353650Y-92788163D01*
X140449308Y-92778238D01*
X140449312Y-92778237D01*
X140456166Y-92777526D01*
X140462702Y-92775345D01*
X140462704Y-92775345D01*
X140612919Y-92725229D01*
X140623946Y-92721550D01*
X140774348Y-92628478D01*
X140899305Y-92503303D01*
X140957841Y-92408341D01*
X140988275Y-92358968D01*
X140988276Y-92358966D01*
X140992115Y-92352738D01*
X141047797Y-92184861D01*
X141058500Y-92080400D01*
X141058500Y-90779600D01*
X141047526Y-90673834D01*
X141013598Y-90572138D01*
X140993868Y-90513002D01*
X140991550Y-90506054D01*
X140898478Y-90355652D01*
X140773303Y-90230695D01*
X140762311Y-90223919D01*
X140657226Y-90159144D01*
X140622738Y-90137885D01*
X140615785Y-90135579D01*
X140614904Y-90135168D01*
X140561618Y-90088252D01*
X140542156Y-90019975D01*
X140562696Y-89952015D01*
X140580529Y-89931844D01*
X140579860Y-89931173D01*
X140734435Y-89777137D01*
X140738096Y-89773489D01*
X140797594Y-89690689D01*
X140865435Y-89596277D01*
X140868453Y-89592077D01*
X140889320Y-89549857D01*
X140965136Y-89396453D01*
X140965137Y-89396451D01*
X140967430Y-89391811D01*
X141032370Y-89178069D01*
X141061529Y-88956590D01*
X141063156Y-88890000D01*
X141044852Y-88667361D01*
X140990431Y-88450702D01*
X140901354Y-88245840D01*
X140780014Y-88058277D01*
X140629670Y-87893051D01*
X140625619Y-87889852D01*
X140625615Y-87889848D01*
X140458414Y-87757800D01*
X140458410Y-87757798D01*
X140454359Y-87754598D01*
X140413053Y-87731796D01*
X140363084Y-87681364D01*
X140348312Y-87611921D01*
X140373428Y-87545516D01*
X140400780Y-87518909D01*
X140444603Y-87487650D01*
X140579860Y-87391173D01*
X140605181Y-87365941D01*
X140734435Y-87237137D01*
X140738096Y-87233489D01*
X140797594Y-87150689D01*
X140865435Y-87056277D01*
X140868453Y-87052077D01*
X140889320Y-87009857D01*
X140965136Y-86856453D01*
X140965137Y-86856451D01*
X140967430Y-86851811D01*
X141032370Y-86638069D01*
X141061529Y-86416590D01*
X141063156Y-86350000D01*
X141044852Y-86127361D01*
X140990431Y-85910702D01*
X140939797Y-85794252D01*
X140930977Y-85723807D01*
X140961644Y-85659775D01*
X141022060Y-85622487D01*
X141055347Y-85618011D01*
X152319576Y-85618011D01*
X152387697Y-85638013D01*
X152434190Y-85691669D01*
X152444294Y-85761943D01*
X152433864Y-85797061D01*
X152418902Y-85829295D01*
X152395688Y-85879305D01*
X152335989Y-86094570D01*
X152312251Y-86316695D01*
X152312548Y-86321848D01*
X152312548Y-86321851D01*
X152318011Y-86416590D01*
X152325110Y-86539715D01*
X152326247Y-86544761D01*
X152326248Y-86544767D01*
X152346119Y-86632939D01*
X152374222Y-86757639D01*
X152458266Y-86964616D01*
X152509019Y-87047438D01*
X152572291Y-87150688D01*
X152574987Y-87155088D01*
X152721250Y-87323938D01*
X152893126Y-87466632D01*
X152963595Y-87507811D01*
X152966445Y-87509476D01*
X153015169Y-87561114D01*
X153028240Y-87630897D01*
X153001509Y-87696669D01*
X152961055Y-87730027D01*
X152948607Y-87736507D01*
X152944474Y-87739610D01*
X152944471Y-87739612D01*
X152920247Y-87757800D01*
X152769965Y-87870635D01*
X152766393Y-87874373D01*
X152667300Y-87978068D01*
X152615629Y-88032138D01*
X152489743Y-88216680D01*
X152395688Y-88419305D01*
X152335989Y-88634570D01*
X152312251Y-88856695D01*
X152312548Y-88861848D01*
X152312548Y-88861851D01*
X152318011Y-88956590D01*
X152325110Y-89079715D01*
X152326247Y-89084761D01*
X152326248Y-89084767D01*
X152346119Y-89172939D01*
X152374222Y-89297639D01*
X152458266Y-89504616D01*
X152509019Y-89587438D01*
X152572291Y-89690688D01*
X152574987Y-89695088D01*
X152721250Y-89863938D01*
X152893126Y-90006632D01*
X152915960Y-90019975D01*
X152966445Y-90049476D01*
X153015169Y-90101114D01*
X153028240Y-90170897D01*
X153001509Y-90236669D01*
X152961055Y-90270027D01*
X152948607Y-90276507D01*
X152944474Y-90279610D01*
X152944471Y-90279612D01*
X152774100Y-90407530D01*
X152769965Y-90410635D01*
X152730525Y-90451907D01*
X152676280Y-90508671D01*
X152615629Y-90572138D01*
X152489743Y-90756680D01*
X152395688Y-90959305D01*
X152335989Y-91174570D01*
X152312251Y-91396695D01*
X152325110Y-91619715D01*
X152326247Y-91624761D01*
X152326248Y-91624767D01*
X152350304Y-91731508D01*
X152374222Y-91837639D01*
X152458266Y-92044616D01*
X152482154Y-92083598D01*
X152545008Y-92186166D01*
X152574987Y-92235088D01*
X152721250Y-92403938D01*
X152893126Y-92546632D01*
X153086000Y-92659338D01*
X153294692Y-92739030D01*
X153299760Y-92740061D01*
X153299763Y-92740062D01*
X153407017Y-92761883D01*
X153513597Y-92783567D01*
X153518772Y-92783757D01*
X153518774Y-92783757D01*
X153731673Y-92791564D01*
X153731677Y-92791564D01*
X153736837Y-92791753D01*
X153741957Y-92791097D01*
X153741959Y-92791097D01*
X153953288Y-92764025D01*
X153953289Y-92764025D01*
X153958416Y-92763368D01*
X153991891Y-92753325D01*
X154167429Y-92700661D01*
X154167434Y-92700659D01*
X154172384Y-92699174D01*
X154372994Y-92600896D01*
X154554860Y-92471173D01*
X154713096Y-92313489D01*
X154713671Y-92314066D01*
X154769391Y-92277562D01*
X154840385Y-92276939D01*
X154900446Y-92314796D01*
X154920051Y-92344691D01*
X154921133Y-92347000D01*
X154923450Y-92353946D01*
X155016522Y-92504348D01*
X155141697Y-92629305D01*
X155147927Y-92633145D01*
X155147928Y-92633146D01*
X155285090Y-92717694D01*
X155292262Y-92722115D01*
X155370400Y-92748032D01*
X155453611Y-92775632D01*
X155453613Y-92775632D01*
X155460139Y-92777797D01*
X155466975Y-92778497D01*
X155466978Y-92778498D01*
X155510031Y-92782909D01*
X155564600Y-92788500D01*
X156865400Y-92788500D01*
X156868646Y-92788163D01*
X156868650Y-92788163D01*
X156964308Y-92778238D01*
X156964312Y-92778237D01*
X156971166Y-92777526D01*
X156977702Y-92775345D01*
X156977704Y-92775345D01*
X157127919Y-92725229D01*
X157138946Y-92721550D01*
X157289348Y-92628478D01*
X157414305Y-92503303D01*
X157472841Y-92408341D01*
X157503275Y-92358968D01*
X157503276Y-92358966D01*
X157507115Y-92352738D01*
X157562797Y-92184861D01*
X157573500Y-92080400D01*
X157573500Y-90779600D01*
X157562526Y-90673834D01*
X157528598Y-90572138D01*
X157508868Y-90513002D01*
X157506550Y-90506054D01*
X157413478Y-90355652D01*
X157288303Y-90230695D01*
X157277311Y-90223919D01*
X157172226Y-90159144D01*
X157137738Y-90137885D01*
X157130785Y-90135579D01*
X157129904Y-90135168D01*
X157076618Y-90088252D01*
X157057156Y-90019975D01*
X157077696Y-89952015D01*
X157095529Y-89931844D01*
X157094860Y-89931173D01*
X157249435Y-89777137D01*
X157253096Y-89773489D01*
X157312594Y-89690689D01*
X157321154Y-89678777D01*
X161685777Y-89678777D01*
X161695074Y-89690793D01*
X161738069Y-89720898D01*
X161747555Y-89726376D01*
X161938993Y-89815645D01*
X161949285Y-89819391D01*
X162153309Y-89874059D01*
X162164104Y-89875962D01*
X162374525Y-89894372D01*
X162385475Y-89894372D01*
X162595896Y-89875962D01*
X162606691Y-89874059D01*
X162810715Y-89819391D01*
X162821007Y-89815645D01*
X163012445Y-89726376D01*
X163021931Y-89720898D01*
X163065764Y-89690207D01*
X163074139Y-89679729D01*
X163073639Y-89678777D01*
X177285777Y-89678777D01*
X177295074Y-89690793D01*
X177338069Y-89720898D01*
X177347555Y-89726376D01*
X177538993Y-89815645D01*
X177549285Y-89819391D01*
X177753309Y-89874059D01*
X177764104Y-89875962D01*
X177974525Y-89894372D01*
X177985475Y-89894372D01*
X178195896Y-89875962D01*
X178206691Y-89874059D01*
X178410715Y-89819391D01*
X178421007Y-89815645D01*
X178612445Y-89726376D01*
X178621931Y-89720898D01*
X178665764Y-89690207D01*
X178674139Y-89679729D01*
X178667071Y-89666281D01*
X177992812Y-88992022D01*
X177978868Y-88984408D01*
X177977035Y-88984539D01*
X177970420Y-88988790D01*
X177292207Y-89667003D01*
X177285777Y-89678777D01*
X163073639Y-89678777D01*
X163067071Y-89666281D01*
X162392812Y-88992022D01*
X162378868Y-88984408D01*
X162377035Y-88984539D01*
X162370420Y-88988790D01*
X161692207Y-89667003D01*
X161685777Y-89678777D01*
X157321154Y-89678777D01*
X157380435Y-89596277D01*
X157383453Y-89592077D01*
X157404320Y-89549857D01*
X157480136Y-89396453D01*
X157480137Y-89396451D01*
X157482430Y-89391811D01*
X157547370Y-89178069D01*
X157576529Y-88956590D01*
X157578156Y-88890000D01*
X157559852Y-88667361D01*
X157549331Y-88625475D01*
X161105628Y-88625475D01*
X161124038Y-88835896D01*
X161125941Y-88846691D01*
X161180609Y-89050715D01*
X161184355Y-89061007D01*
X161273623Y-89252441D01*
X161279103Y-89261932D01*
X161309794Y-89305765D01*
X161320271Y-89314140D01*
X161333718Y-89307072D01*
X162007978Y-88632812D01*
X162014356Y-88621132D01*
X162744408Y-88621132D01*
X162744539Y-88622965D01*
X162748790Y-88629580D01*
X163427003Y-89307793D01*
X163438777Y-89314223D01*
X163450793Y-89304926D01*
X163480897Y-89261932D01*
X163486377Y-89252441D01*
X163575645Y-89061007D01*
X163579391Y-89050715D01*
X163634059Y-88846691D01*
X163635962Y-88835896D01*
X163654372Y-88625475D01*
X176705628Y-88625475D01*
X176724038Y-88835896D01*
X176725941Y-88846691D01*
X176780609Y-89050715D01*
X176784355Y-89061007D01*
X176873623Y-89252441D01*
X176879103Y-89261932D01*
X176909794Y-89305765D01*
X176920271Y-89314140D01*
X176933718Y-89307072D01*
X177607978Y-88632812D01*
X177614356Y-88621132D01*
X178344408Y-88621132D01*
X178344539Y-88622965D01*
X178348790Y-88629580D01*
X179027003Y-89307793D01*
X179038777Y-89314223D01*
X179050793Y-89304926D01*
X179080897Y-89261932D01*
X179086377Y-89252441D01*
X179175645Y-89061007D01*
X179179391Y-89050715D01*
X179234059Y-88846691D01*
X179235962Y-88835896D01*
X179254372Y-88625475D01*
X179254372Y-88614525D01*
X179235962Y-88404104D01*
X179234059Y-88393309D01*
X179179391Y-88189285D01*
X179175645Y-88178993D01*
X179086377Y-87987559D01*
X179080897Y-87978068D01*
X179050206Y-87934235D01*
X179039729Y-87925860D01*
X179026282Y-87932928D01*
X178352022Y-88607188D01*
X178344408Y-88621132D01*
X177614356Y-88621132D01*
X177615592Y-88618868D01*
X177615461Y-88617035D01*
X177611210Y-88610420D01*
X176932997Y-87932207D01*
X176921223Y-87925777D01*
X176909207Y-87935074D01*
X176879103Y-87978068D01*
X176873623Y-87987559D01*
X176784355Y-88178993D01*
X176780609Y-88189285D01*
X176725941Y-88393309D01*
X176724038Y-88404104D01*
X176705628Y-88614525D01*
X176705628Y-88625475D01*
X163654372Y-88625475D01*
X163654372Y-88614525D01*
X163635962Y-88404104D01*
X163634059Y-88393309D01*
X163579391Y-88189285D01*
X163575645Y-88178993D01*
X163486377Y-87987559D01*
X163480897Y-87978068D01*
X163450206Y-87934235D01*
X163439729Y-87925860D01*
X163426282Y-87932928D01*
X162752022Y-88607188D01*
X162744408Y-88621132D01*
X162014356Y-88621132D01*
X162015592Y-88618868D01*
X162015461Y-88617035D01*
X162011210Y-88610420D01*
X161332997Y-87932207D01*
X161321223Y-87925777D01*
X161309207Y-87935074D01*
X161279103Y-87978068D01*
X161273623Y-87987559D01*
X161184355Y-88178993D01*
X161180609Y-88189285D01*
X161125941Y-88393309D01*
X161124038Y-88404104D01*
X161105628Y-88614525D01*
X161105628Y-88625475D01*
X157549331Y-88625475D01*
X157505431Y-88450702D01*
X157416354Y-88245840D01*
X157295014Y-88058277D01*
X157144670Y-87893051D01*
X157140619Y-87889852D01*
X157140615Y-87889848D01*
X156973414Y-87757800D01*
X156973410Y-87757798D01*
X156969359Y-87754598D01*
X156928053Y-87731796D01*
X156878084Y-87681364D01*
X156863312Y-87611921D01*
X156882847Y-87560271D01*
X161685860Y-87560271D01*
X161692928Y-87573718D01*
X162367188Y-88247978D01*
X162381132Y-88255592D01*
X162382965Y-88255461D01*
X162389580Y-88251210D01*
X163067793Y-87572997D01*
X163074223Y-87561223D01*
X163073486Y-87560271D01*
X177285860Y-87560271D01*
X177292928Y-87573718D01*
X177967188Y-88247978D01*
X177981132Y-88255592D01*
X177982965Y-88255461D01*
X177989580Y-88251210D01*
X178667793Y-87572997D01*
X178674223Y-87561223D01*
X178664926Y-87549207D01*
X178621931Y-87519102D01*
X178612445Y-87513624D01*
X178421007Y-87424355D01*
X178410715Y-87420609D01*
X178206691Y-87365941D01*
X178195896Y-87364038D01*
X177985475Y-87345628D01*
X177974525Y-87345628D01*
X177764104Y-87364038D01*
X177753309Y-87365941D01*
X177549285Y-87420609D01*
X177538993Y-87424355D01*
X177347559Y-87513623D01*
X177338068Y-87519103D01*
X177294235Y-87549794D01*
X177285860Y-87560271D01*
X163073486Y-87560271D01*
X163064926Y-87549207D01*
X163021931Y-87519102D01*
X163012445Y-87513624D01*
X162821007Y-87424355D01*
X162810715Y-87420609D01*
X162606691Y-87365941D01*
X162595896Y-87364038D01*
X162385475Y-87345628D01*
X162374525Y-87345628D01*
X162164104Y-87364038D01*
X162153309Y-87365941D01*
X161949285Y-87420609D01*
X161938993Y-87424355D01*
X161747559Y-87513623D01*
X161738068Y-87519103D01*
X161694235Y-87549794D01*
X161685860Y-87560271D01*
X156882847Y-87560271D01*
X156888428Y-87545516D01*
X156915780Y-87518909D01*
X156959603Y-87487650D01*
X157094860Y-87391173D01*
X157120181Y-87365941D01*
X157249435Y-87237137D01*
X157253096Y-87233489D01*
X157312594Y-87150689D01*
X157380435Y-87056277D01*
X157383453Y-87052077D01*
X157404320Y-87009857D01*
X157480136Y-86856453D01*
X157480137Y-86856451D01*
X157482430Y-86851811D01*
X157547370Y-86638069D01*
X157576529Y-86416590D01*
X157578156Y-86350000D01*
X157559852Y-86127361D01*
X157517511Y-85958794D01*
X157506689Y-85915709D01*
X157506688Y-85915705D01*
X157505431Y-85910702D01*
X157503375Y-85905973D01*
X157503370Y-85905959D01*
X157500666Y-85899741D01*
X157491847Y-85829295D01*
X157522514Y-85765263D01*
X157582930Y-85727976D01*
X157616216Y-85723500D01*
X177091800Y-85723500D01*
X177159921Y-85743502D01*
X177179147Y-85759843D01*
X177179420Y-85759540D01*
X177184332Y-85763963D01*
X177188747Y-85768866D01*
X177210329Y-85784546D01*
X177334291Y-85874610D01*
X177343248Y-85881118D01*
X177349276Y-85883802D01*
X177349278Y-85883803D01*
X177511681Y-85956109D01*
X177517712Y-85958794D01*
X177611112Y-85978647D01*
X177698056Y-85997128D01*
X177698061Y-85997128D01*
X177704513Y-85998500D01*
X177895487Y-85998500D01*
X177901939Y-85997128D01*
X177901944Y-85997128D01*
X177988887Y-85978647D01*
X178082288Y-85958794D01*
X178088319Y-85956109D01*
X178250722Y-85883803D01*
X178250724Y-85883802D01*
X178256752Y-85881118D01*
X178265710Y-85874610D01*
X178376311Y-85794253D01*
X178411253Y-85768866D01*
X178415675Y-85763955D01*
X178534621Y-85631852D01*
X178534622Y-85631851D01*
X178539040Y-85626944D01*
X178603985Y-85514457D01*
X178631223Y-85467279D01*
X178631224Y-85467278D01*
X178634527Y-85461556D01*
X178693542Y-85279928D01*
X178700409Y-85214598D01*
X178712814Y-85096565D01*
X178713504Y-85090000D01*
X178705577Y-85014576D01*
X178694232Y-84906635D01*
X178694232Y-84906633D01*
X178693542Y-84900072D01*
X178634527Y-84718444D01*
X178622226Y-84697137D01*
X178572314Y-84610688D01*
X178539040Y-84553056D01*
X178502143Y-84512077D01*
X178415675Y-84416045D01*
X178415674Y-84416044D01*
X178411253Y-84411134D01*
X178256752Y-84298882D01*
X178250724Y-84296198D01*
X178250722Y-84296197D01*
X178088319Y-84223891D01*
X178088318Y-84223891D01*
X178082288Y-84221206D01*
X177988888Y-84201353D01*
X177901944Y-84182872D01*
X177901939Y-84182872D01*
X177895487Y-84181500D01*
X177704513Y-84181500D01*
X177698061Y-84182872D01*
X177698056Y-84182872D01*
X177611112Y-84201353D01*
X177517712Y-84221206D01*
X177511682Y-84223891D01*
X177511681Y-84223891D01*
X177349278Y-84296197D01*
X177349276Y-84296198D01*
X177343248Y-84298882D01*
X177188747Y-84411134D01*
X177184332Y-84416037D01*
X177179420Y-84420460D01*
X177178295Y-84419211D01*
X177124986Y-84452051D01*
X177091800Y-84456500D01*
X157608439Y-84456500D01*
X157540318Y-84436498D01*
X157493825Y-84382842D01*
X157483721Y-84312568D01*
X157487880Y-84293872D01*
X157509588Y-84222425D01*
X157547370Y-84098069D01*
X157553886Y-84048580D01*
X183938752Y-84048580D01*
X183963477Y-84166421D01*
X183966537Y-84176617D01*
X184047263Y-84381029D01*
X184051994Y-84390561D01*
X184166016Y-84578462D01*
X184172280Y-84587052D01*
X184316327Y-84753052D01*
X184323958Y-84760472D01*
X184493911Y-84899826D01*
X184502678Y-84905850D01*
X184693682Y-85014576D01*
X184703346Y-85019041D01*
X184909941Y-85094031D01*
X184920208Y-85096802D01*
X185137655Y-85136123D01*
X185145884Y-85137056D01*
X185150376Y-85137268D01*
X185163124Y-85133525D01*
X185164329Y-85132135D01*
X185166000Y-85124452D01*
X185166000Y-85115970D01*
X185674000Y-85115970D01*
X185678310Y-85130648D01*
X185690193Y-85132711D01*
X185794325Y-85123876D01*
X185804797Y-85122086D01*
X186017535Y-85066870D01*
X186027575Y-85063335D01*
X186227970Y-84973063D01*
X186237256Y-84967894D01*
X186419575Y-84845150D01*
X186427870Y-84838481D01*
X186586900Y-84686772D01*
X186593941Y-84678814D01*
X186725141Y-84502475D01*
X186730745Y-84493438D01*
X186830357Y-84297516D01*
X186834357Y-84287665D01*
X186899534Y-84077760D01*
X186901817Y-84067376D01*
X186903861Y-84051957D01*
X186901665Y-84037793D01*
X186888478Y-84034000D01*
X185692115Y-84034000D01*
X185676876Y-84038475D01*
X185675671Y-84039865D01*
X185674000Y-84047548D01*
X185674000Y-85115970D01*
X185166000Y-85115970D01*
X185166000Y-84052115D01*
X185161525Y-84036876D01*
X185160135Y-84035671D01*
X185152452Y-84034000D01*
X183953808Y-84034000D01*
X183940277Y-84037973D01*
X183938752Y-84048580D01*
X157553886Y-84048580D01*
X157576529Y-83876590D01*
X157578156Y-83810000D01*
X157559852Y-83587361D01*
X157531821Y-83475765D01*
X157534625Y-83404823D01*
X157564930Y-83355974D01*
X157645019Y-83275885D01*
X157707331Y-83241859D01*
X157734114Y-83238980D01*
X183844941Y-83238980D01*
X183913062Y-83258982D01*
X183959555Y-83312638D01*
X183969659Y-83382912D01*
X183965274Y-83402344D01*
X183940466Y-83482240D01*
X183938183Y-83492624D01*
X183936139Y-83508043D01*
X183938335Y-83522207D01*
X183951522Y-83526000D01*
X186886192Y-83526000D01*
X186899723Y-83522027D01*
X186901248Y-83511420D01*
X186875951Y-83390854D01*
X186881539Y-83320077D01*
X186924504Y-83263557D01*
X186991205Y-83239238D01*
X186999266Y-83238980D01*
X191622812Y-83238980D01*
X191690933Y-83258982D01*
X191737426Y-83312638D01*
X191747530Y-83382912D01*
X191744229Y-83398652D01*
X191742518Y-83404823D01*
X191700989Y-83554570D01*
X191677251Y-83776695D01*
X191677548Y-83781848D01*
X191677548Y-83781851D01*
X191683011Y-83876590D01*
X191690110Y-83999715D01*
X191691247Y-84004761D01*
X191691248Y-84004767D01*
X191701122Y-84048580D01*
X191739222Y-84217639D01*
X191792209Y-84348132D01*
X191817792Y-84411134D01*
X191823266Y-84424616D01*
X191865440Y-84493438D01*
X191937291Y-84610688D01*
X191939987Y-84615088D01*
X192086250Y-84783938D01*
X192258126Y-84926632D01*
X192328595Y-84967811D01*
X192331445Y-84969476D01*
X192380169Y-85021114D01*
X192393240Y-85090897D01*
X192366509Y-85156669D01*
X192326055Y-85190027D01*
X192313607Y-85196507D01*
X192309474Y-85199610D01*
X192309471Y-85199612D01*
X192139100Y-85327530D01*
X192134965Y-85330635D01*
X191980629Y-85492138D01*
X191854743Y-85676680D01*
X191760688Y-85879305D01*
X191700989Y-86094570D01*
X191677251Y-86316695D01*
X191677548Y-86321848D01*
X191677548Y-86321851D01*
X191683011Y-86416590D01*
X191690110Y-86539715D01*
X191691247Y-86544761D01*
X191691248Y-86544767D01*
X191711119Y-86632939D01*
X191739222Y-86757639D01*
X191823266Y-86964616D01*
X191874019Y-87047438D01*
X191937291Y-87150688D01*
X191939987Y-87155088D01*
X192086250Y-87323938D01*
X192258126Y-87466632D01*
X192328595Y-87507811D01*
X192331445Y-87509476D01*
X192380169Y-87561114D01*
X192393240Y-87630897D01*
X192366509Y-87696669D01*
X192326055Y-87730027D01*
X192313607Y-87736507D01*
X192309474Y-87739610D01*
X192309471Y-87739612D01*
X192285247Y-87757800D01*
X192134965Y-87870635D01*
X192131393Y-87874373D01*
X192032300Y-87978068D01*
X191980629Y-88032138D01*
X191854743Y-88216680D01*
X191760688Y-88419305D01*
X191700989Y-88634570D01*
X191677251Y-88856695D01*
X191677548Y-88861848D01*
X191677548Y-88861851D01*
X191683011Y-88956590D01*
X191690110Y-89079715D01*
X191691247Y-89084761D01*
X191691248Y-89084767D01*
X191711119Y-89172939D01*
X191739222Y-89297639D01*
X191823266Y-89504616D01*
X191874019Y-89587438D01*
X191937291Y-89690688D01*
X191939987Y-89695088D01*
X192086250Y-89863938D01*
X192258126Y-90006632D01*
X192280960Y-90019975D01*
X192331445Y-90049476D01*
X192380169Y-90101114D01*
X192393240Y-90170897D01*
X192366509Y-90236669D01*
X192326055Y-90270027D01*
X192313607Y-90276507D01*
X192309474Y-90279610D01*
X192309471Y-90279612D01*
X192139100Y-90407530D01*
X192134965Y-90410635D01*
X192095525Y-90451907D01*
X192041280Y-90508671D01*
X191980629Y-90572138D01*
X191854743Y-90756680D01*
X191760688Y-90959305D01*
X191700989Y-91174570D01*
X191677251Y-91396695D01*
X191690110Y-91619715D01*
X191691247Y-91624761D01*
X191691248Y-91624767D01*
X191715304Y-91731508D01*
X191739222Y-91837639D01*
X191823266Y-92044616D01*
X191847154Y-92083598D01*
X191910008Y-92186166D01*
X191939987Y-92235088D01*
X192086250Y-92403938D01*
X192258126Y-92546632D01*
X192451000Y-92659338D01*
X192659692Y-92739030D01*
X192664760Y-92740061D01*
X192664763Y-92740062D01*
X192772017Y-92761883D01*
X192878597Y-92783567D01*
X192883772Y-92783757D01*
X192883774Y-92783757D01*
X193096673Y-92791564D01*
X193096677Y-92791564D01*
X193101837Y-92791753D01*
X193106957Y-92791097D01*
X193106959Y-92791097D01*
X193318288Y-92764025D01*
X193318289Y-92764025D01*
X193323416Y-92763368D01*
X193356891Y-92753325D01*
X193532429Y-92700661D01*
X193532434Y-92700659D01*
X193537384Y-92699174D01*
X193737994Y-92600896D01*
X193919860Y-92471173D01*
X194028091Y-92363319D01*
X194090462Y-92329404D01*
X194161268Y-92334592D01*
X194218030Y-92377238D01*
X194235012Y-92408341D01*
X194279385Y-92526705D01*
X194366739Y-92643261D01*
X194483295Y-92730615D01*
X194619684Y-92781745D01*
X194681866Y-92788500D01*
X195861406Y-92788500D01*
X195929527Y-92808502D01*
X195976020Y-92862158D01*
X195986124Y-92932432D01*
X195956630Y-92997012D01*
X195950501Y-93003595D01*
X187362221Y-101591874D01*
X187299909Y-101625900D01*
X187240514Y-101624485D01*
X187206783Y-101615447D01*
X187206777Y-101615446D01*
X187201463Y-101614022D01*
X186980000Y-101594647D01*
X186758537Y-101614022D01*
X186649219Y-101643314D01*
X186549114Y-101670137D01*
X186549112Y-101670138D01*
X186543804Y-101671560D01*
X186538823Y-101673882D01*
X186538822Y-101673883D01*
X186347311Y-101763186D01*
X186347306Y-101763189D01*
X186342324Y-101765512D01*
X186337817Y-101768668D01*
X186337815Y-101768669D01*
X186164730Y-101889864D01*
X186164727Y-101889866D01*
X186160219Y-101893023D01*
X186003023Y-102050219D01*
X185999866Y-102054727D01*
X185999864Y-102054730D01*
X185892667Y-102207824D01*
X185875512Y-102232324D01*
X185873189Y-102237306D01*
X185873186Y-102237311D01*
X185797669Y-102399258D01*
X185781560Y-102433804D01*
X185724022Y-102648537D01*
X185704647Y-102870000D01*
X185724022Y-103091463D01*
X185725446Y-103096776D01*
X185774882Y-103281272D01*
X185781560Y-103306196D01*
X185783882Y-103311177D01*
X185783883Y-103311178D01*
X185873186Y-103502689D01*
X185873189Y-103502694D01*
X185875512Y-103507676D01*
X185878668Y-103512183D01*
X185878669Y-103512185D01*
X185889784Y-103528058D01*
X186003023Y-103689781D01*
X186160219Y-103846977D01*
X186164727Y-103850134D01*
X186164730Y-103850136D01*
X186216729Y-103886546D01*
X186342323Y-103974488D01*
X186347305Y-103976811D01*
X186347310Y-103976814D01*
X186452373Y-104025805D01*
X186505658Y-104072722D01*
X186525119Y-104140999D01*
X186504577Y-104208959D01*
X186452373Y-104254195D01*
X186347311Y-104303186D01*
X186347306Y-104303189D01*
X186342324Y-104305512D01*
X186337817Y-104308668D01*
X186337815Y-104308669D01*
X186164730Y-104429864D01*
X186164727Y-104429866D01*
X186160219Y-104433023D01*
X186003023Y-104590219D01*
X185999866Y-104594727D01*
X185999864Y-104594730D01*
X185878669Y-104767815D01*
X185875512Y-104772324D01*
X185873189Y-104777306D01*
X185873186Y-104777311D01*
X185783883Y-104968822D01*
X185781560Y-104973804D01*
X185724022Y-105188537D01*
X185704647Y-105410000D01*
X185724022Y-105631463D01*
X185781560Y-105846196D01*
X185783882Y-105851177D01*
X185783883Y-105851178D01*
X185873186Y-106042689D01*
X185873189Y-106042694D01*
X185875512Y-106047676D01*
X185878668Y-106052183D01*
X185878669Y-106052185D01*
X185994424Y-106217500D01*
X186003023Y-106229781D01*
X186160219Y-106386977D01*
X186164727Y-106390134D01*
X186164730Y-106390136D01*
X186191385Y-106408800D01*
X186342323Y-106514488D01*
X186347305Y-106516811D01*
X186347310Y-106516814D01*
X186538822Y-106606117D01*
X186543804Y-106608440D01*
X186549112Y-106609862D01*
X186549114Y-106609863D01*
X186614949Y-106627503D01*
X186758537Y-106665978D01*
X186980000Y-106685353D01*
X187201463Y-106665978D01*
X187345051Y-106627503D01*
X187410886Y-106609863D01*
X187410888Y-106609862D01*
X187416196Y-106608440D01*
X187421178Y-106606117D01*
X187612690Y-106516814D01*
X187612695Y-106516811D01*
X187617677Y-106514488D01*
X187768615Y-106408800D01*
X187795270Y-106390136D01*
X187795273Y-106390134D01*
X187799781Y-106386977D01*
X187956977Y-106229781D01*
X187965577Y-106217500D01*
X188081331Y-106052185D01*
X188081332Y-106052183D01*
X188084488Y-106047676D01*
X188086811Y-106042694D01*
X188086814Y-106042689D01*
X188176117Y-105851178D01*
X188176118Y-105851177D01*
X188178440Y-105846196D01*
X188235978Y-105631463D01*
X188255353Y-105410000D01*
X188235978Y-105188537D01*
X188178440Y-104973804D01*
X188176117Y-104968822D01*
X188086814Y-104777311D01*
X188086811Y-104777306D01*
X188084488Y-104772324D01*
X188081331Y-104767815D01*
X187960136Y-104594730D01*
X187960134Y-104594727D01*
X187956977Y-104590219D01*
X187799781Y-104433023D01*
X187795273Y-104429866D01*
X187795270Y-104429864D01*
X187719505Y-104376813D01*
X187617677Y-104305512D01*
X187612695Y-104303189D01*
X187612690Y-104303186D01*
X187507627Y-104254195D01*
X187454342Y-104207278D01*
X187434881Y-104139001D01*
X187455423Y-104071041D01*
X187507627Y-104025805D01*
X187612690Y-103976814D01*
X187612695Y-103976811D01*
X187617677Y-103974488D01*
X187743271Y-103886546D01*
X187795270Y-103850136D01*
X187795273Y-103850134D01*
X187799781Y-103846977D01*
X187956977Y-103689781D01*
X188070217Y-103528058D01*
X188081331Y-103512185D01*
X188081332Y-103512183D01*
X188084488Y-103507676D01*
X188086811Y-103502694D01*
X188086814Y-103502689D01*
X188176117Y-103311178D01*
X188176118Y-103311177D01*
X188178440Y-103306196D01*
X188185119Y-103281272D01*
X188234554Y-103096776D01*
X188235978Y-103091463D01*
X188255353Y-102870000D01*
X188235978Y-102648537D01*
X188225514Y-102609484D01*
X188227204Y-102538507D01*
X188258126Y-102487778D01*
X197146764Y-93599141D01*
X197155050Y-93591601D01*
X197161529Y-93587489D01*
X197208155Y-93537837D01*
X197210909Y-93534996D01*
X197230646Y-93515259D01*
X197233126Y-93512062D01*
X197240831Y-93503040D01*
X197265670Y-93476589D01*
X197271097Y-93470810D01*
X197274916Y-93463864D01*
X197274918Y-93463861D01*
X197280859Y-93453055D01*
X197291710Y-93436536D01*
X197299269Y-93426790D01*
X197304125Y-93420530D01*
X197307270Y-93413261D01*
X197307273Y-93413257D01*
X197321685Y-93379952D01*
X197326902Y-93369302D01*
X197348206Y-93330549D01*
X197353244Y-93310926D01*
X197359648Y-93292223D01*
X197364544Y-93280909D01*
X197364544Y-93280908D01*
X197367692Y-93273634D01*
X197368931Y-93265811D01*
X197368934Y-93265801D01*
X197374610Y-93229965D01*
X197377016Y-93218345D01*
X197386039Y-93183200D01*
X197386039Y-93183199D01*
X197388011Y-93175519D01*
X197388011Y-93155265D01*
X197389562Y-93135554D01*
X197391491Y-93123375D01*
X197392731Y-93115546D01*
X197388570Y-93071527D01*
X197388011Y-93059670D01*
X197388011Y-68162268D01*
X197388538Y-68151085D01*
X197390213Y-68143592D01*
X197388073Y-68075501D01*
X197388011Y-68071544D01*
X197388011Y-68043645D01*
X197387507Y-68039654D01*
X197386574Y-68027812D01*
X197385434Y-67991537D01*
X197385185Y-67983612D01*
X197382973Y-67975998D01*
X197382972Y-67975993D01*
X197379534Y-67964160D01*
X197375523Y-67944796D01*
X197373978Y-67932565D01*
X197372985Y-67924704D01*
X197370068Y-67917337D01*
X197370067Y-67917332D01*
X197356709Y-67883593D01*
X197352865Y-67872366D01*
X197342741Y-67837523D01*
X197340529Y-67829908D01*
X197330218Y-67812473D01*
X197321523Y-67794725D01*
X197314063Y-67775884D01*
X197289894Y-67742617D01*
X197288075Y-67740114D01*
X197281559Y-67730194D01*
X197263091Y-67698966D01*
X197263089Y-67698963D01*
X197259053Y-67692139D01*
X197244732Y-67677818D01*
X197231891Y-67662784D01*
X197224643Y-67652808D01*
X197219983Y-67646394D01*
X197185918Y-67618213D01*
X197177137Y-67610223D01*
X196570146Y-67003231D01*
X196562612Y-66994952D01*
X196558499Y-66988471D01*
X196508847Y-66941845D01*
X196506006Y-66939091D01*
X196486269Y-66919354D01*
X196483072Y-66916874D01*
X196474050Y-66909169D01*
X196460615Y-66896553D01*
X196441820Y-66878903D01*
X196434874Y-66875084D01*
X196434871Y-66875082D01*
X196424065Y-66869141D01*
X196407546Y-66858290D01*
X196407082Y-66857930D01*
X196391540Y-66845875D01*
X196384271Y-66842730D01*
X196384267Y-66842727D01*
X196350962Y-66828315D01*
X196340312Y-66823098D01*
X196301559Y-66801794D01*
X196281936Y-66796756D01*
X196263233Y-66790352D01*
X196251919Y-66785456D01*
X196251918Y-66785456D01*
X196244644Y-66782308D01*
X196236821Y-66781069D01*
X196236811Y-66781066D01*
X196200975Y-66775390D01*
X196189355Y-66772984D01*
X196154210Y-66763961D01*
X196154209Y-66763961D01*
X196146529Y-66761989D01*
X196126275Y-66761989D01*
X196106564Y-66760438D01*
X196104033Y-66760037D01*
X196086556Y-66757269D01*
X196078664Y-66758015D01*
X196042538Y-66761430D01*
X196030680Y-66761989D01*
X194293274Y-66761989D01*
X194282090Y-66761462D01*
X194274602Y-66759788D01*
X194266679Y-66760037D01*
X194206544Y-66761927D01*
X194202586Y-66761989D01*
X194174655Y-66761989D01*
X194170740Y-66762484D01*
X194170736Y-66762484D01*
X194170678Y-66762492D01*
X194170649Y-66762495D01*
X194158807Y-66763428D01*
X194114621Y-66764816D01*
X194097255Y-66769861D01*
X194095169Y-66770467D01*
X194075817Y-66774475D01*
X194063579Y-66776021D01*
X194063577Y-66776022D01*
X194055714Y-66777015D01*
X194014597Y-66793295D01*
X194003396Y-66797130D01*
X193960917Y-66809471D01*
X193954098Y-66813504D01*
X193954093Y-66813506D01*
X193943482Y-66819782D01*
X193925732Y-66828479D01*
X193906894Y-66835937D01*
X193900478Y-66840598D01*
X193900477Y-66840599D01*
X193871136Y-66861917D01*
X193861212Y-66868436D01*
X193829971Y-66886911D01*
X193829966Y-66886915D01*
X193823148Y-66890947D01*
X193808824Y-66905271D01*
X193793792Y-66918110D01*
X193777404Y-66930017D01*
X193749223Y-66964082D01*
X193741233Y-66972862D01*
X193497345Y-67216750D01*
X193435033Y-67250776D01*
X193386154Y-67251702D01*
X193173373Y-67213800D01*
X193173367Y-67213799D01*
X193168284Y-67212894D01*
X193094452Y-67211992D01*
X192950081Y-67210228D01*
X192950079Y-67210228D01*
X192944911Y-67210165D01*
X192724091Y-67243955D01*
X192511756Y-67313357D01*
X192313607Y-67416507D01*
X192309474Y-67419610D01*
X192309471Y-67419612D01*
X192285247Y-67437800D01*
X192134965Y-67550635D01*
X192131393Y-67554373D01*
X191999741Y-67692139D01*
X191980629Y-67712138D01*
X191854743Y-67896680D01*
X191760688Y-68099305D01*
X191700989Y-68314570D01*
X191677251Y-68536695D01*
X191677548Y-68541848D01*
X191677548Y-68541851D01*
X191683011Y-68636590D01*
X191690110Y-68759715D01*
X191691247Y-68764762D01*
X191691248Y-68764766D01*
X191710036Y-68848133D01*
X191721633Y-68899589D01*
X191734641Y-68957310D01*
X191730105Y-69028161D01*
X191687984Y-69085313D01*
X191621650Y-69110619D01*
X191611724Y-69111011D01*
X157704106Y-69111011D01*
X157635985Y-69091009D01*
X157615011Y-69074106D01*
X157566218Y-69025313D01*
X157532192Y-68963001D01*
X157534755Y-68899589D01*
X157545865Y-68863022D01*
X157547370Y-68858069D01*
X157576529Y-68636590D01*
X157578156Y-68570000D01*
X157559852Y-68347361D01*
X157505431Y-68130702D01*
X157416354Y-67925840D01*
X157295014Y-67738277D01*
X157144670Y-67573051D01*
X157140619Y-67569852D01*
X157140615Y-67569848D01*
X156973414Y-67437800D01*
X156973410Y-67437798D01*
X156969359Y-67434598D01*
X156773789Y-67326638D01*
X156768920Y-67324914D01*
X156768916Y-67324912D01*
X156568087Y-67253795D01*
X156568083Y-67253794D01*
X156563212Y-67252069D01*
X156558119Y-67251162D01*
X156558116Y-67251161D01*
X156348373Y-67213800D01*
X156348367Y-67213799D01*
X156343284Y-67212894D01*
X156269452Y-67211992D01*
X156125081Y-67210228D01*
X156125079Y-67210228D01*
X156119911Y-67210165D01*
X155899091Y-67243955D01*
X155686756Y-67313357D01*
X155488607Y-67416507D01*
X155484474Y-67419610D01*
X155484471Y-67419612D01*
X155460247Y-67437800D01*
X155309965Y-67550635D01*
X155306393Y-67554373D01*
X155174741Y-67692139D01*
X155155629Y-67712138D01*
X155048201Y-67869621D01*
X154993293Y-67914621D01*
X154922768Y-67922792D01*
X154859021Y-67891538D01*
X154838324Y-67867054D01*
X154757822Y-67742617D01*
X154757820Y-67742614D01*
X154755014Y-67738277D01*
X154604670Y-67573051D01*
X154600619Y-67569852D01*
X154600615Y-67569848D01*
X154433414Y-67437800D01*
X154433410Y-67437798D01*
X154429359Y-67434598D01*
X154233789Y-67326638D01*
X154228920Y-67324914D01*
X154228916Y-67324912D01*
X154028087Y-67253795D01*
X154028083Y-67253794D01*
X154023212Y-67252069D01*
X154018119Y-67251162D01*
X154018116Y-67251161D01*
X153808373Y-67213800D01*
X153808367Y-67213799D01*
X153803284Y-67212894D01*
X153729452Y-67211992D01*
X153585081Y-67210228D01*
X153585079Y-67210228D01*
X153579911Y-67210165D01*
X153359091Y-67243955D01*
X153146756Y-67313357D01*
X152948607Y-67416507D01*
X152944474Y-67419610D01*
X152944471Y-67419612D01*
X152920247Y-67437800D01*
X152769965Y-67550635D01*
X152766393Y-67554373D01*
X152634741Y-67692139D01*
X152615629Y-67712138D01*
X152489743Y-67896680D01*
X152395688Y-68099305D01*
X152335989Y-68314570D01*
X152312251Y-68536695D01*
X152312548Y-68541848D01*
X152312548Y-68541851D01*
X152318011Y-68636590D01*
X152325110Y-68759715D01*
X152326247Y-68764762D01*
X152326248Y-68764766D01*
X152345036Y-68848133D01*
X152356633Y-68899589D01*
X152369641Y-68957310D01*
X152365105Y-69028161D01*
X152322984Y-69085313D01*
X152256650Y-69110619D01*
X152246724Y-69111011D01*
X141189106Y-69111011D01*
X141120985Y-69091009D01*
X141100011Y-69074106D01*
X141051218Y-69025313D01*
X141017192Y-68963001D01*
X141019755Y-68899589D01*
X141030865Y-68863022D01*
X141032370Y-68858069D01*
X141061529Y-68636590D01*
X141063156Y-68570000D01*
X141044852Y-68347361D01*
X140990431Y-68130702D01*
X140901354Y-67925840D01*
X140780014Y-67738277D01*
X140629670Y-67573051D01*
X140625619Y-67569852D01*
X140625615Y-67569848D01*
X140458414Y-67437800D01*
X140458410Y-67437798D01*
X140454359Y-67434598D01*
X140258789Y-67326638D01*
X140253920Y-67324914D01*
X140253916Y-67324912D01*
X140053087Y-67253795D01*
X140053083Y-67253794D01*
X140048212Y-67252069D01*
X140043119Y-67251162D01*
X140043116Y-67251161D01*
X139833373Y-67213800D01*
X139833367Y-67213799D01*
X139828284Y-67212894D01*
X139754452Y-67211992D01*
X139610081Y-67210228D01*
X139610079Y-67210228D01*
X139604911Y-67210165D01*
X139384091Y-67243955D01*
X139171756Y-67313357D01*
X138973607Y-67416507D01*
X138969474Y-67419610D01*
X138969471Y-67419612D01*
X138945247Y-67437800D01*
X138794965Y-67550635D01*
X138791393Y-67554373D01*
X138659741Y-67692139D01*
X138640629Y-67712138D01*
X138533201Y-67869621D01*
X138478293Y-67914621D01*
X138407768Y-67922792D01*
X138344021Y-67891538D01*
X138323324Y-67867054D01*
X138242822Y-67742617D01*
X138242820Y-67742614D01*
X138240014Y-67738277D01*
X138089670Y-67573051D01*
X138085619Y-67569852D01*
X138085615Y-67569848D01*
X137918414Y-67437800D01*
X137918410Y-67437798D01*
X137914359Y-67434598D01*
X137718789Y-67326638D01*
X137713920Y-67324914D01*
X137713916Y-67324912D01*
X137513087Y-67253795D01*
X137513083Y-67253794D01*
X137508212Y-67252069D01*
X137503119Y-67251162D01*
X137503116Y-67251161D01*
X137293373Y-67213800D01*
X137293367Y-67213799D01*
X137288284Y-67212894D01*
X137214452Y-67211992D01*
X137070081Y-67210228D01*
X137070079Y-67210228D01*
X137064911Y-67210165D01*
X136844091Y-67243955D01*
X136631756Y-67313357D01*
X136433607Y-67416507D01*
X136429474Y-67419610D01*
X136429471Y-67419612D01*
X136405247Y-67437800D01*
X136254965Y-67550635D01*
X136251393Y-67554373D01*
X136119741Y-67692139D01*
X136100629Y-67712138D01*
X135974743Y-67896680D01*
X135880688Y-68099305D01*
X135820989Y-68314570D01*
X135797251Y-68536695D01*
X135797548Y-68541848D01*
X135797548Y-68541851D01*
X135803011Y-68636590D01*
X135810110Y-68759715D01*
X135811247Y-68764761D01*
X135811248Y-68764767D01*
X135831119Y-68852939D01*
X135859222Y-68977639D01*
X135943266Y-69184616D01*
X135994942Y-69268944D01*
X136057291Y-69370688D01*
X136059987Y-69375088D01*
X136206250Y-69543938D01*
X136378126Y-69686632D01*
X136448595Y-69727811D01*
X136451445Y-69729476D01*
X136500169Y-69781114D01*
X136513240Y-69850897D01*
X136486509Y-69916669D01*
X136446055Y-69950027D01*
X136433607Y-69956507D01*
X136429474Y-69959610D01*
X136429471Y-69959612D01*
X136405247Y-69977800D01*
X136254965Y-70090635D01*
X136100629Y-70252138D01*
X135974743Y-70436680D01*
X135880688Y-70639305D01*
X135820989Y-70854570D01*
X135797251Y-71076695D01*
X135797548Y-71081848D01*
X135797548Y-71081851D01*
X135803011Y-71176590D01*
X135810110Y-71299715D01*
X135811247Y-71304761D01*
X135811248Y-71304767D01*
X135843453Y-71447668D01*
X135838917Y-71518520D01*
X135809631Y-71564464D01*
X135593236Y-71780859D01*
X135584950Y-71788399D01*
X135578471Y-71792511D01*
X135573046Y-71798288D01*
X135531846Y-71842162D01*
X135529091Y-71845004D01*
X135509354Y-71864741D01*
X135506874Y-71867938D01*
X135499171Y-71876958D01*
X135468903Y-71909190D01*
X135465084Y-71916136D01*
X135465082Y-71916139D01*
X135459141Y-71926945D01*
X135448290Y-71943464D01*
X135435875Y-71959470D01*
X135432730Y-71966739D01*
X135432727Y-71966743D01*
X135418315Y-72000048D01*
X135413098Y-72010698D01*
X135391794Y-72049451D01*
X135389823Y-72057126D01*
X135389823Y-72057127D01*
X135386756Y-72069073D01*
X135380352Y-72087777D01*
X135372308Y-72106366D01*
X135371069Y-72114189D01*
X135371066Y-72114199D01*
X135365390Y-72150035D01*
X135362984Y-72161655D01*
X135351989Y-72204481D01*
X135351989Y-72224735D01*
X135350438Y-72244445D01*
X135347269Y-72264454D01*
X132080000Y-72264454D01*
X132080000Y-63626000D01*
X132100002Y-63557879D01*
X132153658Y-63511386D01*
X132206000Y-63500000D01*
X200534000Y-63500000D01*
X200602121Y-63520002D01*
G37*
%TD.AperFunction*%
%TD*%
M02*
